<svg width="18" height="17" viewBox="0 0 18 17" fill="none" xmlns="http://www.w3.org/2000/svg">
<path id="Vector" d="M13.3761 6.39407L9.74312 0.944533C9.57795 0.779395 9.33027 0.614258 9.08257 0.614258C8.83486 0.614258 8.58716 0.696827 8.42202 0.944533L4.78899 6.39407H0.825688C0.330275 6.39407 0 6.72435 0 7.21976C0 7.30233 0 7.3849 0 7.46747L2.06422 15.1464C2.22936 15.8069 2.88991 16.3849 3.63303 16.3849H14.367C15.1101 16.3849 15.7706 15.8895 15.9358 15.1464L18 7.46747C18 7.3849 18 7.30233 18 7.21976C18 6.72435 17.6697 6.39407 17.1743 6.39407H13.3761ZM6.6055 6.39407L9.08257 2.76105L11.5596 6.39407H6.6055ZM9.08257 12.9996C8.17431 12.9996 7.43119 12.2565 7.43119 11.3482C7.43119 10.4399 8.17431 9.69683 9.08257 9.69683C9.99082 9.69683 10.7339 10.4399 10.7339 11.3482C10.7339 12.2565 9.99082 12.9996 9.08257 12.9996Z" fill="white"/>
</svg>
