<svg width="18" height="19" viewBox="0 0 18 19" fill="none" xmlns="http://www.w3.org/2000/svg">
<g id="shopping-basket-button 1">
<g id="Group">
<g id="shopping basket">
<path id="Vector" d="M13.3761 7.39505L9.74312 1.94551C9.57795 1.78037 9.33027 1.61523 9.08257 1.61523C8.83486 1.61523 8.58716 1.6978 8.42202 1.94551L4.78899 7.39505H0.825688C0.330275 7.39505 0 7.72533 0 8.22074C0 8.30331 0 8.38588 0 8.46845L2.06422 16.1473C2.22936 16.8079 2.88991 17.3859 3.63303 17.3859H14.367C15.1101 17.3859 15.7706 16.8905 15.9358 16.1473L18 8.46845C18 8.38588 18 8.30331 18 8.22074C18 7.72533 17.6697 7.39505 17.1743 7.39505H13.3761ZM6.6055 7.39505L9.08257 3.76202L11.5596 7.39505H6.6055ZM9.08257 14.0006C8.17431 14.0006 7.43119 13.2574 7.43119 12.3492C7.43119 11.4409 8.17431 10.6978 9.08257 10.6978C9.99082 10.6978 10.7339 11.4409 10.7339 12.3492C10.7339 13.2574 9.99082 14.0006 9.08257 14.0006Z" fill="#252733"/>
</g>
</g>
</g>
</svg>
