<svg width="18" height="18" viewBox="0 0 18 18" fill="none" xmlns="http://www.w3.org/2000/svg">
<g id="ssss" clip-path="url(#clip0_319_7984)">
<g id="Group">
<g id="Group_2">
<path id="Vector" d="M1.93782 12.7473C1.60049 12.41 1.30093 12.0518 1.03483 11.6826C0.572702 11.9722 0.230104 12.2435 0.0632173 12.3829C-0.00379048 12.4388 -0.019646 12.5351 0.0258462 12.6096C0.372663 13.1778 1.8816 15.4449 4.07764 15.807C5.04848 15.9671 6.01144 15.7312 6.82809 15.3816C5.37072 15.0084 3.44673 14.2563 1.93782 12.7473Z" fill="#C9C9C9"/>
<path id="Vector_2" d="M16.9652 11.6826C16.699 12.0519 16.3995 12.41 16.0621 12.7473C14.5532 14.2563 12.6292 15.0085 11.1719 15.3816C11.9886 15.7312 12.9515 15.9671 13.9223 15.807C16.1184 15.445 17.6273 13.1778 17.9741 12.6096C18.0196 12.5351 18.0038 12.4389 17.9367 12.3829C17.7699 12.2435 17.4273 11.9721 16.9652 11.6826Z" fill="#C9C9C9"/>
</g>
<g id="Group_3">
<path id="Vector_3" d="M5.60939 6.25796C5.80071 5.49497 6.07443 4.79033 6.37365 4.16648C5.52571 3.38169 4.72939 2.87702 4.38433 2.67385C4.28966 2.6181 4.16795 2.66165 4.13008 2.7648C3.98932 3.14857 3.6843 4.07364 3.5293 5.25267C4.20616 5.49943 4.92008 5.8261 5.60939 6.25796Z" fill="#C9C9C9"/>
<path id="Vector_4" d="M14.4703 5.25267C14.3153 4.07364 14.0103 3.14857 13.8695 2.7648C13.8317 2.66165 13.71 2.6181 13.6153 2.67385C13.2702 2.87699 12.4739 3.38169 11.626 4.16648C11.9252 4.79033 12.1989 5.49493 12.3902 6.25796C13.0795 5.8261 13.7935 5.49943 14.4703 5.25267Z" fill="#C9C9C9"/>
</g>
<g id="Group_4">
<path id="Vector_5" d="M5.33472 8.41377C5.33472 8.06284 5.35772 7.71859 5.39909 7.38236C3.34723 5.94949 0.913579 5.63024 0.194844 5.5652C0.0836098 5.55514 -0.00930819 5.64806 0.000746498 5.7593C0.0772817 6.60466 0.505028 9.82269 2.68359 12.0013C4.13234 13.45 6.04055 14.1244 7.40521 14.4362C6.54716 13.1914 5.33472 10.9781 5.33472 8.41377Z" fill="#C9C9C9"/>
<path id="Vector_6" d="M17.8051 5.5652C17.0864 5.63024 14.6527 5.94949 12.6009 7.38239C12.6423 7.71859 12.6653 8.06284 12.6653 8.41377C12.6653 10.9781 11.4528 13.1914 10.5947 14.4362C11.9594 14.1243 13.8676 13.45 15.3164 12.0012C17.4949 9.82266 17.9227 6.60463 17.9992 5.75926C18.0093 5.64806 17.9164 5.55514 17.8051 5.5652Z" fill="#C9C9C9"/>
</g>
<path id="Vector_7" d="M11.6109 8.41364C11.6109 11.4443 9.67008 13.9802 9.13528 14.6215C9.0649 14.7058 8.93563 14.7058 8.86525 14.6215C8.33045 13.9802 6.38965 11.4443 6.38965 8.41364C6.38965 5.38296 8.33048 2.84711 8.86528 2.20586C8.93566 2.12148 9.06493 2.12148 9.13532 2.20586C9.67008 2.84711 11.6109 5.383 11.6109 8.41364Z" fill="#C9C9C9"/>
</g>
</g>
<defs>
<clipPath id="clip0_319_7984">
<rect width="18" height="18" fill="white"/>
</clipPath>
</defs>
</svg>
