<svg width="18" height="17" viewBox="0 0 18 17" fill="none" xmlns="http://www.w3.org/2000/svg">
<g id="news">
<path id="Vector" fill-rule="evenodd" clip-rule="evenodd" d="M14.1235 3.37717V6.57892L14.1239 12.9825C14.1462 13.3878 14.2768 13.78 14.5021 14.1177C14.7273 14.4556 15.0389 14.727 15.4045 14.9036C15.9939 15.2469 16.648 15.4649 17.3256 15.5439H3.12851C2.29406 15.5288 1.49964 15.1832 0.919744 14.5828C0.339988 13.9826 0.0218898 13.1767 0.0355806 12.3421V3.37717C0.0355806 2.86771 0.238072 2.37908 0.598253 2.01873C0.958643 1.65854 1.44728 1.45605 1.95669 1.45605H12.2024C12.7119 1.45605 13.2005 1.65855 13.5608 2.01873C13.921 2.37912 14.1235 2.86776 14.1235 3.37717ZM4.51819 11.7017L9.64083 11.7016C9.86967 11.7016 10.0809 11.5795 10.1954 11.3814C10.3098 11.1833 10.3098 10.9393 10.1954 10.7412C10.081 10.5429 9.86968 10.4209 9.64083 10.4209H4.51819C4.28935 10.4209 4.07807 10.5429 3.96365 10.7412C3.84922 10.9393 3.84922 11.1833 3.96365 11.3814C4.07805 11.5795 4.28933 11.7017 4.51819 11.7017ZM4.51819 9.14023L9.64083 9.14006C9.86967 9.14006 10.0809 9.0182 10.1954 8.82011C10.3098 8.62185 10.3098 8.37777 10.1954 8.17968C10.081 7.98159 9.86968 7.85956 9.64083 7.85956H4.51819C4.28935 7.85956 4.07807 7.98159 3.96365 8.17968C3.84922 8.37777 3.84922 8.62185 3.96365 8.82011C4.07805 9.0182 4.28933 9.14023 4.51819 9.14023ZM4.51819 6.57874L9.64083 6.57857C9.86967 6.57857 10.0809 6.45671 10.1954 6.25862C10.3098 6.06053 10.3098 5.81645 10.1954 5.61819C10.081 5.4201 9.86968 5.29806 9.64083 5.29806H4.51819C4.28935 5.29806 4.07807 5.4201 3.96365 5.61819C3.84922 5.81645 3.84922 6.06052 3.96365 6.25862C4.07805 6.45671 4.28933 6.57874 4.51819 6.57874ZM17.9654 12.9822V6.57854C17.9654 6.23896 17.8305 5.91309 17.5903 5.67291C17.3501 5.43273 17.0244 5.29785 16.6847 5.29785H15.404V12.931C15.404 13.6224 15.7177 14.3205 16.6847 14.2628C17.0244 14.2628 17.3501 14.128 17.5903 13.8878C17.8305 13.6476 17.9654 13.3219 17.9654 12.9822Z" fill="#C9C9C9"/>
</g>
</svg>
