<svg width="18" height="18" viewBox="0 0 18 18" fill="none" xmlns="http://www.w3.org/2000/svg">
<g id="info" clip-path="url(#clip0_319_8005)">
<path id="Vector" d="M7.23145 8.99968C7.23145 8.00689 8.0229 7.2002 8.99853 7.2002C9.97416 7.2002 10.7656 8.00689 10.7656 8.99968C10.7656 9.99248 9.97414 10.7992 8.99853 10.7992C8.02292 10.7992 7.23145 9.99248 7.23145 8.99968Z" fill="#C9C9C9"/>
<path id="Vector_2" fill-rule="evenodd" clip-rule="evenodd" d="M6.68207 0H11.3146L11.5108 1.00401L11.5115 1.00744L11.8342 2.60996C12.2945 2.81684 12.7213 3.07297 13.1161 3.36289L14.7294 2.81306L15.6856 2.5111L16.185 3.38376L17.4896 5.60884L18 6.5009L17.2399 7.17623L16.0299 8.22539C16.0679 8.46089 16.1031 8.72674 16.1031 8.99996C16.1031 9.2732 16.0679 9.53908 16.0299 9.77461L17.2453 10.8285L18 11.4991L17.4864 12.3966L16.1852 14.616L15.6856 15.4911L14.717 15.1828L13.1161 14.6371C12.7213 14.927 12.2945 15.1831 11.8342 15.39L11.5115 16.9925L11.5108 16.9959L11.3146 18H6.68205L6.48766 16.9937L6.16373 15.3901C5.70341 15.1832 5.2765 14.9271 4.88167 14.6371L3.26949 15.1865L2.31122 15.4914L1.81348 14.6155L0.507571 12.3901L0 11.4991L0.757805 10.8238L1.96829 9.77423C1.93043 9.53936 1.89464 9.27248 1.89464 8.99996C1.89464 8.72745 1.93043 8.46061 1.96829 8.22576L0.751747 7.17091L2.55591e-05 6.50089L0.511442 5.60309L1.81364 3.38419L2.31123 2.51082L3.28072 2.81713L4.88166 3.36289C5.27649 3.07293 5.70339 2.81676 6.16373 2.60986L6.48767 1.00617L6.68207 0ZM8.99874 5.99983C7.37324 5.99983 6.05361 7.34334 6.05361 9.00004C6.05361 10.6567 7.37322 12.0003 8.99874 12.0003C10.6243 12.0003 11.9439 10.6567 11.9439 9.00004C11.9439 7.34334 10.6242 5.99983 8.99874 5.99983Z" fill="#C9C9C9"/>
</g>
</svg>
