<svg width="109" height="37" viewBox="0 0 109 37" fill="none" xmlns="http://www.w3.org/2000/svg">
<path d="M27 10.01L30.71 0.21H33.594L37.304 10.01H34.938L33.888 7.182H30.374L29.31 10.01H27ZM30.472 6.916H33.79L32.138 2.576L30.472 6.916Z" fill="white"/>
<path d="M42.5507 10.22C41.6174 10.22 40.8007 10.066 40.1007 9.758C39.4007 9.45 38.8501 9.01133 38.4487 8.442C38.0474 7.86333 37.8281 7.19133 37.7907 6.426H40.0167C40.0634 6.83667 40.1847 7.19133 40.3807 7.49C40.5767 7.77933 40.8474 8.00333 41.1927 8.162C41.5381 8.32067 41.9394 8.4 42.3967 8.4C43.0687 8.4 43.5867 8.274 43.9507 8.022C44.3241 7.76067 44.5107 7.39667 44.5107 6.93C44.5107 6.58467 44.3987 6.3 44.1747 6.076C43.9507 5.84267 43.6287 5.64667 43.2087 5.488C42.7887 5.32933 42.2381 5.18 41.5567 5.04H41.5427C40.8054 4.88133 40.1941 4.69933 39.7087 4.494C39.2327 4.28867 38.8594 4.02733 38.5887 3.71C38.3274 3.39267 38.1967 3.01 38.1967 2.562C38.1967 2.04867 38.3647 1.60067 38.7007 1.218C39.0461 0.826 39.5127 0.527333 40.1007 0.322C40.6887 0.107333 41.3561 0 42.1027 0C43.0174 0 43.8107 0.149333 44.4827 0.448C45.1641 0.746667 45.6961 1.17133 46.0787 1.722C46.4614 2.27267 46.6761 2.93067 46.7227 3.696H44.3987C44.3427 3.11733 44.1187 2.66467 43.7267 2.338C43.3347 2.01133 42.8167 1.848 42.1727 1.848C41.7714 1.848 41.4214 1.90867 41.1227 2.03C40.8241 2.142 40.5954 2.31 40.4367 2.534C40.2781 2.74867 40.1987 3.01 40.1987 3.318C40.1987 3.66333 40.3154 3.94333 40.5487 4.158C40.7821 4.37267 41.1414 4.564 41.6267 4.732C42.1214 4.9 42.8307 5.08667 43.7547 5.292C43.7921 5.30133 43.8247 5.31067 43.8527 5.32C43.8901 5.32 43.9274 5.32467 43.9647 5.334C43.9834 5.34333 44.0021 5.348 44.0207 5.348C44.0394 5.348 44.0581 5.35267 44.0767 5.362C44.6181 5.49267 45.0754 5.64667 45.4487 5.824C45.8221 5.992 46.1161 6.22067 46.3307 6.51C46.5454 6.79933 46.6527 7.16333 46.6527 7.602C46.6527 8.11533 46.4801 8.57267 46.1347 8.974C45.7987 9.366 45.3181 9.674 44.6927 9.898C44.0674 10.1127 43.3534 10.22 42.5507 10.22Z" fill="white"/>
<path d="M48.6275 10.01V0.21H50.8675V10.01H48.6275Z" fill="white"/>
<path d="M52.5117 10.01L56.2217 0.21H59.1057L62.8157 10.01H60.4497L59.3997 7.182H55.8857L54.8217 10.01H52.5117ZM55.9837 6.916H59.3017L57.6497 2.576L55.9837 6.916Z" fill="white"/>
<path d="M64.4458 10.01V0.21H66.6998L71.2218 9.324V0.21H73.4618V10.01H71.2078L66.6858 0.896V10.01H64.4458Z" fill="white"/>
<path d="M32.488 23.22C31.5173 23.22 30.6447 23.0007 29.87 22.562C29.1047 22.1233 28.5027 21.5167 28.064 20.742C27.6347 19.9673 27.42 19.09 27.42 18.11C27.42 17.13 27.6347 16.2527 28.064 15.478C28.5027 14.7033 29.1047 14.0967 29.87 13.658C30.6447 13.2193 31.5173 13 32.488 13C33.3373 13 34.112 13.182 34.812 13.546C35.5213 13.9007 36.0907 14.4 36.52 15.044C36.9587 15.688 37.2107 16.4113 37.276 17.214H35.008C34.924 16.8033 34.7607 16.4487 34.518 16.15C34.2847 15.842 33.9907 15.604 33.636 15.436C33.2907 15.268 32.8987 15.184 32.46 15.184C31.928 15.184 31.452 15.31 31.032 15.562C30.6213 15.814 30.2993 16.164 30.066 16.612C29.8327 17.0507 29.716 17.55 29.716 18.11C29.716 18.67 29.8327 19.174 30.066 19.622C30.2993 20.0607 30.6213 20.406 31.032 20.658C31.452 20.9007 31.928 21.022 32.46 21.022C32.8987 21.022 33.2907 20.9427 33.636 20.784C33.9907 20.616 34.2847 20.3827 34.518 20.084C34.7607 19.776 34.924 19.4167 35.008 19.006H37.276C37.2107 19.8087 36.9587 20.532 36.52 21.176C36.0907 21.82 35.5213 22.324 34.812 22.688C34.112 23.0427 33.3373 23.22 32.488 23.22Z" fill="white"/>
<path d="M39.2076 23.01V13.21H41.4476V20.854H46.3196V23.01H39.2076Z" fill="white"/>
<path d="M47.043 23.01L50.753 13.21H53.637L57.347 23.01H54.981L53.931 20.182H50.417L49.353 23.01H47.043ZM50.515 19.916H53.833L52.181 15.576L50.515 19.916Z" fill="white"/>
<path d="M62.5937 23.22C61.6604 23.22 60.8437 23.066 60.1437 22.758C59.4437 22.45 58.893 22.0113 58.4917 21.442C58.0904 20.8633 57.871 20.1913 57.8337 19.426H60.0597C60.1064 19.8367 60.2277 20.1913 60.4237 20.49C60.6197 20.7793 60.8904 21.0033 61.2357 21.162C61.581 21.3207 61.9824 21.4 62.4397 21.4C63.1117 21.4 63.6297 21.274 63.9937 21.022C64.367 20.7607 64.5537 20.3967 64.5537 19.93C64.5537 19.5847 64.4417 19.3 64.2177 19.076C63.9937 18.8427 63.6717 18.6467 63.2517 18.488C62.8317 18.3293 62.281 18.18 61.5997 18.04H61.5857C60.8484 17.8813 60.237 17.6993 59.7517 17.494C59.2757 17.2887 58.9024 17.0273 58.6317 16.71C58.3704 16.3927 58.2397 16.01 58.2397 15.562C58.2397 15.0487 58.4077 14.6007 58.7437 14.218C59.089 13.826 59.5557 13.5273 60.1437 13.322C60.7317 13.1073 61.399 13 62.1457 13C63.0604 13 63.8537 13.1493 64.5257 13.448C65.207 13.7467 65.739 14.1713 66.1217 14.722C66.5044 15.2727 66.719 15.9307 66.7657 16.696H64.4417C64.3857 16.1173 64.1617 15.6647 63.7697 15.338C63.3777 15.0113 62.8597 14.848 62.2157 14.848C61.8144 14.848 61.4644 14.9087 61.1657 15.03C60.867 15.142 60.6384 15.31 60.4797 15.534C60.321 15.7487 60.2417 16.01 60.2417 16.318C60.2417 16.6633 60.3584 16.9433 60.5917 17.158C60.825 17.3727 61.1844 17.564 61.6697 17.732C62.1644 17.9 62.8737 18.0867 63.7977 18.292C63.835 18.3013 63.8677 18.3107 63.8957 18.32C63.933 18.32 63.9704 18.3247 64.0077 18.334C64.0264 18.3433 64.045 18.348 64.0637 18.348C64.0824 18.348 64.101 18.3527 64.1197 18.362C64.661 18.4927 65.1184 18.6467 65.4917 18.824C65.865 18.992 66.159 19.2207 66.3737 19.51C66.5884 19.7993 66.6957 20.1633 66.6957 20.602C66.6957 21.1153 66.523 21.5727 66.1777 21.974C65.8417 22.366 65.361 22.674 64.7357 22.898C64.1104 23.1127 63.3964 23.22 62.5937 23.22Z" fill="white"/>
<path d="M72.4785 23.22C71.5451 23.22 70.7285 23.066 70.0285 22.758C69.3285 22.45 68.7778 22.0113 68.3765 21.442C67.9751 20.8633 67.7558 20.1913 67.7185 19.426H69.9445C69.9911 19.8367 70.1125 20.1913 70.3085 20.49C70.5045 20.7793 70.7751 21.0033 71.1205 21.162C71.4658 21.3207 71.8671 21.4 72.3245 21.4C72.9965 21.4 73.5145 21.274 73.8785 21.022C74.2518 20.7607 74.4385 20.3967 74.4385 19.93C74.4385 19.5847 74.3265 19.3 74.1025 19.076C73.8785 18.8427 73.5565 18.6467 73.1365 18.488C72.7165 18.3293 72.1658 18.18 71.4845 18.04H71.4705C70.7331 17.8813 70.1218 17.6993 69.6365 17.494C69.1605 17.2887 68.7871 17.0273 68.5165 16.71C68.2551 16.3927 68.1245 16.01 68.1245 15.562C68.1245 15.0487 68.2925 14.6007 68.6285 14.218C68.9738 13.826 69.4405 13.5273 70.0285 13.322C70.6165 13.1073 71.2838 13 72.0305 13C72.9451 13 73.7385 13.1493 74.4105 13.448C75.0918 13.7467 75.6238 14.1713 76.0065 14.722C76.3891 15.2727 76.6038 15.9307 76.6505 16.696H74.3265C74.2705 16.1173 74.0465 15.6647 73.6545 15.338C73.2625 15.0113 72.7445 14.848 72.1005 14.848C71.6991 14.848 71.3491 14.9087 71.0505 15.03C70.7518 15.142 70.5231 15.31 70.3645 15.534C70.2058 15.7487 70.1265 16.01 70.1265 16.318C70.1265 16.6633 70.2431 16.9433 70.4765 17.158C70.7098 17.3727 71.0691 17.564 71.5545 17.732C72.0491 17.9 72.7585 18.0867 73.6825 18.292C73.7198 18.3013 73.7525 18.3107 73.7805 18.32C73.8178 18.32 73.8551 18.3247 73.8925 18.334C73.9111 18.3433 73.9298 18.348 73.9485 18.348C73.9671 18.348 73.9858 18.3527 74.0045 18.362C74.5458 18.4927 75.0031 18.6467 75.3765 18.824C75.7498 18.992 76.0438 19.2207 76.2585 19.51C76.4731 19.7993 76.5805 20.1633 76.5805 20.602C76.5805 21.1153 76.4078 21.5727 76.0625 21.974C75.7265 22.366 75.2458 22.674 74.6205 22.898C73.9951 23.1127 73.2811 23.22 72.4785 23.22Z" fill="white"/>
<path d="M78.5552 23.01V13.21H80.7952V23.01H78.5552Z" fill="white"/>
<path d="M87.736 23.22C86.7654 23.22 85.8927 23.0007 85.118 22.562C84.3527 22.1233 83.7507 21.5167 83.312 20.742C82.8827 19.9673 82.668 19.09 82.668 18.11C82.668 17.13 82.8827 16.2527 83.312 15.478C83.7507 14.7033 84.3527 14.0967 85.118 13.658C85.8927 13.2193 86.7654 13 87.736 13C88.5854 13 89.36 13.182 90.06 13.546C90.7694 13.9007 91.3387 14.4 91.7681 15.044C92.2067 15.688 92.4587 16.4113 92.524 17.214H90.2561C90.1721 16.8033 90.0087 16.4487 89.766 16.15C89.5327 15.842 89.2387 15.604 88.884 15.436C88.5387 15.268 88.1467 15.184 87.708 15.184C87.176 15.184 86.7001 15.31 86.28 15.562C85.8694 15.814 85.5474 16.164 85.314 16.612C85.0807 17.0507 84.964 17.55 84.964 18.11C84.964 18.67 85.0807 19.174 85.314 19.622C85.5474 20.0607 85.8694 20.406 86.28 20.658C86.7001 20.9007 87.176 21.022 87.708 21.022C88.1467 21.022 88.5387 20.9427 88.884 20.784C89.2387 20.616 89.5327 20.3827 89.766 20.084C90.0087 19.776 90.1721 19.4167 90.2561 19.006H92.524C92.4587 19.8087 92.2067 20.532 91.7681 21.176C91.3387 21.82 90.7694 22.324 90.06 22.688C89.36 23.0427 88.5854 23.22 87.736 23.22Z" fill="white"/>
<path d="M98.2636 23.22C97.3303 23.22 96.5136 23.066 95.8136 22.758C95.1136 22.45 94.563 22.0113 94.1616 21.442C93.7603 20.8633 93.5409 20.1913 93.5036 19.426H95.7296C95.7763 19.8367 95.8976 20.1913 96.0936 20.49C96.2896 20.7793 96.5603 21.0033 96.9056 21.162C97.2509 21.3207 97.6523 21.4 98.1096 21.4C98.7816 21.4 99.2996 21.274 99.6636 21.022C100.037 20.7607 100.224 20.3967 100.224 19.93C100.224 19.5847 100.112 19.3 99.8876 19.076C99.6636 18.8427 99.3416 18.6467 98.9216 18.488C98.5016 18.3293 97.9509 18.18 97.2696 18.04H97.2556C96.5183 17.8813 95.9069 17.6993 95.4216 17.494C94.9456 17.2887 94.5723 17.0273 94.3016 16.71C94.0403 16.3927 93.9096 16.01 93.9096 15.562C93.9096 15.0487 94.0776 14.6007 94.4136 14.218C94.7589 13.826 95.2256 13.5273 95.8136 13.322C96.4016 13.1073 97.0689 13 97.8156 13C98.7303 13 99.5236 13.1493 100.196 13.448C100.877 13.7467 101.409 14.1713 101.792 14.722C102.174 15.2727 102.389 15.9307 102.436 16.696H100.112C100.056 16.1173 99.8316 15.6647 99.4396 15.338C99.0476 15.0113 98.5296 14.848 97.8856 14.848C97.4843 14.848 97.1343 14.9087 96.8356 15.03C96.5369 15.142 96.3083 15.31 96.1496 15.534C95.9909 15.7487 95.9116 16.01 95.9116 16.318C95.9116 16.6633 96.0283 16.9433 96.2616 17.158C96.4949 17.3727 96.8543 17.564 97.3396 17.732C97.8343 17.9 98.5436 18.0867 99.4676 18.292C99.5049 18.3013 99.5376 18.3107 99.5656 18.32C99.6029 18.32 99.6403 18.3247 99.6776 18.334C99.6963 18.3433 99.7149 18.348 99.7336 18.348C99.7523 18.348 99.7709 18.3527 99.7896 18.362C100.331 18.4927 100.788 18.6467 101.162 18.824C101.535 18.992 101.829 19.2207 102.044 19.51C102.258 19.7993 102.366 20.1633 102.366 20.602C102.366 21.1153 102.193 21.5727 101.848 21.974C101.512 22.366 101.031 22.674 100.406 22.898C99.7803 23.1127 99.0663 23.22 98.2636 23.22Z" fill="white"/>
<path d="M28.106 36.01V26.21H30.346V36.01H28.106Z" fill="white"/>
<path d="M33.0962 36.01V26.21H35.3502L39.8722 35.324V26.21H42.1122V36.01H39.8582L35.3362 26.896V36.01H33.0962Z" fill="white"/>
<path d="M48.662 36.22C47.7287 36.22 46.912 36.066 46.212 35.758C45.512 35.45 44.9614 35.0113 44.56 34.442C44.1587 33.8633 43.9394 33.1913 43.902 32.426H46.128C46.1747 32.8367 46.296 33.1913 46.492 33.49C46.688 33.7793 46.9587 34.0033 47.304 34.162C47.6494 34.3207 48.0507 34.4 48.508 34.4C49.18 34.4 49.698 34.274 50.062 34.022C50.4354 33.7607 50.622 33.3967 50.622 32.93C50.622 32.5847 50.51 32.3 50.286 32.076C50.062 31.8427 49.74 31.6467 49.32 31.488C48.9 31.3293 48.3494 31.18 47.668 31.04H47.654C46.9167 30.8813 46.3054 30.6993 45.82 30.494C45.344 30.2887 44.9707 30.0273 44.7 29.71C44.4387 29.3927 44.308 29.01 44.308 28.562C44.308 28.0487 44.476 27.6007 44.812 27.218C45.1574 26.826 45.624 26.5273 46.212 26.322C46.8 26.1073 47.4674 26 48.214 26C49.1287 26 49.922 26.1493 50.594 26.448C51.2754 26.7467 51.8074 27.1713 52.19 27.722C52.5727 28.2727 52.7874 28.9307 52.834 29.696H50.51C50.454 29.1173 50.23 28.6647 49.838 28.338C49.446 28.0113 48.928 27.848 48.284 27.848C47.8827 27.848 47.5327 27.9087 47.234 28.03C46.9354 28.142 46.7067 28.31 46.548 28.534C46.3894 28.7487 46.31 29.01 46.31 29.318C46.31 29.6633 46.4267 29.9433 46.66 30.158C46.8934 30.3727 47.2527 30.564 47.738 30.732C48.2327 30.9 48.942 31.0867 49.866 31.292C49.9034 31.3013 49.936 31.3107 49.964 31.32C50.0014 31.32 50.0387 31.3247 50.076 31.334C50.0947 31.3433 50.1134 31.348 50.132 31.348C50.1507 31.348 50.1694 31.3527 50.188 31.362C50.7294 31.4927 51.1867 31.6467 51.56 31.824C51.9334 31.992 52.2274 32.2207 52.442 32.51C52.6567 32.7993 52.764 33.1633 52.764 33.602C52.764 34.1153 52.5914 34.5727 52.246 34.974C51.91 35.366 51.4294 35.674 50.804 35.898C50.1787 36.1127 49.4647 36.22 48.662 36.22Z" fill="white"/>
<path d="M57.2318 36.01V28.366H53.7038V26.21H62.9858V28.366H59.4718V36.01H57.2318Z" fill="white"/>
<path d="M64.733 36.01V26.21H66.973V36.01H64.733Z" fill="white"/>
<path d="M72.2572 36.01V28.366H68.7292V26.21H78.0112V28.366H74.4972V36.01H72.2572Z" fill="white"/>
<path d="M84.0713 36.22C83.166 36.22 82.368 36.0333 81.6773 35.66C80.996 35.2867 80.4687 34.764 80.0953 34.092C79.722 33.4107 79.5353 32.6173 79.5353 31.712V26.21H81.7753V31.6C81.7753 32.1133 81.864 32.5567 82.0413 32.93C82.228 33.294 82.4893 33.574 82.8253 33.77C83.1707 33.966 83.586 34.064 84.0713 34.064C84.5567 34.064 84.9673 33.966 85.3033 33.77C85.6487 33.574 85.91 33.294 86.0873 32.93C86.2647 32.5567 86.3533 32.1133 86.3533 31.6V26.21H88.5933V31.712C88.5933 32.6173 88.4067 33.4107 88.0333 34.092C87.6693 34.764 87.142 35.2867 86.4513 35.66C85.77 36.0333 84.9767 36.22 84.0713 36.22Z" fill="white"/>
<path d="M93.6537 36.01V28.366H90.1257V26.21H99.4077V28.366H95.8937V36.01H93.6537Z" fill="white"/>
<path d="M101.155 36.01V26.21H107.917V28.156H103.353V30.97H106.461V31.25H103.353V34.064H108.323V36.01H101.155Z" fill="white"/>
<path d="M7.86588 27.942H6.0286C5.79878 27.942 5.56516 27.9655 5.54738 27.6221C5.54738 27.5739 5.46866 27.5219 5.42041 27.492C5.22554 27.3465 5.08606 27.1362 5.02584 26.8971C4.96562 26.6579 4.9884 26.4047 5.09028 26.1809C5.13293 26.0908 5.20601 26.0196 5.29598 25.9806C5.53722 25.9129 5.63245 25.7438 5.55627 25.5357C5.49066 25.3814 5.37044 25.2582 5.21979 25.191C4.01864 24.7098 2.8632 24.1504 1.87283 23.2842C1.07271 22.6076 0.43244 21.7542 0 20.7881H5.94353C4.34369 19.6799 3.08921 18.4351 2.79083 16.5061C2.4988 14.6279 2.9305 12.9239 4.02499 11.4047L4.14054 11.4216C4.11895 11.5881 4.08594 11.7546 4.07578 11.9224C3.96786 13.7148 4.36782 15.316 5.69086 16.605C6.41713 17.3126 7.11167 18.0579 7.77446 18.8292C8.06141 19.1622 8.23155 19.6005 8.49693 20.0662C8.56422 19.3534 8.46264 18.7356 8.15156 18.1997C7.67415 17.3802 7.18785 16.5503 6.59489 15.818C5.25154 14.1544 4.62684 12.2554 4.65096 10.1222C4.67001 8.45727 5.4585 7.13054 6.52633 5.91177C6.76631 6.28377 6.69266 6.61806 6.51744 6.91072C6.04638 7.69115 6.09082 8.5093 6.32318 9.34827C6.64949 10.5267 7.21197 11.592 7.8062 12.6443C8.75341 14.3014 9.41874 16.0639 9.48476 18.0085C9.50762 18.6744 9.42382 19.3443 9.387 20.0428C9.98431 19.3046 10.3192 18.3805 10.3367 17.4218C10.371 15.8024 9.95583 14.2923 9.27399 12.8472C8.7496 11.7286 8.14395 10.636 7.70843 9.48874C6.75742 6.97836 6.85519 4.50699 8.27219 2.1787C8.94513 1.07179 9.89234 0.301767 11.176 0.0390215C11.3068 0.0184683 11.4387 0.00544082 11.5709 0C11.1252 0.616541 10.5831 1.17065 10.2771 1.83011C9.41874 3.69794 9.27145 5.63862 10.0587 7.591C10.7342 9.26502 11.449 10.9221 12.0902 12.6105C12.621 14.0113 12.5549 15.472 12.2629 16.9198C12.0775 17.8303 11.4884 18.5548 10.9526 19.2871C10.7684 19.5381 10.5793 19.7852 10.3926 20.035L10.4637 20.1507C10.8903 19.8737 11.3754 19.6591 11.7334 19.3105C13.0971 17.9824 13.8704 16.4086 13.7408 14.3964C13.6278 12.6287 12.9358 11.1277 12.0559 9.66824C11.3589 8.51841 10.5843 7.40759 10.2199 6.07696C9.92535 4.99606 10.1602 3.99581 10.7342 3.05019C10.7748 3.4404 10.8129 3.81891 10.8548 4.20262C10.9268 5.06185 11.2384 5.88177 11.7525 6.56473C12.4711 7.49474 13.2393 8.38574 13.9542 9.31965C15.3343 11.1172 16.0251 13.1646 15.8816 15.4564C15.7737 17.1903 15.135 18.6978 13.8259 19.8607L12.7974 20.7712H19C18.6966 21.4803 18.2702 22.1272 17.7417 22.6806C16.632 23.889 15.2391 24.6226 13.7447 25.1845C13.525 25.2678 13.3637 25.3679 13.4234 25.6372C13.4478 25.745 13.5057 25.8418 13.5885 25.9129C14.1345 26.3161 14.1357 27.068 13.5885 27.4855C13.5342 27.5219 13.4928 27.5753 13.4704 27.6377C13.412 27.9121 13.2241 27.9433 12.9955 27.9394C12.4648 27.9325 11.9336 27.9325 11.402 27.9394C11.2487 27.9631 11.0979 28.001 10.9513 28.0526C11.7283 28.6796 11.8515 29.4171 11.6014 30.2313C11.5134 30.4689 11.3781 30.6851 11.204 30.8661C10.9665 31.134 10.9691 31.2394 11.2966 31.3864C11.3751 31.4151 11.4552 31.4385 11.5366 31.4566C11.7135 31.5015 11.873 31.6 11.9944 31.7393C12.1158 31.8785 12.1935 32.0519 12.2172 32.237C12.3099 32.7105 12.4318 33.1787 12.5321 33.6522C12.5829 33.8901 12.6839 34.1137 12.828 34.3074C12.9721 34.5011 13.1558 34.6601 13.3663 34.7734C13.6116 34.9085 13.8334 35.0843 14.0227 35.2937C14.0733 35.3727 14.1074 35.4615 14.1227 35.5547C14.138 35.6478 14.1342 35.7432 14.1116 35.8348C14.0913 35.922 13.8488 36 13.7066 36C12.4635 36 11.2205 35.9792 9.97741 35.9792C8.42709 35.9792 6.87677 36.0039 5.32518 35.9974C5.16266 35.9974 4.88332 35.8881 4.86427 35.7893C4.83126 35.615 4.93792 35.3991 5.02807 35.2209C5.0962 35.1113 5.19609 35.0262 5.31375 34.9776C6.36889 34.5133 6.59616 33.5377 6.72948 32.5297C6.80567 31.9587 7.00374 31.5697 7.59162 31.428C8.05633 31.3161 8.08046 31.1613 7.74145 30.8374C7.15611 30.2768 7.13071 29.0763 7.68685 28.4012C7.777 28.2919 7.85826 28.1736 7.94079 28.0604L7.86588 27.942Z" fill="white"/>
</svg>
