<svg width="45" height="60" viewBox="0 0 45 60" fill="none" xmlns="http://www.w3.org/2000/svg">
<path d="M1.76074 20.084L17.3625 1.74854H43.2386V58.2518H1.76074V20.084Z" stroke="black" stroke-width="2"/>
<path d="M21.6545 43.818C22.6159 43.818 23.4372 44.1773 24.1185 44.896C24.7999 45.6053 25.1405 46.4733 25.1405 47.5C25.1405 48.536 24.7999 49.4087 24.1185 50.118C23.4372 50.8273 22.6159 51.182 21.6545 51.182C20.5905 51.182 19.7739 50.79 19.2045 50.006V53.8H17.6925V44H19.2045V45.008C19.7739 44.2147 20.5905 43.818 21.6545 43.818ZM19.8345 49.11C20.2545 49.53 20.7819 49.74 21.4165 49.74C22.0512 49.74 22.5785 49.53 22.9985 49.11C23.4185 48.6807 23.6285 48.144 23.6285 47.5C23.6285 46.856 23.4185 46.324 22.9985 45.904C22.5785 45.4747 22.0512 45.26 21.4165 45.26C20.7819 45.26 20.2545 45.4747 19.8345 45.904C19.4145 46.324 19.2045 46.856 19.2045 47.5C19.2045 48.144 19.4145 48.6807 19.8345 49.11ZM32.0549 41.2H33.5669V51H32.0549V49.992C31.4856 50.7853 30.6689 51.182 29.6049 51.182C28.6436 51.182 27.8222 50.8273 27.1409 50.118C26.4596 49.3993 26.1189 48.5267 26.1189 47.5C26.1189 46.464 26.4596 45.5913 27.1409 44.882C27.8222 44.1727 28.6436 43.818 29.6049 43.818C30.6689 43.818 31.4856 44.21 32.0549 44.994V41.2ZM28.2609 49.11C28.6809 49.53 29.2082 49.74 29.8429 49.74C30.4776 49.74 31.0049 49.53 31.4249 49.11C31.8449 48.6807 32.0549 48.144 32.0549 47.5C32.0549 46.856 31.8449 46.324 31.4249 45.904C31.0049 45.4747 30.4776 45.26 29.8429 45.26C29.2082 45.26 28.6809 45.4747 28.2609 45.904C27.8409 46.324 27.6309 46.856 27.6309 47.5C27.6309 48.144 27.8409 48.6807 28.2609 49.11ZM38.9973 42.474C37.8959 42.3713 37.3453 42.8333 37.3453 43.86V44H38.9973V45.456H37.3453V51H35.8333V45.456H34.7693V44H35.8333V43.86C35.8333 42.8987 36.0993 42.1707 36.6313 41.676C37.1726 41.172 37.9613 40.9527 38.9973 41.018V42.474Z" fill="black"/>
</svg>
