<svg width="56" height="56" viewBox="0 0 56 56" fill="none" xmlns="http://www.w3.org/2000/svg">
<circle cx="28" cy="28" r="28" fill="black"/>
<path d="M26.1519 36.7247H24.5298C24.3269 36.7247 24.1206 36.7454 24.1049 36.4416C24.1049 36.399 24.0354 36.3529 23.9928 36.3265C23.8207 36.1978 23.6976 36.0117 23.6444 35.8001C23.5913 35.5884 23.6114 35.3644 23.7013 35.1663C23.739 35.0866 23.8035 35.0236 23.8829 34.9891C24.0959 34.9292 24.18 34.7796 24.1127 34.5954C24.0548 34.4589 23.9487 34.3499 23.8157 34.2904C22.7552 33.8646 21.735 33.3697 20.8606 32.6032C20.1541 32.0044 19.5888 31.2494 19.207 30.3945H24.4547C23.0421 29.4139 21.9345 28.3124 21.6711 26.6056C21.4133 24.9436 21.7944 23.4358 22.7608 22.0915L22.8628 22.1065C22.8437 22.2538 22.8146 22.4011 22.8056 22.5496C22.7103 24.1356 23.0634 25.5524 24.2316 26.693C24.8728 27.3191 25.486 27.9786 26.0712 28.6611C26.3246 28.9558 26.4748 29.3437 26.7091 29.7557C26.7685 29.125 26.6788 28.5783 26.4042 28.1041C25.9827 27.379 25.5533 26.6447 25.0298 25.9967C23.8437 24.5246 23.2921 22.8442 23.3134 20.9567C23.3303 19.4835 24.0264 18.3095 24.9692 17.2311C25.1811 17.5602 25.1161 17.856 24.9614 18.115C24.5455 18.8056 24.5847 19.5295 24.7899 20.2719C25.078 21.3146 25.5746 22.2573 26.0992 23.1884C26.9356 24.6547 27.523 26.2142 27.5813 27.9349C27.6015 28.5242 27.5275 29.1169 27.495 29.735C28.0223 29.0818 28.318 28.2641 28.3335 27.4158C28.3638 25.9829 27.9972 24.6466 27.3952 23.3679C26.9322 22.3781 26.3974 21.4113 26.0129 20.3962C25.1733 18.1748 25.2596 15.988 26.5107 13.9278C27.1048 12.9484 27.9411 12.267 29.0745 12.0345C29.19 12.0163 29.3064 12.0048 29.4232 12C29.0297 12.5456 28.551 13.0359 28.2808 13.6194C27.523 15.2722 27.3929 16.9894 28.088 18.7169C28.6844 20.1982 29.3155 21.6645 29.8817 23.1585C30.3503 24.398 30.292 25.6905 30.0341 26.9716C29.8705 27.7772 29.3503 28.4183 28.8772 29.0663C28.7147 29.2884 28.5476 29.5071 28.3828 29.7281L28.4456 29.8305C28.8223 29.5854 29.2505 29.3955 29.5667 29.087C30.7707 27.9119 31.4534 26.5192 31.339 24.7387C31.2393 23.1746 30.6283 21.8464 29.8514 20.555C29.2359 19.5376 28.5521 18.5547 28.2304 17.3772C27.9703 16.4208 28.1777 15.5357 28.6844 14.699C28.7203 15.0443 28.7539 15.3792 28.7909 15.7187C28.8545 16.479 29.1296 17.2045 29.5835 17.8088C30.218 18.6318 30.8962 19.4202 31.5274 20.2466C32.746 21.8372 33.3558 23.6488 33.2291 25.6767C33.1338 27.211 32.5699 28.5449 31.4141 29.5739L30.5061 30.3795H35.9824C35.7145 31.007 35.3381 31.5794 34.8715 32.0691C33.8917 33.1383 32.6619 33.7875 31.3424 34.2847C31.1485 34.3583 31.0061 34.447 31.0588 34.6852C31.0803 34.7806 31.1314 34.8663 31.2045 34.9292C31.6866 35.286 31.6877 35.9513 31.2045 36.3207C31.1566 36.3529 31.12 36.4002 31.1003 36.4554C31.0487 36.6982 30.8828 36.7259 30.681 36.7224C30.2124 36.7163 29.7434 36.7163 29.2741 36.7224C29.1387 36.7433 29.0055 36.7768 28.8761 36.8225C29.5622 37.3773 29.6709 38.0299 29.4501 38.7504C29.3724 38.9606 29.2529 39.1519 29.0992 39.312C28.8895 39.5491 28.8918 39.6424 29.181 39.7724C29.2503 39.7978 29.321 39.8186 29.3929 39.8346C29.549 39.8743 29.6899 39.9615 29.7971 40.0847C29.9043 40.2079 29.9728 40.3614 29.9938 40.5251C30.0756 40.9441 30.1832 41.3584 30.2718 41.7774C30.3167 41.9879 30.4059 42.1857 30.5331 42.3571C30.6603 42.5285 30.8225 42.6693 31.0083 42.7695C31.225 42.889 31.4208 43.0446 31.5879 43.2299C31.6326 43.2997 31.6626 43.3784 31.6761 43.4608C31.6897 43.5432 31.6863 43.6276 31.6664 43.7087C31.6484 43.7858 31.4343 43.8548 31.3088 43.8548C30.2113 43.8548 29.1138 43.8364 28.0162 43.8364C26.6474 43.8364 25.2786 43.8583 23.9087 43.8525C23.7652 43.8525 23.5186 43.7559 23.5018 43.6684C23.4726 43.5142 23.5668 43.3231 23.6464 43.1654C23.7065 43.0684 23.7947 42.9932 23.8986 42.9502C24.8302 42.5393 25.0309 41.6761 25.1486 40.7841C25.2159 40.2788 25.3907 39.9347 25.9098 39.8092C26.3201 39.7103 26.3414 39.5733 26.0421 39.2867C25.5253 38.7907 25.5028 37.7283 25.9939 37.131C26.0735 37.0343 26.1452 36.9296 26.2181 36.8294L26.1519 36.7247Z" fill="white"/>
</svg>
