<svg width="76" height="76" viewBox="0 0 76 76" fill="none" xmlns="http://www.w3.org/2000/svg">
<path d="M76 38C76 58.9868 58.9868 76 38 76C17.0132 76 0 58.9868 0 38C0 17.0132 17.0132 0 38 0C58.9868 0 76 17.0132 76 38Z" fill="white"/>
<path d="M38.0013 39.026C41.1537 39.026 44.2321 37.1133 46.6693 33.6401C48.8202 30.575 50.1042 26.7854 50.1042 23.5029C50.1043 16.8294 44.6748 11.4 38.0013 11.4C31.3278 11.4 25.8984 16.8294 25.8984 23.5029C25.8984 26.7854 27.1824 30.575 29.3333 33.6401C31.7705 37.1133 34.8489 39.026 38.0013 39.026Z" fill="#B3B3B3"/>
<path d="M55.7354 44.4392C53.6029 41.1297 50.6009 38.4879 47.0535 36.7992C46.6767 36.6199 46.228 36.6969 45.9325 36.9914C43.5549 39.3625 40.8118 40.6155 37.9997 40.6155C35.1873 40.6155 32.4446 39.3625 30.0684 36.9916C29.7729 36.6967 29.324 36.6196 28.9473 36.7991C25.3999 38.4878 22.3975 41.1297 20.2647 44.4391C18.074 47.8385 16.916 51.7824 16.916 55.8444V55.8615C16.916 56.1399 17.0336 56.4054 17.2398 56.5925C22.9336 61.7562 30.3063 64.6 37.9996 64.6C45.6929 64.6 53.0654 61.7562 58.7594 56.5925C58.9656 56.4054 59.0832 56.14 59.0832 55.8615V55.8444C59.0835 51.7824 57.9258 47.8385 55.7354 44.4392Z" fill="#B3B3B3"/>
</svg>
