<svg width="18" height="18" viewBox="0 0 18 18" fill="none" xmlns="http://www.w3.org/2000/svg">
<path d="M15.1703 10.9479V2.38298C15.1703 1.7603 14.9229 1.16312 14.4826 0.722819C14.0423 0.282516 13.4451 0.0351562 12.8225 0.0351562H3.80681C3.18413 0.0351562 2.58695 0.282516 2.14665 0.722819C1.70634 1.16312 1.45898 1.7603 1.45898 2.38298V13.3896C1.45898 14.0123 1.70634 14.6095 2.14665 15.0498C2.58695 15.4901 3.18413 15.7374 3.80681 15.7374H11.1132C11.3417 16.3041 11.7127 16.8021 12.1902 17.1832C12.6677 17.5644 13.2355 17.8157 13.8387 17.9129C14.4419 18.0101 15.06 17.9498 15.633 17.738C16.2061 17.5261 16.7147 17.1698 17.1096 16.7036C17.5045 16.2374 17.7723 15.6771 17.887 15.077C18.0017 14.4769 17.9595 13.8574 17.7644 13.2784C17.5693 12.6994 17.228 12.1806 16.7735 11.7723C16.319 11.364 15.7668 11.08 15.1703 10.9479ZM4.98072 3.41603H11.6486C11.7725 3.41796 11.8908 3.46806 11.9784 3.5557C12.0661 3.64335 12.1162 3.76166 12.1181 3.88559C12.1181 4.01013 12.0686 4.12956 11.9806 4.21762C11.8925 4.30569 11.7731 4.35516 11.6486 4.35516H4.98072C4.85619 4.35516 4.73675 4.30569 4.64869 4.21762C4.56063 4.12956 4.51116 4.01013 4.51116 3.88559C4.5131 3.76166 4.56319 3.64335 4.65083 3.5557C4.73848 3.46806 4.85679 3.41796 4.98072 3.41603ZM4.98072 6.08316H11.6486C11.7731 6.08316 11.8925 6.13263 11.9806 6.22069C12.0686 6.30875 12.1181 6.42819 12.1181 6.55272C12.1181 6.67726 12.0686 6.79669 11.9806 6.88475C11.8925 6.97282 11.7731 7.02229 11.6486 7.02229H4.98072C4.85619 7.02229 4.73675 6.97282 4.64869 6.88475C4.56063 6.79669 4.51116 6.67726 4.51116 6.55272C4.51116 6.42819 4.56063 6.30875 4.64869 6.22069C4.73675 6.13263 4.85619 6.08316 4.98072 6.08316ZM4.98072 8.75029H11.6486C11.7731 8.75029 11.8925 8.79976 11.9806 8.88782C12.0686 8.97588 12.1181 9.09532 12.1181 9.21985C12.1162 9.34378 12.0661 9.4621 11.9784 9.54974C11.8908 9.63739 11.7725 9.68748 11.6486 9.68942H4.98072C4.85679 9.68748 4.73848 9.63739 4.65083 9.54974C4.56319 9.4621 4.5131 9.34378 4.51116 9.21985C4.51116 9.09532 4.56063 8.97588 4.64869 8.88782C4.73675 8.79976 4.85619 8.75029 4.98072 8.75029ZM10.1178 12.3565H4.98072C4.85619 12.3565 4.73675 12.3071 4.64869 12.219C4.56063 12.131 4.51116 12.0115 4.51116 11.887C4.51116 11.7624 4.56063 11.643 4.64869 11.555C4.73675 11.4669 4.85619 11.4174 4.98072 11.4174H10.1178C10.2423 11.4174 10.3617 11.4669 10.4498 11.555C10.5379 11.643 10.5873 11.7624 10.5873 11.887C10.5873 12.0115 10.5379 12.131 10.4498 12.219C10.3617 12.3071 10.2423 12.3565 10.1178 12.3565ZM14.4002 17.024C13.8829 17.025 13.377 16.8725 12.9463 16.5858C12.5157 16.2992 12.1797 15.8913 11.9809 15.4138C11.7821 14.9362 11.7294 14.4104 11.8294 13.9029C11.9294 13.3954 12.1776 12.9289 12.5428 12.5625C12.9079 12.196 13.3735 11.9461 13.8807 11.8442C14.3878 11.7424 14.9138 11.7933 15.3921 11.9904C15.8703 12.1875 16.2794 12.522 16.5676 12.9516C16.8558 13.3812 17.0101 13.8866 17.011 14.4039C17.0112 15.0972 16.7366 15.7624 16.2472 16.2536C15.7577 16.7447 15.0936 17.0218 14.4002 17.024ZM14.8698 12.9999V14.4085C14.8699 14.503 14.8416 14.5952 14.7885 14.6733C14.7353 14.7514 14.6599 14.8116 14.5721 14.8462L13.7099 15.1833C13.6552 15.2049 13.5969 15.2157 13.5381 15.2153C13.4285 15.2154 13.3223 15.1773 13.2379 15.1074C13.1535 15.0375 13.0962 14.9403 13.0759 14.8326C13.0556 14.725 13.0736 14.6136 13.1268 14.5178C13.18 14.422 13.265 14.3478 13.3672 14.3081L13.9306 14.0883V12.9999C13.9306 12.8753 13.9801 12.7559 14.0682 12.6678C14.1562 12.5798 14.2757 12.5303 14.4002 12.5303C14.5247 12.5303 14.6442 12.5798 14.7322 12.6678C14.8203 12.7559 14.8698 12.8753 14.8698 12.9999Z" fill="#DFE0EB"/>
</svg>
