<svg width="72" height="72" viewBox="0 0 72 72" fill="none" xmlns="http://www.w3.org/2000/svg">
<path fill-rule="evenodd" clip-rule="evenodd" d="M0 36C0 16.1177 16.1177 0 36 0C55.8823 0 72 16.1177 72 36C72 55.8823 55.8823 72 36 72C16.1177 72 0 55.8823 0 36ZM26.4 28.8C26.4 23.4981 30.6981 19.2 36 19.2H38.88C43.9168 19.2 48 23.2832 48 28.32V28.8C48 34.1019 43.7019 38.4 38.4 38.4V43.2H33.6V33.6H38.4C41.051 33.6 43.2 31.451 43.2 28.8V28.32C43.2 25.9341 41.2659 24 38.88 24H36C33.349 24 31.2 26.149 31.2 28.8H26.4ZM33.6 52.8V48H38.4V52.8H33.6Z" fill="#F5BC4A"/>
</svg>
