<svg width="18" height="18" viewBox="0 0 18 18" fill="none" xmlns="http://www.w3.org/2000/svg">
<path fill-rule="evenodd" clip-rule="evenodd" d="M0 9C0 4.02944 4.02944 0 9 0C13.9706 0 18 4.02944 18 9C18 13.9706 13.9706 18 9 18C4.02944 18 0 13.9706 0 9ZM6.6 7.2C6.6 5.87452 7.67452 4.8 9 4.8H9.72C10.9792 4.8 12 5.82079 12 7.08V7.2C12 8.52548 10.9255 9.6 9.6 9.6V10.8H8.4V8.4H9.6C10.2627 8.4 10.8 7.86274 10.8 7.2V7.08C10.8 6.48353 10.3165 6 9.72 6H9C8.33726 6 7.8 6.53726 7.8 7.2H6.6ZM8.4 13.2V12H9.6V13.2H8.4Z" fill="#DFE0EB"/>
</svg>
