<svg width="24" height="25" viewBox="0 0 24 25" fill="none" xmlns="http://www.w3.org/2000/svg">
<path fill-rule="evenodd" clip-rule="evenodd" d="M11.8189 0.0150368C11.8189 0.02451 11.7187 0.0300736 11.5483 0.0300736C11.3779 0.0300736 11.2776 0.0356372 11.2776 0.0451104C11.2776 0.0541325 11.2175 0.0601472 11.1272 0.0601472C11.037 0.0601472 10.9769 0.066162 10.9769 0.0751841C10.9769 0.0839505 10.9268 0.0902209 10.8566 0.0902209C10.7864 0.0902209 10.7363 0.0964912 10.7363 0.105258C10.7363 0.114024 10.6862 0.120294 10.616 0.120294C10.5458 0.120294 10.4957 0.126565 10.4957 0.135331C10.4957 0.143692 10.4556 0.150368 10.4055 0.150368C10.3554 0.150368 10.3153 0.157044 10.3153 0.165405C10.3153 0.173765 10.2752 0.180442 10.225 0.180442C10.1749 0.180442 10.1348 0.187118 10.1348 0.195479C10.1348 0.203839 10.0947 0.210515 10.0446 0.210515C9.99447 0.210515 9.95437 0.217192 9.95437 0.225552C9.95437 0.233822 9.92054 0.240589 9.87919 0.240589C9.83783 0.240589 9.804 0.247356 9.804 0.255626C9.804 0.263896 9.77017 0.270663 9.72882 0.270663C9.68747 0.270663 9.65363 0.277429 9.65363 0.285699C9.65363 0.29397 9.62657 0.300736 9.59349 0.300736C9.5604 0.300736 9.53334 0.307503 9.53334 0.315773C9.53334 0.324043 9.50627 0.33081 9.47319 0.33081C9.44011 0.33081 9.41304 0.337576 9.41304 0.345847C9.41304 0.354117 9.38598 0.360883 9.3529 0.360883C9.31982 0.360883 9.29275 0.36765 9.29275 0.37592C9.29275 0.384191 9.25892 0.390957 9.21757 0.390957C9.17621 0.390957 9.14238 0.397724 9.14238 0.405994C9.14238 0.414264 9.11532 0.421031 9.08223 0.421031C9.04915 0.421031 9.02209 0.427797 9.02209 0.436068C9.02209 0.444338 9.00179 0.451104 8.97698 0.451104C8.95217 0.451104 8.93187 0.457871 8.93187 0.466141C8.93187 0.474411 8.9048 0.481178 8.87172 0.481178C8.83864 0.481178 8.81157 0.487945 8.81157 0.496215C8.81157 0.504485 8.79127 0.511252 8.76646 0.511252C8.74165 0.511252 8.72135 0.518018 8.72135 0.526288C8.72135 0.534559 8.70105 0.541325 8.67624 0.541325C8.65143 0.541325 8.63113 0.548092 8.63113 0.556362C8.63113 0.564632 8.60406 0.571399 8.57098 0.571399C8.5379 0.571399 8.51084 0.578165 8.51084 0.586436C8.51084 0.594706 8.49054 0.601472 8.46572 0.601472C8.44091 0.601472 8.42062 0.608239 8.42062 0.616509C8.42062 0.62478 8.40032 0.631546 8.3755 0.631546C8.35069 0.631546 8.33039 0.638313 8.33039 0.646583C8.33039 0.654853 8.31009 0.66162 8.28528 0.66162C8.26047 0.66162 8.24017 0.668386 8.24017 0.676656C8.24017 0.684927 8.22664 0.691693 8.2101 0.691693C8.19356 0.691693 8.18003 0.69846 8.18003 0.70673C8.18003 0.715 8.15973 0.721767 8.13492 0.721767C8.1101 0.721767 8.0898 0.728534 8.0898 0.736804C8.0898 0.745074 8.0695 0.751841 8.04469 0.751841C8.01988 0.751841 7.99958 0.758607 7.99958 0.766877C7.99958 0.775148 7.97928 0.781914 7.95447 0.781914C7.92966 0.781914 7.90936 0.788681 7.90936 0.796951C7.90936 0.805221 7.89583 0.811988 7.87929 0.811988C7.86275 0.811988 7.84922 0.818754 7.84922 0.827025C7.84922 0.835295 7.82892 0.842061 7.80411 0.842061C7.77929 0.842061 7.759 0.848828 7.759 0.857098C7.759 0.865368 7.74546 0.872135 7.72892 0.872135C7.71238 0.872135 7.69885 0.878902 7.69885 0.887172C7.69885 0.895442 7.67855 0.902209 7.65374 0.902209C7.62893 0.902209 7.60863 0.908975 7.60863 0.917246C7.60863 0.925516 7.59509 0.932282 7.57855 0.932282C7.56201 0.932282 7.54848 0.939049 7.54848 0.947319C7.54848 0.955589 7.52818 0.962356 7.50337 0.962356C7.47856 0.962356 7.45826 0.969122 7.45826 0.977393C7.45826 0.985663 7.44473 0.99243 7.42818 0.99243C7.41164 0.99243 7.39811 0.999196 7.39811 1.00747C7.39811 1.01574 7.38458 1.0225 7.36804 1.0225C7.3515 1.0225 7.33796 1.02927 7.33796 1.03754C7.33796 1.04581 7.32443 1.05258 7.30789 1.05258C7.29135 1.05258 7.27782 1.05934 7.27782 1.06761C7.27782 1.07588 7.25752 1.08265 7.23271 1.08265C7.2079 1.08265 7.1876 1.08942 7.1876 1.09769C7.1876 1.10596 7.17406 1.11272 7.15752 1.11272C7.14098 1.11272 7.12745 1.11949 7.12745 1.12776C7.12745 1.13603 7.11392 1.1428 7.09738 1.1428C7.08083 1.1428 7.0673 1.14956 7.0673 1.15783C7.0673 1.1661 7.05377 1.17287 7.03723 1.17287C7.02069 1.17287 7.00715 1.17964 7.00715 1.18791C7.00715 1.19618 6.99362 1.20294 6.97708 1.20294C6.96054 1.20294 6.94701 1.20971 6.94701 1.21798C6.94701 1.22625 6.93347 1.23302 6.91693 1.23302C6.90039 1.23302 6.88686 1.23979 6.88686 1.24806C6.88686 1.25633 6.87333 1.26309 6.85679 1.26309C6.84025 1.26309 6.82671 1.26986 6.82671 1.27813C6.82671 1.2864 6.81318 1.29317 6.79664 1.29317C6.7801 1.29317 6.76657 1.29993 6.76657 1.3082C6.76657 1.31647 6.75303 1.32324 6.73649 1.32324C6.71995 1.32324 6.70642 1.33001 6.70642 1.33828C6.70642 1.34655 6.69288 1.35331 6.67634 1.35331C6.6598 1.35331 6.64627 1.36008 6.64627 1.36835C6.64627 1.37662 6.63274 1.38339 6.6162 1.38339C6.59966 1.38339 6.58612 1.39015 6.58612 1.39842C6.58612 1.40669 6.57259 1.41346 6.55605 1.41346C6.53951 1.41346 6.52598 1.42023 6.52598 1.4285C6.52598 1.43677 6.51244 1.44353 6.4959 1.44353C6.47936 1.44353 6.46583 1.4503 6.46583 1.45857C6.46583 1.46684 6.4523 1.47361 6.43576 1.47361C6.41922 1.47361 6.40568 1.48037 6.40568 1.48864C6.40568 1.49691 6.39215 1.50368 6.37561 1.50368C6.35907 1.50368 6.34553 1.51045 6.34553 1.51872C6.34553 1.52699 6.33349 1.53375 6.31878 1.53375C6.30406 1.53375 6.28227 1.54729 6.27035 1.56383C6.25843 1.58037 6.23664 1.5939 6.22192 1.5939C6.20721 1.5939 6.19517 1.60067 6.19517 1.60894C6.19517 1.61721 6.18163 1.62398 6.16509 1.62398C6.14855 1.62398 6.13502 1.63074 6.13502 1.63901C6.13502 1.64728 6.12297 1.65405 6.10827 1.65405C6.09355 1.65405 6.07176 1.66758 6.05984 1.68412C6.04791 1.70066 6.02612 1.7142 6.0114 1.7142C5.9967 1.7142 5.98465 1.72096 5.98465 1.72923C5.98465 1.7375 5.97261 1.74427 5.9579 1.74427C5.94318 1.74427 5.92139 1.7578 5.90947 1.77434C5.89754 1.79088 5.87575 1.80442 5.86103 1.80442C5.84633 1.80442 5.83428 1.81118 5.83428 1.81945C5.83428 1.82772 5.82224 1.83449 5.80753 1.83449C5.79281 1.83449 5.77102 1.84802 5.7591 1.86456C5.74717 1.88111 5.72688 1.89464 5.71399 1.89464C5.7011 1.89464 5.6808 1.90817 5.66888 1.92471C5.65695 1.94125 5.63517 1.95479 5.62044 1.95479C5.60574 1.95479 5.59369 1.96155 5.59369 1.96982C5.59369 1.97809 5.58165 1.98486 5.56694 1.98486C5.55222 1.98486 5.53043 1.99839 5.51851 2.01493C5.50659 2.03147 5.4875 2.04501 5.47611 2.04501C5.46472 2.04501 5.43642 2.06531 5.41325 2.09012C5.39008 2.11493 5.36178 2.13523 5.3504 2.13523C5.339 2.13523 5.31992 2.14876 5.30799 2.1653C5.29607 2.18184 5.27577 2.19537 5.26288 2.19537C5.25 2.19537 5.2297 2.20891 5.21777 2.22545C5.20585 2.24199 5.18677 2.25552 5.17537 2.25552C5.16399 2.25552 5.13569 2.27582 5.11252 2.30063C5.08934 2.32544 5.06228 2.34574 5.05237 2.34574C5.04246 2.34574 5.01539 2.36604 4.99222 2.39085C4.96905 2.41566 4.94198 2.43596 4.93207 2.43596C4.92216 2.43596 4.8951 2.45626 4.87193 2.48107C4.84876 2.50588 4.82169 2.52618 4.81178 2.52618C4.80187 2.52618 4.7748 2.54648 4.75163 2.57129C4.72846 2.59611 4.70153 2.61641 4.69179 2.61641C4.68206 2.61641 4.64809 2.64347 4.6163 2.67655C4.58451 2.70963 4.55077 2.7367 4.54131 2.7367C4.53187 2.7367 4.49118 2.77053 4.4509 2.81188C4.41061 2.85324 4.37009 2.88707 4.36083 2.88707C4.35155 2.88707 4.30412 2.92767 4.25542 2.97729C4.20671 3.02691 4.15954 3.06751 4.15061 3.06751C4.14168 3.06751 4.03997 3.16224 3.92461 3.27802C3.80925 3.39381 3.70778 3.48854 3.69912 3.48854C3.67861 3.48854 3.51861 3.6485 3.51861 3.66901C3.51861 3.67766 3.41712 3.78591 3.29306 3.90957C3.16901 4.03323 3.06751 4.14171 3.06751 4.15064C3.06751 4.15956 3.02691 4.20671 2.97729 4.25542C2.92767 4.30412 2.88707 4.35155 2.88707 4.36083C2.88707 4.37009 2.85324 4.41061 2.81188 4.4509C2.77053 4.49118 2.7367 4.53187 2.7367 4.54131C2.7367 4.55077 2.70963 4.58451 2.67655 4.6163C2.64347 4.64809 2.61641 4.68206 2.61641 4.69179C2.61641 4.70153 2.59611 4.72846 2.57129 4.75163C2.54648 4.7748 2.52618 4.80187 2.52618 4.81178C2.52618 4.82169 2.50588 4.84875 2.48107 4.87193C2.45626 4.8951 2.43596 4.92216 2.43596 4.93207C2.43596 4.94198 2.41566 4.96905 2.39085 4.99222C2.36604 5.01539 2.34574 5.04246 2.34574 5.05237C2.34574 5.06228 2.32544 5.08934 2.30063 5.11252C2.27582 5.13569 2.25552 5.16399 2.25552 5.17537C2.25552 5.18677 2.24199 5.20585 2.22545 5.21777C2.20891 5.2297 2.19537 5.25 2.19537 5.26288C2.19537 5.27577 2.18184 5.29607 2.1653 5.30799C2.14876 5.31992 2.13523 5.34022 2.13523 5.3531C2.13523 5.36599 2.12169 5.38629 2.10515 5.39822C2.08861 5.41014 2.07508 5.43044 2.07508 5.44333C2.07508 5.45621 2.06155 5.47651 2.04501 5.48844C2.02847 5.50036 2.01493 5.52066 2.01493 5.53355C2.01493 5.54643 2.0014 5.56673 1.98486 5.57866C1.96832 5.59058 1.95479 5.61088 1.95479 5.62377C1.95479 5.63665 1.94125 5.65695 1.92471 5.66888C1.90817 5.6808 1.89464 5.7011 1.89464 5.71399C1.89464 5.72687 1.88111 5.74717 1.86456 5.7591C1.84802 5.77102 1.83449 5.79281 1.83449 5.80753C1.83449 5.82224 1.82772 5.83428 1.81945 5.83428C1.81118 5.83428 1.80442 5.84633 1.80442 5.86103C1.80442 5.87575 1.79088 5.89754 1.77434 5.90947C1.7578 5.92139 1.74427 5.94318 1.74427 5.9579C1.74427 5.97261 1.7375 5.98465 1.72923 5.98465C1.72096 5.98465 1.7142 5.9967 1.7142 6.0114C1.7142 6.02612 1.70066 6.04791 1.68412 6.05983C1.66758 6.07176 1.65405 6.09355 1.65405 6.10827C1.65405 6.12297 1.64728 6.13502 1.63901 6.13502C1.63074 6.13502 1.62398 6.14855 1.62398 6.16509C1.62398 6.18163 1.61721 6.19517 1.60894 6.19517C1.60067 6.19517 1.5939 6.20721 1.5939 6.22192C1.5939 6.23664 1.58037 6.25843 1.56383 6.27035C1.54729 6.28227 1.53375 6.30406 1.53375 6.31878C1.53375 6.33349 1.52699 6.34553 1.51872 6.34553C1.51045 6.34553 1.50368 6.35907 1.50368 6.37561C1.50368 6.39215 1.49691 6.40568 1.48864 6.40568C1.48037 6.40568 1.47361 6.41921 1.47361 6.43576C1.47361 6.4523 1.46684 6.46583 1.45857 6.46583C1.4503 6.46583 1.44353 6.47936 1.44353 6.4959C1.44353 6.51244 1.43677 6.52598 1.4285 6.52598C1.42023 6.52598 1.41346 6.53951 1.41346 6.55605C1.41346 6.57259 1.40669 6.58612 1.39842 6.58612C1.39015 6.58612 1.38339 6.59966 1.38339 6.6162C1.38339 6.63274 1.37662 6.64627 1.36835 6.64627C1.36008 6.64627 1.35331 6.6598 1.35331 6.67634C1.35331 6.69288 1.34655 6.70642 1.33828 6.70642C1.33001 6.70642 1.32324 6.71995 1.32324 6.73649C1.32324 6.75303 1.31647 6.76656 1.3082 6.76656C1.29993 6.76656 1.29317 6.7801 1.29317 6.79664C1.29317 6.81318 1.2864 6.82671 1.27813 6.82671C1.26986 6.82671 1.26309 6.84025 1.26309 6.85679C1.26309 6.87333 1.25633 6.88686 1.24806 6.88686C1.23979 6.88686 1.23302 6.90039 1.23302 6.91693C1.23302 6.93347 1.22625 6.94701 1.21798 6.94701C1.20971 6.94701 1.20294 6.96054 1.20294 6.97708C1.20294 6.99362 1.19618 7.00715 1.18791 7.00715C1.17964 7.00715 1.17287 7.02069 1.17287 7.03723C1.17287 7.05377 1.1661 7.0673 1.15783 7.0673C1.14956 7.0673 1.1428 7.08083 1.1428 7.09737C1.1428 7.11392 1.13603 7.12745 1.12776 7.12745C1.11949 7.12745 1.11272 7.14098 1.11272 7.15752C1.11272 7.17406 1.10596 7.1876 1.09769 7.1876C1.08942 7.1876 1.08265 7.2079 1.08265 7.23271C1.08265 7.25752 1.07588 7.27782 1.06761 7.27782C1.05934 7.27782 1.05258 7.29135 1.05258 7.30789C1.05258 7.32443 1.04581 7.33796 1.03754 7.33796C1.02927 7.33796 1.0225 7.3515 1.0225 7.36804C1.0225 7.38458 1.01574 7.39811 1.00747 7.39811C0.999196 7.39811 0.99243 7.41164 0.99243 7.42818C0.99243 7.44473 0.985663 7.45826 0.977393 7.45826C0.969123 7.45826 0.962356 7.47856 0.962356 7.50337C0.962356 7.52818 0.955589 7.54848 0.947319 7.54848C0.939049 7.54848 0.932282 7.56201 0.932282 7.57855C0.932282 7.59509 0.925516 7.60863 0.917246 7.60863C0.908975 7.60863 0.902209 7.62893 0.902209 7.65374C0.902209 7.67855 0.895442 7.69885 0.887172 7.69885C0.878902 7.69885 0.872135 7.71238 0.872135 7.72892C0.872135 7.74546 0.865369 7.75899 0.857098 7.75899C0.848828 7.75899 0.842061 7.77929 0.842061 7.8041C0.842061 7.82892 0.835295 7.84922 0.827025 7.84922C0.818754 7.84922 0.811988 7.86275 0.811988 7.87929C0.811988 7.89583 0.805221 7.90936 0.796951 7.90936C0.788681 7.90936 0.781914 7.92966 0.781914 7.95447C0.781914 7.97928 0.775148 7.99958 0.766877 7.99958C0.758607 7.99958 0.751841 8.01988 0.751841 8.04469C0.751841 8.0695 0.745074 8.0898 0.736804 8.0898C0.728534 8.0898 0.721767 8.1101 0.721767 8.13491C0.721767 8.15973 0.715 8.18003 0.70673 8.18003C0.69846 8.18003 0.691693 8.19356 0.691693 8.2101C0.691693 8.22664 0.684927 8.24017 0.676657 8.24017C0.668386 8.24017 0.66162 8.26047 0.66162 8.28528C0.66162 8.31009 0.654853 8.33039 0.646583 8.33039C0.638313 8.33039 0.631546 8.35069 0.631546 8.3755C0.631546 8.40031 0.62478 8.42061 0.616509 8.42061C0.608239 8.42061 0.601472 8.44768 0.601472 8.48076C0.601472 8.51384 0.594706 8.54091 0.586436 8.54091C0.578165 8.54091 0.571399 8.56121 0.571399 8.58602C0.571399 8.61083 0.564632 8.63113 0.556362 8.63113C0.548092 8.63113 0.541325 8.65143 0.541325 8.67624C0.541325 8.70105 0.534559 8.72135 0.526288 8.72135C0.518018 8.72135 0.511252 8.74165 0.511252 8.76646C0.511252 8.79127 0.504485 8.81157 0.496215 8.81157C0.487945 8.81157 0.481178 8.83864 0.481178 8.87172C0.481178 8.9048 0.474411 8.93187 0.466141 8.93187C0.457871 8.93187 0.451104 8.95217 0.451104 8.97698C0.451104 9.00179 0.444338 9.02209 0.436068 9.02209C0.427797 9.02209 0.421031 9.04915 0.421031 9.08223C0.421031 9.11531 0.414264 9.14238 0.405994 9.14238C0.397724 9.14238 0.390957 9.16945 0.390957 9.20253C0.390957 9.23561 0.384191 9.26268 0.37592 9.26268C0.36765 9.26268 0.360883 9.29651 0.360883 9.33786C0.360883 9.37921 0.354117 9.41304 0.345847 9.41304C0.337576 9.41304 0.33081 9.44011 0.33081 9.47319C0.33081 9.50627 0.324043 9.53334 0.315773 9.53334C0.307503 9.53334 0.300736 9.5604 0.300736 9.59349C0.300736 9.62657 0.29397 9.65363 0.285699 9.65363C0.277429 9.65363 0.270663 9.68747 0.270663 9.72882C0.270663 9.77017 0.263896 9.804 0.255626 9.804C0.247356 9.804 0.240589 9.83783 0.240589 9.87918C0.240589 9.92054 0.233822 9.95437 0.225552 9.95437C0.217192 9.95437 0.210515 9.99447 0.210515 10.0446C0.210515 10.0947 0.203839 10.1348 0.195479 10.1348C0.187118 10.1348 0.180442 10.1749 0.180442 10.225C0.180442 10.2751 0.173765 10.3153 0.165405 10.3153C0.157044 10.3153 0.150368 10.3554 0.150368 10.4055C0.150368 10.4556 0.143692 10.4957 0.135331 10.4957C0.126565 10.4957 0.120294 10.5458 0.120294 10.616C0.120294 10.6862 0.114024 10.7363 0.105258 10.7363C0.0964912 10.7363 0.0902209 10.7864 0.0902209 10.8566C0.0902209 10.9268 0.0839505 10.9769 0.0751841 10.9769C0.066162 10.9769 0.0601472 11.037 0.0601472 11.1272C0.0601472 11.2175 0.0541325 11.2776 0.0451104 11.2776C0.0356372 11.2776 0.0300736 11.3779 0.0300736 11.5483C0.0300736 11.7187 0.02451 11.8189 0.0150368 11.8189C0.00533807 11.8189 0 11.9843 0 12.2851C0 12.5858 0.00533807 12.7512 0.0150368 12.7512C0.02451 12.7512 0.0300736 12.8515 0.0300736 13.0219C0.0300736 13.1923 0.0356372 13.2925 0.0451104 13.2925C0.0541325 13.2925 0.0601472 13.3527 0.0601472 13.4429C0.0601472 13.5331 0.066162 13.5933 0.0751841 13.5933C0.0839505 13.5933 0.0902209 13.6434 0.0902209 13.7136C0.0902209 13.7837 0.0964912 13.8339 0.105258 13.8339C0.113844 13.8339 0.120294 13.879 0.120294 13.9391C0.120294 13.9993 0.126745 14.0444 0.135331 14.0444C0.143917 14.0444 0.150368 14.0895 0.150368 14.1496C0.150368 14.2098 0.156819 14.2549 0.165405 14.2549C0.173765 14.2549 0.180442 14.295 0.180442 14.3451C0.180442 14.3952 0.187118 14.4353 0.195479 14.4353C0.203839 14.4353 0.210515 14.4754 0.210515 14.5256C0.210515 14.5757 0.217192 14.6158 0.225552 14.6158C0.233822 14.6158 0.240589 14.6496 0.240589 14.691C0.240589 14.7323 0.247356 14.7661 0.255626 14.7661C0.263896 14.7661 0.270663 14.8 0.270663 14.8413C0.270663 14.8827 0.277429 14.9165 0.285699 14.9165C0.29397 14.9165 0.300736 14.9436 0.300736 14.9767C0.300736 15.0097 0.307503 15.0368 0.315773 15.0368C0.324043 15.0368 0.33081 15.0639 0.33081 15.097C0.33081 15.13 0.337576 15.1571 0.345847 15.1571C0.354117 15.1571 0.360883 15.1909 0.360883 15.2323C0.360883 15.2736 0.36765 15.3075 0.37592 15.3075C0.384191 15.3075 0.390957 15.3345 0.390957 15.3676C0.390957 15.4007 0.397724 15.4278 0.405994 15.4278C0.414264 15.4278 0.421031 15.4481 0.421031 15.4729C0.421031 15.4977 0.427797 15.518 0.436068 15.518C0.444338 15.518 0.451104 15.5451 0.451104 15.5781C0.451104 15.6112 0.457871 15.6383 0.466141 15.6383C0.474411 15.6383 0.481178 15.6586 0.481178 15.6834C0.481178 15.7082 0.487945 15.7285 0.496215 15.7285C0.504485 15.7285 0.511252 15.7556 0.511252 15.7887C0.511252 15.8217 0.518018 15.8488 0.526288 15.8488C0.534559 15.8488 0.541325 15.8691 0.541325 15.8939C0.541325 15.9187 0.548092 15.939 0.556362 15.939C0.564632 15.939 0.571399 15.9661 0.571399 15.9992C0.571399 16.0322 0.578165 16.0593 0.586436 16.0593C0.594706 16.0593 0.601472 16.0796 0.601472 16.1044C0.601472 16.1292 0.608239 16.1495 0.616509 16.1495C0.62478 16.1495 0.631546 16.1698 0.631546 16.1946C0.631546 16.2195 0.638313 16.2398 0.646583 16.2398C0.654853 16.2398 0.66162 16.2533 0.66162 16.2698C0.66162 16.2864 0.668386 16.2999 0.676657 16.2999C0.684927 16.2999 0.691693 16.3202 0.691693 16.345C0.691693 16.3698 0.69846 16.3901 0.70673 16.3901C0.715 16.3901 0.721767 16.4104 0.721767 16.4352C0.721767 16.46 0.728534 16.4803 0.736804 16.4803C0.745074 16.4803 0.751841 16.5006 0.751841 16.5255C0.751841 16.5503 0.758607 16.5706 0.766877 16.5706C0.775148 16.5706 0.781914 16.5909 0.781914 16.6157C0.781914 16.6405 0.788681 16.6608 0.796951 16.6608C0.805221 16.6608 0.811988 16.6743 0.811988 16.6909C0.811988 16.7074 0.818754 16.7209 0.827025 16.7209C0.835295 16.7209 0.842061 16.7412 0.842061 16.766C0.842061 16.7909 0.848828 16.8112 0.857098 16.8112C0.865369 16.8112 0.872135 16.8247 0.872135 16.8412C0.872135 16.8578 0.878902 16.8713 0.887172 16.8713C0.895442 16.8713 0.902209 16.8916 0.902209 16.9164C0.902209 16.9412 0.908975 16.9615 0.917246 16.9615C0.925516 16.9615 0.932282 16.9751 0.932282 16.9916C0.932282 17.0081 0.939049 17.0217 0.947319 17.0217C0.955589 17.0217 0.962356 17.042 0.962356 17.0668C0.962356 17.0916 0.969123 17.1119 0.977393 17.1119C0.985663 17.1119 0.99243 17.1254 0.99243 17.142C0.99243 17.1585 0.999196 17.172 1.00747 17.172C1.01574 17.172 1.0225 17.1856 1.0225 17.2021C1.0225 17.2187 1.02927 17.2322 1.03754 17.2322C1.04581 17.2322 1.05258 17.2457 1.05258 17.2623C1.05258 17.2788 1.05934 17.2923 1.06761 17.2923C1.07588 17.2923 1.08265 17.3059 1.08265 17.3224C1.08265 17.3389 1.08942 17.3525 1.09769 17.3525C1.10596 17.3525 1.11272 17.3728 1.11272 17.3976C1.11272 17.4224 1.11949 17.4427 1.12776 17.4427C1.13603 17.4427 1.1428 17.4562 1.1428 17.4728C1.1428 17.4893 1.14956 17.5028 1.15783 17.5028C1.1661 17.5028 1.17287 17.5164 1.17287 17.5329C1.17287 17.5495 1.17964 17.563 1.18791 17.563C1.19618 17.563 1.20294 17.5765 1.20294 17.5931C1.20294 17.6096 1.20971 17.6231 1.21798 17.6231C1.22625 17.6231 1.23302 17.6367 1.23302 17.6532C1.23302 17.6698 1.23979 17.6833 1.24806 17.6833C1.25633 17.6833 1.26309 17.6968 1.26309 17.7134C1.26309 17.7299 1.26986 17.7434 1.27813 17.7434C1.2864 17.7434 1.29317 17.757 1.29317 17.7735C1.29317 17.7901 1.29993 17.8036 1.3082 17.8036C1.31647 17.8036 1.32324 17.8171 1.32324 17.8337C1.32324 17.8502 1.33001 17.8637 1.33828 17.8637C1.34655 17.8637 1.35331 17.8773 1.35331 17.8938C1.35331 17.9103 1.36008 17.9239 1.36835 17.9239C1.37662 17.9239 1.38339 17.9374 1.38339 17.954C1.38339 17.9705 1.39015 17.984 1.39842 17.984C1.40669 17.984 1.41346 17.9976 1.41346 18.0141C1.41346 18.0306 1.42023 18.0442 1.4285 18.0442C1.43677 18.0442 1.44353 18.0577 1.44353 18.0742C1.44353 18.0908 1.4503 18.1043 1.45857 18.1043C1.46684 18.1043 1.47361 18.1179 1.47361 18.1344C1.47361 18.1509 1.48037 18.1645 1.48864 18.1645C1.49691 18.1645 1.50368 18.1765 1.50368 18.1912C1.50368 18.2059 1.51721 18.2277 1.53375 18.2397C1.5503 18.2516 1.56383 18.2734 1.56383 18.2881C1.56383 18.3028 1.5706 18.3148 1.57887 18.3148C1.58714 18.3148 1.5939 18.3284 1.5939 18.3449C1.5939 18.3615 1.60067 18.375 1.60894 18.375C1.61721 18.375 1.62398 18.387 1.62398 18.4017C1.62398 18.4165 1.63751 18.4382 1.65405 18.4502C1.67059 18.4621 1.68412 18.4839 1.68412 18.4986C1.68412 18.5133 1.69089 18.5254 1.69916 18.5254C1.70743 18.5254 1.7142 18.5389 1.7142 18.5554C1.7142 18.572 1.72096 18.5855 1.72923 18.5855C1.7375 18.5855 1.74427 18.5975 1.74427 18.6122C1.74427 18.627 1.7578 18.6488 1.77434 18.6607C1.79088 18.6726 1.80442 18.6929 1.80442 18.7058C1.80442 18.7187 1.81795 18.739 1.83449 18.7509C1.85103 18.7628 1.86456 18.7846 1.86456 18.7993C1.86456 18.814 1.87133 18.8261 1.8796 18.8261C1.88787 18.8261 1.89464 18.8381 1.89464 18.8528C1.89464 18.8676 1.90817 18.8893 1.92471 18.9013C1.94125 18.9132 1.95479 18.9335 1.95479 18.9464C1.95479 18.9593 1.96832 18.9796 1.98486 18.9915C2.0014 19.0034 2.01493 19.0237 2.01493 19.0366C2.01493 19.0495 2.02847 19.0698 2.04501 19.0817C2.06155 19.0936 2.07508 19.1139 2.07508 19.1268C2.07508 19.1397 2.08861 19.16 2.10515 19.1719C2.12169 19.1839 2.13523 19.2042 2.13523 19.217C2.13523 19.2299 2.14876 19.2502 2.1653 19.2622C2.18184 19.2741 2.19537 19.2932 2.19537 19.3046C2.19537 19.3159 2.21567 19.3442 2.24048 19.3674C2.2653 19.3906 2.2856 19.4189 2.2856 19.4303C2.2856 19.4417 2.29913 19.4607 2.31567 19.4727C2.33221 19.4846 2.34574 19.5037 2.34574 19.5151C2.34574 19.5265 2.36604 19.5548 2.39085 19.5779C2.41566 19.6011 2.43596 19.6282 2.43596 19.6381C2.43596 19.648 2.45626 19.6751 2.48107 19.6982C2.50588 19.7214 2.52618 19.7483 2.52618 19.7581C2.52618 19.7678 2.55325 19.8018 2.58633 19.8336C2.61941 19.8653 2.64648 19.8992 2.64648 19.9087C2.64648 19.9183 2.67355 19.9521 2.70663 19.9839C2.73971 20.0157 2.76677 20.0495 2.76677 20.0591C2.76677 20.0687 2.79384 20.1025 2.82692 20.1343C2.86 20.1661 2.88707 20.1997 2.88707 20.209C2.88707 20.2183 2.93443 20.2727 2.99233 20.3298C3.05022 20.3869 3.09758 20.4408 3.09758 20.4497C3.09758 20.4586 3.19232 20.5603 3.3081 20.6756C3.42388 20.791 3.51861 20.8957 3.51861 20.9083C3.51861 20.9212 3.53176 20.9312 3.54869 20.9312C3.56578 20.9312 3.57876 20.9413 3.57876 20.9545C3.57876 20.9809 3.64425 21.0515 3.66868 21.0515C3.67754 21.0515 3.77917 21.1463 3.89453 21.2621C4.0099 21.3778 4.11161 21.4726 4.12054 21.4726C4.12947 21.4726 4.17664 21.5132 4.22534 21.5628C4.27405 21.6124 4.32147 21.653 4.33075 21.653C4.34001 21.653 4.38054 21.6868 4.42082 21.7282C4.46111 21.7695 4.5018 21.8034 4.51124 21.8034C4.5207 21.8034 4.55444 21.8304 4.58623 21.8635C4.61802 21.8966 4.65185 21.9237 4.66141 21.9237C4.67098 21.9237 4.70481 21.9507 4.7366 21.9838C4.76838 22.0169 4.80235 22.044 4.81208 22.044C4.82182 22.044 4.84876 22.0643 4.87193 22.0891C4.8951 22.1139 4.9234 22.1342 4.93478 22.1342C4.94618 22.1342 4.96526 22.1477 4.97718 22.1643C4.98911 22.1808 5.00819 22.1943 5.01959 22.1943C5.03097 22.1943 5.05927 22.2146 5.08244 22.2394C5.10561 22.2643 5.13268 22.2846 5.14259 22.2846C5.1525 22.2846 5.17957 22.3049 5.20274 22.3297C5.22591 22.3545 5.25421 22.3748 5.26559 22.3748C5.27699 22.3748 5.29607 22.3883 5.30799 22.4048C5.31992 22.4214 5.34022 22.4349 5.35311 22.4349C5.36599 22.4349 5.38629 22.4485 5.39822 22.465C5.41014 22.4815 5.43044 22.4951 5.44333 22.4951C5.45621 22.4951 5.47651 22.5086 5.48844 22.5251C5.50036 22.5417 5.52066 22.5552 5.53355 22.5552C5.54643 22.5552 5.56673 22.5688 5.57866 22.5853C5.59058 22.6018 5.61088 22.6154 5.62377 22.6154C5.63665 22.6154 5.65695 22.6289 5.66888 22.6454C5.6808 22.662 5.70259 22.6755 5.71731 22.6755C5.73202 22.6755 5.74406 22.6823 5.74406 22.6905C5.74406 22.6988 5.75611 22.7056 5.77081 22.7056C5.78553 22.7056 5.80732 22.7191 5.81925 22.7357C5.83117 22.7522 5.85296 22.7657 5.86768 22.7657C5.88239 22.7657 5.89443 22.7725 5.89443 22.7808C5.89443 22.789 5.90647 22.7958 5.92118 22.7958C5.9359 22.7958 5.95769 22.8093 5.96961 22.8259C5.98154 22.8424 6.00333 22.856 6.01805 22.856C6.03275 22.856 6.0448 22.8627 6.0448 22.871C6.0448 22.8793 6.05684 22.886 6.07155 22.886C6.08627 22.886 6.10806 22.8996 6.11998 22.9161C6.13191 22.9326 6.1537 22.9462 6.16842 22.9462C6.18312 22.9462 6.19517 22.9529 6.19517 22.9612C6.19517 22.9695 6.2087 22.9762 6.22524 22.9762C6.24178 22.9762 6.25531 22.983 6.25531 22.9913C6.25531 22.9996 6.26736 23.0063 6.28206 23.0063C6.29679 23.0063 6.31857 23.0199 6.3305 23.0364C6.34242 23.0529 6.36421 23.0665 6.37893 23.0665C6.39364 23.0665 6.40568 23.0732 6.40568 23.0815C6.40568 23.0898 6.41922 23.0965 6.43576 23.0965C6.4523 23.0965 6.46583 23.1033 6.46583 23.1116C6.46583 23.1198 6.47936 23.1266 6.4959 23.1266C6.51244 23.1266 6.52598 23.1334 6.52598 23.1417C6.52598 23.1499 6.53951 23.1567 6.55605 23.1567C6.57259 23.1567 6.58612 23.1635 6.58612 23.1717C6.58612 23.18 6.59966 23.1868 6.6162 23.1868C6.63274 23.1868 6.64627 23.1935 6.64627 23.2018C6.64627 23.2101 6.6598 23.2168 6.67634 23.2168C6.69288 23.2168 6.70642 23.2236 6.70642 23.2319C6.70642 23.2401 6.71995 23.2469 6.73649 23.2469C6.75303 23.2469 6.76657 23.2537 6.76657 23.2619C6.76657 23.2702 6.7801 23.277 6.79664 23.277C6.81318 23.277 6.82671 23.2838 6.82671 23.292C6.82671 23.3003 6.84025 23.3071 6.85679 23.3071C6.87333 23.3071 6.88686 23.3138 6.88686 23.3221C6.88686 23.3304 6.90039 23.3371 6.91693 23.3371C6.93347 23.3371 6.94701 23.3439 6.94701 23.3522C6.94701 23.3604 6.96054 23.3672 6.97708 23.3672C6.99362 23.3672 7.00715 23.374 7.00715 23.3822C7.00715 23.3905 7.02069 23.3973 7.03723 23.3973C7.05377 23.3973 7.0673 23.404 7.0673 23.4123C7.0673 23.4206 7.0876 23.4274 7.11241 23.4274C7.13722 23.4274 7.15752 23.4341 7.15752 23.4424C7.15752 23.4507 7.17106 23.4574 7.1876 23.4574C7.20414 23.4574 7.21767 23.4642 7.21767 23.4725C7.21767 23.4807 7.2312 23.4875 7.24774 23.4875C7.26428 23.4875 7.27782 23.4943 7.27782 23.5025C7.27782 23.5108 7.29135 23.5176 7.30789 23.5176C7.32443 23.5176 7.33796 23.5243 7.33796 23.5326C7.33796 23.5409 7.3515 23.5476 7.36804 23.5476C7.38458 23.5476 7.39811 23.5544 7.39811 23.5627C7.39811 23.571 7.41841 23.5777 7.44322 23.5777C7.46803 23.5777 7.48833 23.5845 7.48833 23.5928C7.48833 23.601 7.50187 23.6078 7.51841 23.6078C7.53495 23.6078 7.54848 23.6146 7.54848 23.6228C7.54848 23.6311 7.56878 23.6379 7.59359 23.6379C7.6184 23.6379 7.6387 23.6446 7.6387 23.6529C7.6387 23.6612 7.65223 23.6679 7.66877 23.6679C7.68531 23.6679 7.69885 23.6747 7.69885 23.683C7.69885 23.6912 7.71238 23.698 7.72892 23.698C7.74546 23.698 7.759 23.7048 7.759 23.7131C7.759 23.7213 7.77929 23.7281 7.80411 23.7281C7.82892 23.7281 7.84922 23.7349 7.84922 23.7431C7.84922 23.7514 7.86275 23.7582 7.87929 23.7582C7.89583 23.7582 7.90936 23.7649 7.90936 23.7732C7.90936 23.7815 7.92966 23.7882 7.95447 23.7882C7.97928 23.7882 7.99958 23.795 7.99958 23.8033C7.99958 23.8115 8.01988 23.8183 8.04469 23.8183C8.0695 23.8183 8.0898 23.8251 8.0898 23.8333C8.0898 23.8416 8.1101 23.8484 8.13492 23.8484C8.15973 23.8484 8.18003 23.8551 8.18003 23.8634C8.18003 23.8717 8.20033 23.8785 8.22514 23.8785C8.24995 23.8785 8.27025 23.8852 8.27025 23.8935C8.27025 23.9018 8.29055 23.9085 8.31536 23.9085C8.34017 23.9085 8.36047 23.9153 8.36047 23.9236C8.36047 23.9318 8.38077 23.9386 8.40558 23.9386C8.43039 23.9386 8.45069 23.9454 8.45069 23.9536C8.45069 23.9619 8.47099 23.9687 8.4958 23.9687C8.52061 23.9687 8.54091 23.9754 8.54091 23.9837C8.54091 23.992 8.56121 23.9988 8.58602 23.9988C8.61083 23.9988 8.63113 24.0055 8.63113 24.0138C8.63113 24.0221 8.6582 24.0288 8.69128 24.0288C8.72436 24.0288 8.75142 24.0356 8.75142 24.0439C8.75142 24.0521 8.77172 24.0589 8.79654 24.0589C8.82135 24.0589 8.84165 24.0657 8.84165 24.0739C8.84165 24.0822 8.86195 24.089 8.88676 24.089C8.91157 24.089 8.93187 24.0957 8.93187 24.104C8.93187 24.1123 8.95893 24.119 8.99201 24.119C9.02509 24.119 9.05216 24.1258 9.05216 24.1341C9.05216 24.1424 9.07923 24.1491 9.11231 24.1491C9.14539 24.1491 9.17246 24.1559 9.17246 24.1642C9.17246 24.1724 9.19952 24.1792 9.2326 24.1792C9.26568 24.1792 9.29275 24.186 9.29275 24.1942C9.29275 24.2025 9.31982 24.2093 9.3529 24.2093C9.38598 24.2093 9.41304 24.216 9.41304 24.2243C9.41304 24.2326 9.44011 24.2393 9.47319 24.2393C9.50627 24.2393 9.53334 24.2461 9.53334 24.2544C9.53334 24.2626 9.56717 24.2694 9.60852 24.2694C9.64987 24.2694 9.68371 24.2762 9.68371 24.2845C9.68371 24.2927 9.71077 24.2995 9.74385 24.2995C9.77694 24.2995 9.804 24.3063 9.804 24.3145C9.804 24.3229 9.8441 24.3296 9.89422 24.3296C9.94434 24.3296 9.98444 24.3362 9.98444 24.3446C9.98444 24.353 10.0245 24.3596 10.0747 24.3596C10.1248 24.3596 10.1649 24.3663 10.1649 24.3747C10.1649 24.383 10.205 24.3897 10.2551 24.3897C10.3052 24.3897 10.3453 24.3964 10.3453 24.4047C10.3453 24.4131 10.3854 24.4198 10.4355 24.4198C10.4857 24.4198 10.5258 24.4265 10.5258 24.4348C10.5258 24.4436 10.5759 24.4499 10.6461 24.4499C10.7162 24.4499 10.7664 24.4561 10.7664 24.4649C10.7664 24.4738 10.8215 24.4799 10.9017 24.4799C10.9819 24.4799 11.037 24.486 11.037 24.495C11.037 24.504 11.0972 24.51 11.1874 24.51C11.2776 24.51 11.3378 24.516 11.3378 24.525C11.3378 24.5346 11.4526 24.5401 11.6523 24.5401C11.8898 24.5401 11.9687 24.5447 11.9744 24.5589C11.9802 24.5731 11.9863 24.5721 11.9994 24.5551C12.0125 24.5381 12.0186 24.5372 12.0243 24.5514C12.034 24.5751 12.5407 24.5788 12.5407 24.5551C12.5407 24.5455 12.666 24.5401 12.8865 24.5401C13.1071 24.5401 13.2324 24.5346 13.2324 24.525C13.2324 24.516 13.2925 24.51 13.3828 24.51C13.473 24.51 13.5331 24.504 13.5331 24.495C13.5331 24.486 13.5883 24.4799 13.6685 24.4799C13.7487 24.4799 13.8038 24.4738 13.8038 24.4649C13.8038 24.4561 13.8539 24.4499 13.9241 24.4499C13.9943 24.4499 14.0444 24.4436 14.0444 24.4348C14.0444 24.4265 14.0845 24.4198 14.1346 24.4198C14.1847 24.4198 14.2248 24.4131 14.2248 24.4047C14.2248 24.3964 14.2649 24.3897 14.315 24.3897C14.3652 24.3897 14.4053 24.383 14.4053 24.3747C14.4053 24.3663 14.4454 24.3596 14.4955 24.3596C14.5456 24.3596 14.5857 24.353 14.5857 24.3446C14.5857 24.3363 14.6195 24.3296 14.6609 24.3296C14.7022 24.3296 14.7361 24.3228 14.7361 24.3145C14.7361 24.3063 14.7699 24.2995 14.8113 24.2995C14.8526 24.2995 14.8864 24.2927 14.8864 24.2845C14.8864 24.2762 14.9135 24.2694 14.9466 24.2694C14.9797 24.2694 15.0067 24.2626 15.0067 24.2544C15.0067 24.2461 15.0338 24.2393 15.0669 24.2393C15.1 24.2393 15.127 24.2326 15.127 24.2243C15.127 24.216 15.1609 24.2093 15.2022 24.2093C15.2436 24.2093 15.2774 24.2025 15.2774 24.1942C15.2774 24.186 15.3045 24.1792 15.3375 24.1792C15.3706 24.1792 15.3977 24.1724 15.3977 24.1642C15.3977 24.1559 15.4248 24.1491 15.4578 24.1491C15.4909 24.1491 15.518 24.1424 15.518 24.1341C15.518 24.1258 15.5383 24.119 15.5631 24.119C15.5879 24.119 15.6082 24.1123 15.6082 24.104C15.6082 24.0957 15.6353 24.089 15.6684 24.089C15.7014 24.089 15.7285 24.0822 15.7285 24.0739C15.7285 24.0657 15.7488 24.0589 15.7736 24.0589C15.7984 24.0589 15.8187 24.0521 15.8187 24.0439C15.8187 24.0356 15.839 24.0288 15.8638 24.0288C15.8886 24.0288 15.9089 24.0221 15.9089 24.0138C15.9089 24.0055 15.9292 23.9988 15.9541 23.9988C15.9789 23.9988 15.9992 23.992 15.9992 23.9837C15.9992 23.9754 16.0262 23.9687 16.0593 23.9687C16.0924 23.9687 16.1195 23.9619 16.1195 23.9536C16.1195 23.9454 16.1398 23.9386 16.1646 23.9386C16.1894 23.9386 16.2097 23.9318 16.2097 23.9236C16.2097 23.9153 16.23 23.9085 16.2548 23.9085C16.2796 23.9085 16.2999 23.9018 16.2999 23.8935C16.2999 23.8852 16.3134 23.8785 16.33 23.8785C16.3465 23.8785 16.3601 23.8717 16.3601 23.8634C16.3601 23.8551 16.3804 23.8484 16.4052 23.8484C16.43 23.8484 16.4503 23.8416 16.4503 23.8333C16.4503 23.8251 16.4706 23.8183 16.4954 23.8183C16.5202 23.8183 16.5405 23.8115 16.5405 23.8033C16.5405 23.795 16.5608 23.7882 16.5856 23.7882C16.6104 23.7882 16.6307 23.7815 16.6307 23.7732C16.6307 23.7649 16.6442 23.7582 16.6608 23.7582C16.6773 23.7582 16.6909 23.7514 16.6909 23.7431C16.6909 23.7349 16.7112 23.7281 16.736 23.7281C16.7608 23.7281 16.7811 23.7213 16.7811 23.7131C16.7811 23.7048 16.7946 23.698 16.8112 23.698C16.8277 23.698 16.8412 23.6912 16.8412 23.683C16.8412 23.6747 16.8615 23.6679 16.8863 23.6679C16.9111 23.6679 16.9314 23.6612 16.9314 23.6529C16.9314 23.6446 16.945 23.6379 16.9615 23.6379C16.9781 23.6379 16.9916 23.6311 16.9916 23.6228C16.9916 23.6146 17.0051 23.6078 17.0217 23.6078C17.0382 23.6078 17.0517 23.601 17.0517 23.5928C17.0517 23.5845 17.072 23.5777 17.0969 23.5777C17.1217 23.5777 17.142 23.571 17.142 23.5627C17.142 23.5544 17.1555 23.5476 17.172 23.5476C17.1886 23.5476 17.2021 23.5409 17.2021 23.5326C17.2021 23.5243 17.2156 23.5176 17.2322 23.5176C17.2487 23.5176 17.2623 23.5108 17.2623 23.5025C17.2623 23.4943 17.2758 23.4875 17.2923 23.4875C17.3089 23.4875 17.3224 23.4807 17.3224 23.4725C17.3224 23.4642 17.3427 23.4574 17.3675 23.4574C17.3923 23.4574 17.4126 23.4507 17.4126 23.4424C17.4126 23.4341 17.4262 23.4274 17.4427 23.4274C17.4592 23.4274 17.4728 23.4206 17.4728 23.4123C17.4728 23.404 17.4863 23.3973 17.5028 23.3973C17.5194 23.3973 17.5329 23.3905 17.5329 23.3822C17.5329 23.374 17.5465 23.3672 17.563 23.3672C17.5795 23.3672 17.5931 23.3604 17.5931 23.3522C17.5931 23.3439 17.6066 23.3371 17.6231 23.3371C17.6397 23.3371 17.6532 23.3304 17.6532 23.3221C17.6532 23.3138 17.6667 23.3071 17.6833 23.3071C17.6998 23.3071 17.7134 23.3003 17.7134 23.292C17.7134 23.2838 17.7269 23.277 17.7434 23.277C17.76 23.277 17.7735 23.2702 17.7735 23.2619C17.7735 23.2537 17.7856 23.2469 17.8003 23.2469C17.815 23.2469 17.8368 23.2334 17.8487 23.2168C17.8607 23.2003 17.8876 23.1868 17.9088 23.1868C17.9301 23.1868 17.957 23.1733 17.969 23.1567C17.9809 23.1401 18.0027 23.1266 18.0174 23.1266C18.0321 23.1266 18.0442 23.1198 18.0442 23.1116C18.0442 23.1033 18.0577 23.0965 18.0742 23.0965C18.0908 23.0965 18.1043 23.0898 18.1043 23.0815C18.1043 23.0732 18.1179 23.0665 18.1344 23.0665C18.1509 23.0665 18.1645 23.0597 18.1645 23.0514C18.1645 23.0432 18.1765 23.0364 18.1912 23.0364C18.2059 23.0364 18.2277 23.0229 18.2397 23.0063C18.2516 22.9898 18.2734 22.9762 18.2881 22.9762C18.3028 22.9762 18.3148 22.9695 18.3148 22.9612C18.3148 22.9529 18.3269 22.9462 18.3416 22.9462C18.3563 22.9462 18.3781 22.9326 18.39 22.9161C18.4019 22.8996 18.4237 22.886 18.4385 22.886C18.4532 22.886 18.4652 22.8793 18.4652 22.871C18.4652 22.8627 18.4773 22.856 18.492 22.856C18.5067 22.856 18.5285 22.8424 18.5404 22.8259C18.5523 22.8093 18.5741 22.7958 18.5888 22.7958C18.6035 22.7958 18.6156 22.789 18.6156 22.7808C18.6156 22.7725 18.6276 22.7657 18.6423 22.7657C18.657 22.7657 18.6788 22.7522 18.6908 22.7357C18.7027 22.7191 18.723 22.7056 18.7359 22.7056C18.7488 22.7056 18.7691 22.6921 18.781 22.6755C18.7929 22.659 18.8132 22.6454 18.8261 22.6454C18.839 22.6454 18.8593 22.6319 18.8712 22.6154C18.8831 22.5988 18.9034 22.5853 18.9163 22.5853C18.9292 22.5853 18.9495 22.5718 18.9614 22.5552C18.9733 22.5387 18.9936 22.5251 19.0065 22.5251C19.0194 22.5251 19.0397 22.5116 19.0516 22.4951C19.0636 22.4785 19.0826 22.465 19.094 22.465C19.1054 22.465 19.1337 22.4447 19.1569 22.4199C19.1801 22.3951 19.2071 22.3748 19.217 22.3748C19.227 22.3748 19.254 22.3545 19.2772 22.3297C19.3004 22.3049 19.3274 22.2846 19.3373 22.2846C19.3472 22.2846 19.3743 22.2643 19.3975 22.2394C19.4207 22.2146 19.4477 22.1943 19.4576 22.1943C19.4675 22.1943 19.4946 22.174 19.5178 22.1492C19.541 22.1244 19.5679 22.1041 19.5776 22.1041C19.5874 22.1041 19.6213 22.077 19.6531 22.044C19.6849 22.0109 19.7186 21.9838 19.7281 21.9838C19.7375 21.9838 19.7782 21.95 19.8185 21.9086C19.8588 21.8673 19.8993 21.8335 19.9086 21.8335C19.9179 21.8335 19.9653 21.7929 20.014 21.7432C20.0627 21.6936 20.1097 21.653 20.1185 21.653C20.1392 21.653 20.9914 20.801 20.9914 20.7802C20.9914 20.7715 21.0388 20.7177 21.0966 20.6606C21.1545 20.6035 21.2019 20.5492 21.2019 20.54C21.2019 20.5308 21.2357 20.4903 21.2771 20.4501C21.3184 20.4098 21.3523 20.3691 21.3523 20.3596C21.3523 20.3502 21.3793 20.3164 21.4124 20.2847C21.4455 20.2529 21.4726 20.2189 21.4726 20.2092C21.4726 20.1994 21.4929 20.1725 21.5177 20.1493C21.5425 20.1262 21.5628 20.0991 21.5628 20.0892C21.5628 20.0793 21.5831 20.0522 21.6079 20.029C21.6327 20.0059 21.653 19.9776 21.653 19.9662C21.653 19.9548 21.6665 19.9357 21.6831 19.9238C21.6996 19.9118 21.7132 19.8928 21.7132 19.8814C21.7132 19.87 21.7335 19.8417 21.7583 19.8185C21.7831 19.7953 21.8034 19.767 21.8034 19.7557C21.8034 19.7443 21.8169 19.7252 21.8335 19.7133C21.85 19.7013 21.8635 19.681 21.8635 19.6681C21.8635 19.6553 21.8771 19.635 21.8936 19.623C21.9101 19.6111 21.9237 19.5908 21.9237 19.5779C21.9237 19.565 21.9372 19.5447 21.9537 19.5328C21.9703 19.5209 21.9838 19.5006 21.9838 19.4877C21.9838 19.4748 21.9974 19.4545 22.0139 19.4426C22.0304 19.4307 22.044 19.4104 22.044 19.3975C22.044 19.3846 22.0575 19.3643 22.074 19.3524C22.0906 19.3405 22.1041 19.3202 22.1041 19.3073C22.1041 19.2944 22.1176 19.2741 22.1342 19.2622C22.1507 19.2502 22.1643 19.2284 22.1643 19.2137C22.1643 19.199 22.171 19.187 22.1793 19.187C22.1876 19.187 22.1943 19.1749 22.1943 19.1602C22.1943 19.1455 22.2079 19.1237 22.2244 19.1118C22.2409 19.0999 22.2545 19.0781 22.2545 19.0634C22.2545 19.0486 22.2612 19.0366 22.2695 19.0366C22.2778 19.0366 22.2846 19.0246 22.2846 19.0099C22.2846 18.9951 22.2981 18.9733 22.3146 18.9614C22.3312 18.9495 22.3447 18.9277 22.3447 18.913C22.3447 18.8983 22.3515 18.8862 22.3597 18.8862C22.368 18.8862 22.3748 18.8727 22.3748 18.8562C22.3748 18.8396 22.3815 18.8261 22.3898 18.8261C22.3981 18.8261 22.4049 18.814 22.4049 18.7993C22.4049 18.7846 22.4184 18.7628 22.4349 18.7509C22.4515 18.739 22.465 18.7172 22.465 18.7025C22.465 18.6878 22.4718 18.6757 22.48 18.6757C22.4883 18.6757 22.4951 18.6622 22.4951 18.6456C22.4951 18.6291 22.5018 18.6156 22.5101 18.6156C22.5184 18.6156 22.5251 18.602 22.5251 18.5855C22.5251 18.569 22.5319 18.5554 22.5402 18.5554C22.5485 18.5554 22.5552 18.5419 22.5552 18.5254C22.5552 18.5088 22.562 18.4953 22.5703 18.4953C22.5785 18.4953 22.5853 18.4817 22.5853 18.4652C22.5853 18.4487 22.5921 18.4351 22.6003 18.4351C22.6086 18.4351 22.6154 18.4216 22.6154 18.4051C22.6154 18.3885 22.6221 18.375 22.6304 18.375C22.6387 18.375 22.6454 18.3615 22.6454 18.3449C22.6454 18.3284 22.6522 18.3148 22.6605 18.3148C22.6687 18.3148 22.6755 18.3013 22.6755 18.2848C22.6755 18.2682 22.6823 18.2547 22.6905 18.2547C22.6988 18.2547 22.7056 18.2412 22.7056 18.2246C22.7056 18.2081 22.7124 18.1945 22.7206 18.1945C22.7289 18.1945 22.7357 18.181 22.7357 18.1645C22.7357 18.1479 22.7424 18.1344 22.7507 18.1344C22.759 18.1344 22.7657 18.1209 22.7657 18.1043C22.7657 18.0878 22.7725 18.0742 22.7808 18.0742C22.789 18.0742 22.7958 18.0607 22.7958 18.0442C22.7958 18.0276 22.8026 18.0141 22.8108 18.0141C22.8191 18.0141 22.8259 18.0006 22.8259 17.984C22.8259 17.9675 22.8326 17.954 22.8409 17.954C22.8492 17.954 22.856 17.9337 22.856 17.9088C22.856 17.884 22.8627 17.8637 22.871 17.8637C22.8793 17.8637 22.886 17.8502 22.886 17.8337C22.886 17.8171 22.8928 17.8036 22.9011 17.8036C22.9093 17.8036 22.9161 17.7901 22.9161 17.7735C22.9161 17.757 22.9229 17.7434 22.9311 17.7434C22.9394 17.7434 22.9462 17.7231 22.9462 17.6983C22.9462 17.6735 22.9529 17.6532 22.9612 17.6532C22.9695 17.6532 22.9762 17.6397 22.9762 17.6231C22.9762 17.6066 22.983 17.5931 22.9913 17.5931C22.9996 17.5931 23.0063 17.5795 23.0063 17.563C23.0063 17.5465 23.0131 17.5329 23.0214 17.5329C23.0296 17.5329 23.0364 17.5126 23.0364 17.4878C23.0364 17.463 23.0432 17.4427 23.0514 17.4427C23.0597 17.4427 23.0665 17.4292 23.0665 17.4126C23.0665 17.3961 23.0732 17.3826 23.0815 17.3826C23.0898 17.3826 23.0965 17.3623 23.0965 17.3374C23.0965 17.3126 23.1033 17.2923 23.1116 17.2923C23.1199 17.2923 23.1266 17.2788 23.1266 17.2623C23.1266 17.2457 23.1334 17.2322 23.1417 17.2322C23.1499 17.2322 23.1567 17.2119 23.1567 17.1871C23.1567 17.1623 23.1635 17.142 23.1717 17.142C23.18 17.142 23.1868 17.1217 23.1868 17.0969C23.1868 17.072 23.1935 17.0517 23.2018 17.0517C23.2101 17.0517 23.2168 17.0314 23.2168 17.0066C23.2168 16.9818 23.2236 16.9615 23.2319 16.9615C23.2401 16.9615 23.2469 16.948 23.2469 16.9314C23.2469 16.9149 23.2537 16.9014 23.2619 16.9014C23.2702 16.9014 23.277 16.8811 23.277 16.8563C23.277 16.8315 23.2838 16.8112 23.292 16.8112C23.3003 16.8112 23.3071 16.7909 23.3071 16.766C23.3071 16.7412 23.3138 16.7209 23.3221 16.7209C23.3304 16.7209 23.3371 16.7006 23.3371 16.6758C23.3371 16.651 23.3439 16.6307 23.3522 16.6307C23.3604 16.6307 23.3672 16.6104 23.3672 16.5856C23.3672 16.5608 23.374 16.5405 23.3822 16.5405C23.3905 16.5405 23.3973 16.5134 23.3973 16.4803C23.3973 16.4473 23.404 16.4202 23.4123 16.4202C23.4206 16.4202 23.4274 16.3999 23.4274 16.3751C23.4274 16.3503 23.4341 16.33 23.4424 16.33C23.4507 16.33 23.4574 16.3029 23.4574 16.2698C23.4574 16.2367 23.4642 16.2097 23.4725 16.2097C23.4807 16.2097 23.4875 16.1894 23.4875 16.1646C23.4875 16.1398 23.4943 16.1195 23.5025 16.1195C23.5108 16.1195 23.5176 16.0992 23.5176 16.0744C23.5176 16.0495 23.5243 16.0292 23.5326 16.0292C23.5409 16.0292 23.5476 16.0022 23.5476 15.9691C23.5476 15.936 23.5544 15.9089 23.5627 15.9089C23.571 15.9089 23.5777 15.8819 23.5777 15.8488C23.5777 15.8157 23.5845 15.7887 23.5928 15.7887C23.601 15.7887 23.6078 15.7548 23.6078 15.7135C23.6078 15.6721 23.6146 15.6383 23.6228 15.6383C23.6311 15.6383 23.6379 15.6112 23.6379 15.5781C23.6379 15.5451 23.6446 15.518 23.6529 15.518C23.6612 15.518 23.6679 15.4909 23.6679 15.4578C23.6679 15.4248 23.6747 15.3977 23.683 15.3977C23.6912 15.3977 23.698 15.3639 23.698 15.3225C23.698 15.2812 23.7048 15.2473 23.7131 15.2473C23.7213 15.2473 23.7281 15.2135 23.7281 15.1721C23.7281 15.1308 23.7349 15.097 23.7431 15.097C23.7514 15.097 23.7582 15.0631 23.7582 15.0218C23.7582 14.9804 23.7649 14.9466 23.7732 14.9466C23.7816 14.9466 23.7882 14.9065 23.7882 14.8564C23.7882 14.8063 23.7949 14.7661 23.8033 14.7661C23.8119 14.7661 23.8183 14.721 23.8183 14.6609C23.8183 14.6007 23.8248 14.5556 23.8333 14.5556C23.8417 14.5556 23.8484 14.5155 23.8484 14.4654C23.8484 14.4153 23.8551 14.3752 23.8634 14.3752C23.8722 14.3752 23.8785 14.3251 23.8785 14.2549C23.8785 14.1847 23.8847 14.1346 23.8935 14.1346C23.9024 14.1346 23.9085 14.0795 23.9085 13.9993C23.9085 13.9191 23.9147 13.8639 23.9236 13.8639C23.9327 13.8639 23.9386 13.7988 23.9386 13.6985C23.9386 13.5983 23.9445 13.5331 23.9536 13.5331C23.963 13.5331 23.9687 13.4433 23.9687 13.2938C23.9687 13.1164 23.9736 13.0525 23.9875 13.0468C24.0017 13.0411 24.0008 13.035 23.9837 13.0219C23.9667 13.0088 23.9658 13.0027 23.98 12.9969C24.004 12.9872 24.0078 11.7287 23.9837 11.7287C23.9747 11.7287 23.9687 11.6686 23.9687 11.5783C23.9687 11.4881 23.9627 11.428 23.9536 11.428C23.9447 11.428 23.9386 11.3728 23.9386 11.2926C23.9386 11.2125 23.9325 11.1573 23.9236 11.1573C23.915 11.1573 23.9085 11.1122 23.9085 11.0521C23.9085 10.9919 23.9021 10.9468 23.8935 10.9468C23.8851 10.9468 23.8785 10.9067 23.8785 10.8566C23.8785 10.8065 23.8718 10.7664 23.8634 10.7664C23.8551 10.7664 23.8484 10.7263 23.8484 10.6761C23.8484 10.626 23.8417 10.5859 23.8333 10.5859C23.8251 10.5859 23.8183 10.5521 23.8183 10.5107C23.8183 10.4694 23.8115 10.4355 23.8033 10.4355C23.795 10.4355 23.7882 10.4017 23.7882 10.3604C23.7882 10.319 23.7815 10.2852 23.7732 10.2852C23.7649 10.2852 23.7582 10.2513 23.7582 10.21C23.7582 10.1686 23.7514 10.1348 23.7431 10.1348C23.7349 10.1348 23.7281 10.1145 23.7281 10.0897V10.0446H17.9991H12.27V12.4204V14.7962H15.5631C18.8461 14.7962 18.8562 14.7963 18.8562 14.8263C18.8562 14.8428 18.8494 14.8564 18.8411 14.8564C18.8329 14.8564 18.8261 14.8834 18.8261 14.9165C18.8261 14.9496 18.8193 14.9767 18.8111 14.9767C18.8028 14.9767 18.796 15.0037 18.796 15.0368C18.796 15.0699 18.7892 15.097 18.781 15.097C18.7727 15.097 18.7659 15.124 18.7659 15.1571C18.7659 15.1902 18.7592 15.2173 18.7509 15.2173C18.7426 15.2173 18.7359 15.2376 18.7359 15.2624C18.7359 15.2872 18.7291 15.3075 18.7208 15.3075C18.7126 15.3075 18.7058 15.3345 18.7058 15.3676C18.7058 15.4007 18.699 15.4278 18.6908 15.4278C18.6825 15.4278 18.6757 15.4481 18.6757 15.4729C18.6757 15.4977 18.669 15.518 18.6607 15.518C18.6524 15.518 18.6456 15.5383 18.6456 15.5631C18.6456 15.5879 18.6389 15.6082 18.6306 15.6082C18.6223 15.6082 18.6156 15.6285 18.6156 15.6533C18.6156 15.6781 18.6088 15.6984 18.6005 15.6984C18.5923 15.6984 18.5855 15.712 18.5855 15.7285C18.5855 15.745 18.5787 15.7586 18.5705 15.7586C18.5622 15.7586 18.5554 15.7789 18.5554 15.8037C18.5554 15.8285 18.5487 15.8488 18.5404 15.8488C18.5321 15.8488 18.5254 15.8623 18.5254 15.8789C18.5254 15.8954 18.5186 15.9089 18.5103 15.9089C18.502 15.9089 18.4953 15.9292 18.4953 15.9541C18.4953 15.9789 18.4885 15.9992 18.4802 15.9992C18.472 15.9992 18.4652 16.0127 18.4652 16.0292C18.4652 16.0458 18.4584 16.0593 18.4502 16.0593C18.4419 16.0593 18.4351 16.0728 18.4351 16.0894C18.4351 16.1059 18.4284 16.1195 18.4201 16.1195C18.4118 16.1195 18.4051 16.133 18.4051 16.1495C18.4051 16.1661 18.3983 16.1796 18.39 16.1796C18.3818 16.1796 18.375 16.1931 18.375 16.2097C18.375 16.2262 18.3682 16.2398 18.3599 16.2398C18.3517 16.2398 18.3449 16.2533 18.3449 16.2698C18.3449 16.2864 18.3381 16.2999 18.3299 16.2999C18.3216 16.2999 18.3148 16.3134 18.3148 16.33C18.3148 16.3465 18.3081 16.3601 18.2998 16.3601C18.2915 16.3601 18.2848 16.3736 18.2848 16.3901C18.2848 16.4067 18.278 16.4202 18.2697 16.4202C18.2615 16.4202 18.2547 16.4337 18.2547 16.4503C18.2547 16.4668 18.2479 16.4803 18.2397 16.4803C18.2314 16.4803 18.2246 16.4924 18.2246 16.5071C18.2246 16.5218 18.2111 16.5436 18.1945 16.5555C18.178 16.5675 18.1645 16.5892 18.1645 16.604C18.1645 16.6187 18.1577 16.6307 18.1494 16.6307C18.1412 16.6307 18.1344 16.6428 18.1344 16.6575C18.1344 16.6722 18.1209 16.694 18.1043 16.7059C18.0878 16.7178 18.0742 16.7396 18.0742 16.7543C18.0742 16.769 18.0675 16.7811 18.0592 16.7811C18.0509 16.7811 18.0442 16.7919 18.0442 16.8051C18.0442 16.8183 18.0239 16.8481 17.9991 16.8713C17.9743 16.8945 17.954 16.9228 17.954 16.9342C17.954 16.9456 17.9404 16.9646 17.9239 16.9766C17.9073 16.9885 17.8938 17.0076 17.8938 17.019C17.8938 17.0303 17.8735 17.0586 17.8487 17.0818C17.8239 17.105 17.8036 17.1319 17.8036 17.1417C17.8036 17.1514 17.7765 17.1854 17.7434 17.2171C17.7104 17.2489 17.6833 17.2826 17.6833 17.292C17.6833 17.3014 17.6427 17.3489 17.5931 17.3976C17.5434 17.4463 17.5028 17.4934 17.5028 17.5022C17.5028 17.5272 17.2204 17.8036 17.1948 17.8036C17.1821 17.8036 17.172 17.8168 17.172 17.8337C17.172 17.8508 17.162 17.8637 17.1487 17.8637C17.1358 17.8637 17.0854 17.9043 17.0367 17.954C16.988 18.0036 16.9403 18.0442 16.9308 18.0442C16.9213 18.0442 16.8945 18.0645 16.8713 18.0893C16.8481 18.1141 16.8211 18.1344 16.8112 18.1344C16.8012 18.1344 16.7742 18.1547 16.751 18.1795C16.7278 18.2043 16.7008 18.2246 16.6909 18.2246C16.681 18.2246 16.6539 18.2449 16.6307 18.2697C16.6075 18.2945 16.5792 18.3148 16.5679 18.3148C16.5565 18.3148 16.5374 18.3284 16.5255 18.3449C16.5135 18.3615 16.4932 18.375 16.4803 18.375C16.4675 18.375 16.4472 18.3885 16.4352 18.4051C16.4233 18.4216 16.403 18.4351 16.3901 18.4351C16.3772 18.4351 16.3569 18.4487 16.345 18.4652C16.3331 18.4817 16.3113 18.4953 16.2966 18.4953C16.2819 18.4953 16.2698 18.502 16.2698 18.5103C16.2698 18.5186 16.2563 18.5254 16.2398 18.5254C16.2232 18.5254 16.2097 18.5321 16.2097 18.5404C16.2097 18.5487 16.1976 18.5554 16.1829 18.5554C16.1682 18.5554 16.1464 18.569 16.1345 18.5855C16.1226 18.602 16.1008 18.6156 16.0861 18.6156C16.0714 18.6156 16.0593 18.6223 16.0593 18.6306C16.0593 18.6389 16.0458 18.6456 16.0292 18.6456C16.0127 18.6456 15.9992 18.6524 15.9992 18.6607C15.9992 18.669 15.9856 18.6757 15.9691 18.6757C15.9526 18.6757 15.939 18.6825 15.939 18.6908C15.939 18.699 15.9255 18.7058 15.9089 18.7058C15.8924 18.7058 15.8789 18.7126 15.8789 18.7208C15.8789 18.7291 15.8653 18.7359 15.8488 18.7359C15.8323 18.7359 15.8187 18.7426 15.8187 18.7509C15.8187 18.7592 15.8052 18.7659 15.7887 18.7659C15.7721 18.7659 15.7586 18.7727 15.7586 18.781C15.7586 18.7892 15.745 18.796 15.7285 18.796C15.712 18.796 15.6984 18.8028 15.6984 18.8111C15.6984 18.8193 15.6849 18.8261 15.6684 18.8261C15.6518 18.8261 15.6383 18.8329 15.6383 18.8411C15.6383 18.8494 15.6248 18.8562 15.6082 18.8562C15.5917 18.8562 15.5781 18.8629 15.5781 18.8712C15.5781 18.8795 15.5646 18.8862 15.5481 18.8862C15.5315 18.8862 15.518 18.893 15.518 18.9013C15.518 18.9095 15.5045 18.9163 15.4879 18.9163C15.4714 18.9163 15.4578 18.9231 15.4578 18.9313C15.4578 18.9396 15.4375 18.9464 15.4127 18.9464C15.3879 18.9464 15.3676 18.9531 15.3676 18.9614C15.3676 18.9697 15.3473 18.9765 15.3225 18.9765C15.2977 18.9765 15.2774 18.9832 15.2774 18.9915C15.2774 18.9998 15.2639 19.0065 15.2473 19.0065C15.2308 19.0065 15.2173 19.0133 15.2173 19.0216C15.2173 19.0298 15.197 19.0366 15.1721 19.0366C15.1473 19.0366 15.127 19.0434 15.127 19.0516C15.127 19.0599 15.1135 19.0667 15.097 19.0667C15.0804 19.0667 15.0669 19.0734 15.0669 19.0817C15.0669 19.09 15.0466 19.0968 15.0218 19.0968C14.997 19.0968 14.9767 19.1035 14.9767 19.1118C14.9767 19.1201 14.9564 19.1268 14.9316 19.1268C14.9067 19.1268 14.8864 19.1336 14.8864 19.1419C14.8864 19.1501 14.8594 19.1569 14.8263 19.1569C14.7932 19.1569 14.7661 19.1637 14.7661 19.1719C14.7661 19.1802 14.7458 19.187 14.721 19.187C14.6962 19.187 14.6759 19.1937 14.6759 19.202C14.6759 19.2103 14.6489 19.217 14.6158 19.217C14.5827 19.217 14.5556 19.2238 14.5556 19.2321C14.5556 19.2404 14.5353 19.2471 14.5105 19.2471C14.4857 19.2471 14.4654 19.2539 14.4654 19.2622C14.4654 19.2704 14.4383 19.2772 14.4053 19.2772C14.3722 19.2772 14.3451 19.284 14.3451 19.2922C14.3451 19.3005 14.3181 19.3073 14.285 19.3073C14.2519 19.3073 14.2248 19.314 14.2248 19.3223C14.2248 19.3306 14.191 19.3373 14.1496 19.3373C14.1083 19.3373 14.0745 19.3441 14.0745 19.3524C14.0745 19.3607 14.0344 19.3674 13.9842 19.3674C13.9341 19.3674 13.894 19.3741 13.894 19.3825C13.894 19.3908 13.8539 19.3975 13.8038 19.3975C13.7537 19.3975 13.7136 19.4042 13.7136 19.4125C13.7136 19.4209 13.6735 19.4276 13.6234 19.4276C13.5732 19.4276 13.5331 19.4342 13.5331 19.4426C13.5331 19.4514 13.483 19.4576 13.4128 19.4576C13.3427 19.4576 13.2925 19.4639 13.2925 19.4727C13.2925 19.4819 13.2224 19.4877 13.1121 19.4877C13.0018 19.4877 12.9317 19.4936 12.9317 19.5027C12.9317 19.5125 12.7211 19.5178 12.3302 19.5178C11.9392 19.5178 11.7287 19.5125 11.7287 19.5027C11.7287 19.4936 11.6636 19.4877 11.5633 19.4877C11.4631 19.4877 11.3979 19.4818 11.3979 19.4727C11.3979 19.4641 11.3528 19.4576 11.2926 19.4576C11.2325 19.4576 11.1874 19.4512 11.1874 19.4426C11.1874 19.4342 11.1473 19.4276 11.0972 19.4276C11.047 19.4276 11.0069 19.4209 11.0069 19.4125C11.0069 19.4043 10.9731 19.3975 10.9318 19.3975C10.8904 19.3975 10.8566 19.3907 10.8566 19.3825C10.8566 19.3742 10.8227 19.3674 10.7814 19.3674C10.74 19.3674 10.7062 19.3606 10.7062 19.3524C10.7062 19.3441 10.6724 19.3373 10.631 19.3373C10.5897 19.3373 10.5558 19.3306 10.5558 19.3223C10.5558 19.314 10.5288 19.3073 10.4957 19.3073C10.4626 19.3073 10.4355 19.3005 10.4355 19.2922C10.4355 19.284 10.4152 19.2772 10.3904 19.2772C10.3656 19.2772 10.3453 19.2704 10.3453 19.2622C10.3453 19.2539 10.3183 19.2471 10.2852 19.2471C10.2521 19.2471 10.225 19.2404 10.225 19.2321C10.225 19.2238 10.2047 19.217 10.1799 19.217C10.1551 19.217 10.1348 19.2103 10.1348 19.202C10.1348 19.1937 10.1145 19.187 10.0897 19.187C10.0649 19.187 10.0446 19.1802 10.0446 19.1719C10.0446 19.1637 10.0243 19.1569 9.99948 19.1569C9.97467 19.1569 9.95437 19.1501 9.95437 19.1419C9.95437 19.1336 9.93407 19.1268 9.90926 19.1268C9.88445 19.1268 9.86415 19.1201 9.86415 19.1118C9.86415 19.1035 9.84385 19.0968 9.81904 19.0968C9.79423 19.0968 9.77393 19.09 9.77393 19.0817C9.77393 19.0734 9.75363 19.0667 9.72882 19.0667C9.70401 19.0667 9.68371 19.0599 9.68371 19.0516C9.68371 19.0434 9.67017 19.0366 9.65363 19.0366C9.63709 19.0366 9.62356 19.0298 9.62356 19.0216C9.62356 19.0133 9.61003 19.0065 9.59349 19.0065C9.57695 19.0065 9.56341 18.9998 9.56341 18.9915C9.56341 18.9832 9.54311 18.9765 9.5183 18.9765C9.49349 18.9765 9.47319 18.9697 9.47319 18.9614C9.47319 18.9531 9.45966 18.9464 9.44312 18.9464C9.42658 18.9464 9.41304 18.9396 9.41304 18.9313C9.41304 18.9231 9.39275 18.9163 9.36793 18.9163C9.34312 18.9163 9.32282 18.9095 9.32282 18.9013C9.32282 18.893 9.30929 18.8862 9.29275 18.8862C9.27621 18.8862 9.26268 18.8795 9.26268 18.8712C9.26268 18.8629 9.24914 18.8562 9.2326 18.8562C9.21606 18.8562 9.20253 18.8494 9.20253 18.8411C9.20253 18.8329 9.189 18.8261 9.17246 18.8261C9.15592 18.8261 9.14238 18.8193 9.14238 18.8111C9.14238 18.8028 9.12885 18.796 9.11231 18.796C9.09577 18.796 9.08223 18.7892 9.08223 18.781C9.08223 18.7727 9.0687 18.7659 9.05216 18.7659C9.03562 18.7659 9.02209 18.7592 9.02209 18.7509C9.02209 18.7426 9.00855 18.7359 8.99201 18.7359C8.97547 18.7359 8.96194 18.7291 8.96194 18.7208C8.96194 18.7126 8.94841 18.7058 8.93187 18.7058C8.91533 18.7058 8.90179 18.699 8.90179 18.6908C8.90179 18.6825 8.88826 18.6757 8.87172 18.6757C8.85518 18.6757 8.84165 18.669 8.84165 18.6607C8.84165 18.6524 8.82811 18.6456 8.81157 18.6456C8.79503 18.6456 8.7815 18.6389 8.7815 18.6306C8.7815 18.6223 8.76945 18.6156 8.75475 18.6156C8.74003 18.6156 8.71824 18.602 8.70631 18.5855C8.69439 18.569 8.6726 18.5554 8.65788 18.5554C8.64317 18.5554 8.63113 18.5487 8.63113 18.5404C8.63113 18.5321 8.61909 18.5254 8.60438 18.5254C8.58966 18.5254 8.56787 18.5118 8.55595 18.4953C8.54402 18.4787 8.52223 18.4652 8.50751 18.4652C8.49281 18.4652 8.48076 18.4584 8.48076 18.4502C8.48076 18.4419 8.46872 18.4351 8.45401 18.4351C8.43929 18.4351 8.4175 18.4216 8.40558 18.4051C8.39365 18.3885 8.37335 18.375 8.36047 18.375C8.34758 18.375 8.32728 18.3615 8.31536 18.3449C8.30343 18.3284 8.28313 18.3148 8.27025 18.3148C8.25736 18.3148 8.23706 18.3013 8.22514 18.2848C8.21321 18.2682 8.19291 18.2547 8.18003 18.2547C8.16714 18.2547 8.14684 18.2412 8.13492 18.2246C8.12299 18.2081 8.10391 18.1945 8.09251 18.1945C8.08113 18.1945 8.05283 18.1742 8.02966 18.1494C8.00649 18.1246 7.97942 18.1043 7.96951 18.1043C7.9596 18.1043 7.93253 18.084 7.90936 18.0592C7.88619 18.0344 7.85926 18.0141 7.84952 18.0141C7.83979 18.0141 7.80582 17.987 7.77403 17.954C7.74224 17.9209 7.7085 17.8938 7.69904 17.8938C7.6896 17.8938 7.64891 17.86 7.60863 17.8186C7.56834 17.7773 7.52815 17.7434 7.51929 17.7434C7.49836 17.7434 6.82671 17.0719 6.82671 17.051C6.82671 17.0422 6.78611 16.9952 6.73649 16.9465C6.68687 16.8978 6.64627 16.8501 6.64627 16.8406C6.64627 16.831 6.62597 16.8043 6.60116 16.7811C6.57635 16.7579 6.55605 16.7308 6.55605 16.7209C6.55605 16.711 6.53575 16.684 6.51094 16.6608C6.48613 16.6376 6.46583 16.6105 6.46583 16.6006C6.46583 16.5907 6.44553 16.5637 6.42072 16.5405C6.39591 16.5173 6.37561 16.489 6.37561 16.4776C6.37561 16.4662 6.36208 16.4472 6.34553 16.4352C6.32899 16.4233 6.31546 16.403 6.31546 16.3901C6.31546 16.3772 6.30193 16.3569 6.28539 16.345C6.26885 16.3331 6.25531 16.3128 6.25531 16.2999C6.25531 16.287 6.24178 16.2667 6.22524 16.2548C6.2087 16.2429 6.19517 16.2226 6.19517 16.2097C6.19517 16.1968 6.18163 16.1765 6.16509 16.1646C6.14855 16.1526 6.13502 16.1309 6.13502 16.1161C6.13502 16.1014 6.12825 16.0894 6.11998 16.0894C6.11171 16.0894 6.10495 16.0773 6.10495 16.0626C6.10495 16.0479 6.09141 16.0261 6.07487 16.0142C6.05833 16.0023 6.0448 15.9805 6.0448 15.9658C6.0448 15.9511 6.03803 15.939 6.02976 15.939C6.02149 15.939 6.01472 15.927 6.01472 15.9123C6.01472 15.8975 6.00119 15.8758 5.98465 15.8638C5.96811 15.8519 5.95458 15.8301 5.95458 15.8154C5.95458 15.8007 5.94781 15.7887 5.93954 15.7887C5.93127 15.7887 5.9245 15.7751 5.9245 15.7586C5.9245 15.742 5.91774 15.7285 5.90947 15.7285C5.9012 15.7285 5.89443 15.715 5.89443 15.6984C5.89443 15.6819 5.88766 15.6684 5.87939 15.6684C5.87112 15.6684 5.86436 15.6548 5.86436 15.6383C5.86436 15.6217 5.85759 15.6082 5.84932 15.6082C5.84105 15.6082 5.83428 15.5947 5.83428 15.5781C5.83428 15.5616 5.82752 15.5481 5.81925 15.5481C5.81098 15.5481 5.80421 15.5345 5.80421 15.518C5.80421 15.5014 5.79744 15.4879 5.78917 15.4879C5.7809 15.4879 5.77414 15.4744 5.77414 15.4578C5.77414 15.4413 5.76737 15.4278 5.7591 15.4278C5.75083 15.4278 5.74406 15.4142 5.74406 15.3977C5.74406 15.3812 5.7373 15.3676 5.72903 15.3676C5.72076 15.3676 5.71399 15.3541 5.71399 15.3375C5.71399 15.321 5.70722 15.3075 5.69895 15.3075C5.69068 15.3075 5.68392 15.2939 5.68392 15.2774C5.68392 15.2609 5.67715 15.2473 5.66888 15.2473C5.66061 15.2473 5.65384 15.2338 5.65384 15.2173C5.65384 15.2007 5.64707 15.1872 5.6388 15.1872C5.63053 15.1872 5.62377 15.1669 5.62377 15.1421C5.62377 15.1173 5.617 15.097 5.60873 15.097C5.60046 15.097 5.59369 15.0834 5.59369 15.0669C5.59369 15.0503 5.58693 15.0368 5.57866 15.0368C5.57039 15.0368 5.56362 15.0165 5.56362 14.9917C5.56362 14.9669 5.55685 14.9466 5.54858 14.9466C5.54031 14.9466 5.53355 14.9331 5.53355 14.9165C5.53355 14.9 5.52678 14.8864 5.51851 14.8864C5.51024 14.8864 5.50347 14.8661 5.50347 14.8413C5.50347 14.8165 5.49671 14.7962 5.48844 14.7962C5.48017 14.7962 5.4734 14.7759 5.4734 14.7511C5.4734 14.7263 5.46663 14.706 5.45836 14.706C5.45009 14.706 5.44333 14.6925 5.44333 14.6759C5.44333 14.6594 5.43656 14.6459 5.42829 14.6459C5.42002 14.6459 5.41325 14.6256 5.41325 14.6007C5.41325 14.5759 5.40649 14.5556 5.39822 14.5556C5.38995 14.5556 5.38318 14.5286 5.38318 14.4955C5.38318 14.4624 5.37641 14.4353 5.36814 14.4353C5.35987 14.4353 5.35311 14.415 5.35311 14.3902C5.35311 14.3654 5.34634 14.3451 5.33807 14.3451C5.3298 14.3451 5.32303 14.3248 5.32303 14.3C5.32303 14.2752 5.31627 14.2549 5.30799 14.2549C5.29972 14.2549 5.29296 14.2278 5.29296 14.1947C5.29296 14.1617 5.28619 14.1346 5.27792 14.1346C5.26965 14.1346 5.26288 14.1075 5.26288 14.0745C5.26288 14.0414 5.25612 14.0143 5.24785 14.0143C5.23958 14.0143 5.23281 13.9872 5.23281 13.9542C5.23281 13.9211 5.22604 13.894 5.21777 13.894C5.2095 13.894 5.20274 13.8602 5.20274 13.8188C5.20274 13.7775 5.19597 13.7436 5.1877 13.7436C5.17943 13.7436 5.17266 13.7098 5.17266 13.6685C5.17266 13.6271 5.1659 13.5933 5.15763 13.5933C5.14904 13.5933 5.14259 13.5482 5.14259 13.488C5.14259 13.4279 5.13614 13.3828 5.12755 13.3828C5.11897 13.3828 5.11252 13.3377 5.11252 13.2775C5.11252 13.2174 5.10607 13.1722 5.09748 13.1722C5.08856 13.1722 5.08244 13.1171 5.08244 13.0369C5.08244 12.9567 5.07632 12.9016 5.06741 12.9016C5.05763 12.9016 5.05237 12.6861 5.05237 12.2851C5.05237 11.8841 5.05763 11.6686 5.06741 11.6686C5.07643 11.6686 5.08244 11.6084 5.08244 11.5182C5.08244 11.428 5.08846 11.3678 5.09748 11.3678C5.10607 11.3678 5.11252 11.3227 5.11252 11.2626C5.11252 11.2024 5.11897 11.1573 5.12755 11.1573C5.13591 11.1573 5.14259 11.1172 5.14259 11.0671C5.14259 11.017 5.14927 10.9769 5.15763 10.9769C5.1659 10.9769 5.17266 10.943 5.17266 10.9017C5.17266 10.8603 5.17943 10.8265 5.1877 10.8265C5.19597 10.8265 5.20274 10.7927 5.20274 10.7513C5.20274 10.71 5.2095 10.6761 5.21777 10.6761C5.22604 10.6761 5.23281 10.6491 5.23281 10.616C5.23281 10.5829 5.23958 10.5558 5.24785 10.5558C5.25612 10.5558 5.26288 10.5288 5.26288 10.4957C5.26288 10.4626 5.26965 10.4355 5.27792 10.4355C5.28619 10.4355 5.29296 10.4085 5.29296 10.3754C5.29296 10.3423 5.29972 10.3153 5.30799 10.3153C5.31627 10.3153 5.32303 10.295 5.32303 10.2701C5.32303 10.2453 5.3298 10.225 5.33807 10.225C5.34634 10.225 5.35311 10.2047 5.35311 10.1799C5.35311 10.1551 5.35987 10.1348 5.36814 10.1348C5.37641 10.1348 5.38318 10.1077 5.38318 10.0747C5.38318 10.0416 5.38995 10.0145 5.39822 10.0145C5.40649 10.0145 5.41325 9.99422 5.41325 9.96941C5.41325 9.9446 5.42002 9.9243 5.42829 9.9243C5.43656 9.9243 5.44333 9.904 5.44333 9.87918C5.44333 9.85437 5.45009 9.83407 5.45836 9.83407C5.46663 9.83407 5.4734 9.82054 5.4734 9.804C5.4734 9.78746 5.48017 9.77393 5.48844 9.77393C5.49671 9.77393 5.50347 9.75363 5.50347 9.72882C5.50347 9.70401 5.51024 9.68371 5.51851 9.68371C5.52678 9.68371 5.53355 9.67017 5.53355 9.65363C5.53355 9.63709 5.54031 9.62356 5.54858 9.62356C5.55685 9.62356 5.56362 9.60326 5.56362 9.57845C5.56362 9.55364 5.57039 9.53334 5.57866 9.53334C5.58693 9.53334 5.59369 9.5198 5.59369 9.50326C5.59369 9.48672 5.60046 9.47319 5.60873 9.47319C5.617 9.47319 5.62377 9.45289 5.62377 9.42808C5.62377 9.40327 5.63053 9.38297 5.6388 9.38297C5.64707 9.38297 5.65384 9.36944 5.65384 9.3529C5.65384 9.33636 5.66061 9.32282 5.66888 9.32282C5.67715 9.32282 5.68392 9.30929 5.68392 9.29275C5.68392 9.27621 5.69068 9.26268 5.69895 9.26268C5.70722 9.26268 5.71399 9.24914 5.71399 9.2326C5.71399 9.21606 5.72076 9.20253 5.72903 9.20253C5.7373 9.20253 5.74406 9.189 5.74406 9.17245C5.74406 9.15591 5.75083 9.14238 5.7591 9.14238C5.76737 9.14238 5.77414 9.12885 5.77414 9.11231C5.77414 9.09577 5.7809 9.08223 5.78917 9.08223C5.79744 9.08223 5.80421 9.0687 5.80421 9.05216C5.80421 9.03562 5.81098 9.02209 5.81925 9.02209C5.82752 9.02209 5.83428 9.00855 5.83428 8.99201C5.83428 8.97547 5.84105 8.96194 5.84932 8.96194C5.85759 8.96194 5.86436 8.94841 5.86436 8.93187C5.86436 8.91533 5.87112 8.90179 5.87939 8.90179C5.88766 8.90179 5.89443 8.88826 5.89443 8.87172C5.89443 8.85518 5.9012 8.84165 5.90947 8.84165C5.91774 8.84165 5.9245 8.82811 5.9245 8.81157C5.9245 8.79503 5.93127 8.7815 5.93954 8.7815C5.94781 8.7815 5.95458 8.76945 5.95458 8.75475C5.95458 8.74003 5.96811 8.71824 5.98465 8.70631C6.00119 8.69439 6.01472 8.6726 6.01472 8.65788C6.01472 8.64317 6.02149 8.63113 6.02976 8.63113C6.03803 8.63113 6.0448 8.6176 6.0448 8.60106C6.0448 8.58452 6.05157 8.57098 6.05984 8.57098C6.06811 8.57098 6.07487 8.55894 6.07487 8.54423C6.07487 8.52951 6.08841 8.50772 6.10495 8.4958C6.12149 8.48387 6.13502 8.46357 6.13502 8.45069C6.13502 8.4378 6.14855 8.4175 6.16509 8.40558C6.18163 8.39365 6.19517 8.37186 6.19517 8.35714C6.19517 8.34244 6.20193 8.33039 6.2102 8.33039C6.21847 8.33039 6.22524 8.31958 6.22524 8.30635C6.22524 8.29313 6.24554 8.26334 6.27035 8.24017C6.29516 8.217 6.31546 8.1887 6.31546 8.17732C6.31546 8.16592 6.32899 8.14684 6.34553 8.13491C6.36208 8.12299 6.37561 8.10269 6.37561 8.0898C6.37561 8.07692 6.38914 8.05662 6.40568 8.04469C6.42222 8.03277 6.43576 8.01369 6.43576 8.00229C6.43576 7.99091 6.45606 7.96261 6.48087 7.93944C6.50568 7.91626 6.52598 7.88933 6.52598 7.87959C6.52598 7.86986 6.55304 7.83589 6.58612 7.8041C6.6192 7.77232 6.64627 7.73857 6.64627 7.72912C6.64627 7.71967 6.6801 7.67898 6.72146 7.6387C6.76281 7.59842 6.79664 7.55803 6.79664 7.54893C6.79664 7.53983 6.8643 7.46521 6.94701 7.38307C7.02971 7.30094 7.09738 7.22337 7.09738 7.21068C7.09738 7.19762 7.11044 7.1876 7.12745 7.1876C7.14749 7.1876 7.15752 7.17757 7.15752 7.15752C7.15752 7.14053 7.16755 7.12745 7.18056 7.12745C7.19322 7.12745 7.27759 7.05302 7.36804 6.96204C7.45848 6.87107 7.53991 6.79664 7.54898 6.79664C7.55804 6.79664 7.59842 6.76281 7.6387 6.72145C7.67898 6.6801 7.71967 6.64627 7.72912 6.64627C7.73857 6.64627 7.77232 6.6192 7.80411 6.58612C7.83589 6.55304 7.86986 6.52598 7.87959 6.52598C7.88933 6.52598 7.91627 6.50568 7.93944 6.48087C7.96261 6.45605 7.99091 6.43576 8.00229 6.43576C8.01369 6.43576 8.03277 6.42222 8.04469 6.40568C8.05662 6.38914 8.07692 6.37561 8.0898 6.37561C8.10269 6.37561 8.12299 6.36207 8.13492 6.34553C8.14684 6.32899 8.16592 6.31546 8.17732 6.31546C8.1887 6.31546 8.217 6.29516 8.24017 6.27035C8.26334 6.24554 8.29313 6.22524 8.30635 6.22524C8.31958 6.22524 8.33039 6.21847 8.33039 6.2102C8.33039 6.20193 8.34244 6.19517 8.35714 6.19517C8.37187 6.19517 8.39365 6.18163 8.40558 6.16509C8.4175 6.14855 8.4378 6.13502 8.45069 6.13502C8.46358 6.13502 8.48387 6.12149 8.4958 6.10495C8.50772 6.0884 8.52951 6.07487 8.54423 6.07487C8.55894 6.07487 8.57098 6.06811 8.57098 6.05983C8.57098 6.05156 8.58452 6.0448 8.60106 6.0448C8.6176 6.0448 8.63113 6.03803 8.63113 6.02976C8.63113 6.02149 8.64317 6.01472 8.65788 6.01472C8.6726 6.01472 8.69439 6.00119 8.70631 5.98465C8.71824 5.96811 8.74003 5.95458 8.75475 5.95458C8.76945 5.95458 8.7815 5.94781 8.7815 5.93954C8.7815 5.93127 8.79503 5.9245 8.81157 5.9245C8.82811 5.9245 8.84165 5.91774 8.84165 5.90947C8.84165 5.9012 8.85518 5.89443 8.87172 5.89443C8.88826 5.89443 8.90179 5.88766 8.90179 5.87939C8.90179 5.87112 8.91533 5.86436 8.93187 5.86436C8.94841 5.86436 8.96194 5.85759 8.96194 5.84932C8.96194 5.84105 8.97547 5.83428 8.99201 5.83428C9.00855 5.83428 9.02209 5.82752 9.02209 5.81925C9.02209 5.81098 9.03562 5.80421 9.05216 5.80421C9.0687 5.80421 9.08223 5.79744 9.08223 5.78917C9.08223 5.7809 9.09577 5.77414 9.11231 5.77414C9.12885 5.77414 9.14238 5.76737 9.14238 5.7591C9.14238 5.75083 9.15592 5.74406 9.17246 5.74406C9.189 5.74406 9.20253 5.7373 9.20253 5.72902C9.20253 5.72075 9.21606 5.71399 9.2326 5.71399C9.24914 5.71399 9.26268 5.70722 9.26268 5.69895C9.26268 5.69068 9.27621 5.68391 9.29275 5.68391C9.30929 5.68391 9.32282 5.67715 9.32282 5.66888C9.32282 5.66061 9.33636 5.65384 9.3529 5.65384C9.36944 5.65384 9.38297 5.64707 9.38297 5.6388C9.38297 5.63053 9.40327 5.62377 9.42808 5.62377C9.45289 5.62377 9.47319 5.617 9.47319 5.60873C9.47319 5.60046 9.48672 5.59369 9.50327 5.59369C9.51981 5.59369 9.53334 5.58693 9.53334 5.57866C9.53334 5.57039 9.55364 5.56362 9.57845 5.56362C9.60326 5.56362 9.62356 5.55685 9.62356 5.54858C9.62356 5.54031 9.63709 5.53355 9.65363 5.53355C9.67017 5.53355 9.68371 5.52678 9.68371 5.51851C9.68371 5.51024 9.70401 5.50347 9.72882 5.50347C9.75363 5.50347 9.77393 5.49671 9.77393 5.48844C9.77393 5.48017 9.78746 5.4734 9.804 5.4734C9.82054 5.4734 9.83407 5.46663 9.83407 5.45836C9.83407 5.45009 9.85437 5.44333 9.87919 5.44333C9.904 5.44333 9.9243 5.43656 9.9243 5.42829C9.9243 5.42002 9.9446 5.41325 9.96941 5.41325C9.99422 5.41325 10.0145 5.40649 10.0145 5.39822C10.0145 5.38995 10.0348 5.38318 10.0596 5.38318C10.0844 5.38318 10.1047 5.37641 10.1047 5.36814C10.1047 5.35987 10.1318 5.3531 10.1649 5.3531C10.198 5.3531 10.225 5.34634 10.225 5.33807C10.225 5.3298 10.2453 5.32303 10.2701 5.32303C10.295 5.32303 10.3153 5.31626 10.3153 5.30799C10.3153 5.29972 10.3423 5.29296 10.3754 5.29296C10.4085 5.29296 10.4355 5.28619 10.4355 5.27792C10.4355 5.26965 10.4626 5.26288 10.4957 5.26288C10.5288 5.26288 10.5558 5.25612 10.5558 5.24785C10.5558 5.23958 10.5829 5.23281 10.616 5.23281C10.6491 5.23281 10.6761 5.22604 10.6761 5.21777C10.6761 5.2095 10.71 5.20274 10.7513 5.20274C10.7927 5.20274 10.8265 5.19597 10.8265 5.1877C10.8265 5.17943 10.8603 5.17266 10.9017 5.17266C10.943 5.17266 10.9769 5.1659 10.9769 5.15763C10.9769 5.14927 11.017 5.14259 11.0671 5.14259C11.1172 5.14259 11.1573 5.13591 11.1573 5.12755C11.1573 5.11897 11.2024 5.11252 11.2626 5.11252C11.3227 5.11252 11.3678 5.10606 11.3678 5.09748C11.3678 5.08837 11.433 5.08244 11.5332 5.08244C11.6335 5.08244 11.6986 5.07652 11.6986 5.06741C11.6986 5.04338 12.8368 5.04711 12.8466 5.07116C12.8523 5.08536 12.8584 5.08444 12.8715 5.06741C12.8846 5.05037 12.8907 5.04945 12.8965 5.06365C12.9018 5.07671 12.945 5.08244 13.0382 5.08244C13.1175 5.08244 13.1722 5.08858 13.1722 5.09748C13.1722 5.10606 13.2174 5.11252 13.2775 5.11252C13.3377 5.11252 13.3828 5.11897 13.3828 5.12755C13.3828 5.13591 13.4229 5.14259 13.473 5.14259C13.5231 5.14259 13.5632 5.14927 13.5632 5.15763C13.5632 5.1659 13.597 5.17266 13.6384 5.17266C13.6797 5.17266 13.7136 5.17943 13.7136 5.1877C13.7136 5.19597 13.7474 5.20274 13.7888 5.20274C13.8301 5.20274 13.8639 5.2095 13.8639 5.21777C13.8639 5.22604 13.891 5.23281 13.9241 5.23281C13.9572 5.23281 13.9842 5.23958 13.9842 5.24785C13.9842 5.25612 14.0113 5.26288 14.0444 5.26288C14.0775 5.26288 14.1045 5.26965 14.1045 5.27792C14.1045 5.28619 14.1316 5.29296 14.1647 5.29296C14.1978 5.29296 14.2248 5.29972 14.2248 5.30799C14.2248 5.31626 14.2451 5.32303 14.2699 5.32303C14.2947 5.32303 14.315 5.3298 14.315 5.33807C14.315 5.34634 14.3353 5.3531 14.3602 5.3531C14.385 5.3531 14.4053 5.35987 14.4053 5.36814C14.4053 5.37641 14.4323 5.38318 14.4654 5.38318C14.4985 5.38318 14.5256 5.38995 14.5256 5.39822C14.5256 5.40649 14.5459 5.41325 14.5707 5.41325C14.5955 5.41325 14.6158 5.42002 14.6158 5.42829C14.6158 5.43656 14.6293 5.44333 14.6459 5.44333C14.6624 5.44333 14.6759 5.45009 14.6759 5.45836C14.6759 5.46663 14.6962 5.4734 14.721 5.4734C14.7458 5.4734 14.7661 5.48017 14.7661 5.48844C14.7661 5.49671 14.7797 5.50347 14.7962 5.50347C14.8128 5.50347 14.8263 5.51024 14.8263 5.51851C14.8263 5.52678 14.8466 5.53355 14.8714 5.53355C14.8962 5.53355 14.9165 5.54031 14.9165 5.54858C14.9165 5.55685 14.9301 5.56362 14.9466 5.56362C14.9631 5.56362 14.9767 5.57039 14.9767 5.57866C14.9767 5.58693 14.997 5.59369 15.0218 5.59369C15.0466 5.59369 15.0669 5.60046 15.0669 5.60873C15.0669 5.617 15.0804 5.62377 15.097 5.62377C15.1135 5.62377 15.127 5.63053 15.127 5.6388C15.127 5.64707 15.1473 5.65384 15.1721 5.65384C15.197 5.65384 15.2173 5.66061 15.2173 5.66888C15.2173 5.67715 15.2308 5.68391 15.2473 5.68391C15.2639 5.68391 15.2774 5.69068 15.2774 5.69895C15.2774 5.70722 15.2909 5.71399 15.3075 5.71399C15.324 5.71399 15.3375 5.72075 15.3375 5.72902C15.3375 5.7373 15.3511 5.74406 15.3676 5.74406C15.3842 5.74406 15.3977 5.75083 15.3977 5.7591C15.3977 5.76737 15.4112 5.77414 15.4278 5.77414C15.4443 5.77414 15.4578 5.7809 15.4578 5.78917C15.4578 5.79744 15.4714 5.80421 15.4879 5.80421C15.5045 5.80421 15.518 5.81098 15.518 5.81925C15.518 5.82752 15.5315 5.83428 15.5481 5.83428C15.5646 5.83428 15.5781 5.84105 15.5781 5.84932C15.5781 5.85759 15.5917 5.86436 15.6082 5.86436C15.6248 5.86436 15.6383 5.87112 15.6383 5.87939C15.6383 5.88766 15.6503 5.89443 15.665 5.89443C15.6798 5.89443 15.7015 5.90796 15.7135 5.9245C15.7254 5.94104 15.7472 5.95458 15.7619 5.95458C15.7766 5.95458 15.7887 5.96134 15.7887 5.96961C15.7887 5.97788 15.8022 5.98465 15.8187 5.98465C15.8353 5.98465 15.8488 5.99142 15.8488 5.99969C15.8488 6.00796 15.8608 6.01472 15.8756 6.01472C15.8903 6.01472 15.9121 6.02826 15.924 6.0448C15.9359 6.06134 15.9577 6.07487 15.9724 6.07487C15.9871 6.07487 15.9992 6.08164 15.9992 6.08991C15.9992 6.09818 16.0112 6.10495 16.0259 6.10495C16.0406 6.10495 16.0624 6.11848 16.0744 6.13502C16.0863 6.15156 16.1066 6.16509 16.1195 6.16509C16.1323 6.16509 16.1526 6.17863 16.1646 6.19517C16.1765 6.21171 16.1968 6.22524 16.2097 6.22524C16.2226 6.22524 16.2429 6.23877 16.2548 6.25531C16.2667 6.27185 16.287 6.28539 16.2999 6.28539C16.3128 6.28539 16.3331 6.29892 16.345 6.31546C16.3569 6.332 16.376 6.34553 16.3874 6.34553C16.3988 6.34553 16.4271 6.36583 16.4503 6.39064C16.4734 6.41546 16.5005 6.43576 16.5104 6.43576C16.5203 6.43576 16.5474 6.45605 16.5706 6.48087C16.5937 6.50568 16.6207 6.52598 16.6304 6.52598C16.6401 6.52598 16.6741 6.55304 16.7059 6.58612C16.7377 6.6192 16.7778 6.64627 16.795 6.64627C16.8164 6.64627 17.3802 6.09231 18.593 4.87946C19.9969 3.47564 20.3598 3.10492 20.3598 3.07504C20.3598 3.05104 20.3514 3.03744 20.3365 3.03744C20.3236 3.03744 20.2732 2.99684 20.2245 2.94722C20.1758 2.89759 20.1283 2.85699 20.1189 2.85699C20.1095 2.85699 20.0759 2.82993 20.0441 2.79685C20.0123 2.76377 19.9784 2.7367 19.9689 2.7367C19.9593 2.7367 19.9255 2.70963 19.8937 2.67655C19.8619 2.64347 19.8279 2.61641 19.8182 2.61641C19.8085 2.61641 19.7815 2.59611 19.7584 2.57129C19.7352 2.54648 19.7081 2.52618 19.6982 2.52618C19.6883 2.52618 19.6612 2.50588 19.6381 2.48107C19.6149 2.45626 19.5878 2.43596 19.5779 2.43596C19.568 2.43596 19.541 2.41566 19.5178 2.39085C19.4946 2.36604 19.4663 2.34574 19.4549 2.34574C19.4435 2.34574 19.4244 2.33221 19.4125 2.31567C19.4006 2.29913 19.3815 2.2856 19.3701 2.2856C19.3587 2.2856 19.3304 2.2653 19.3073 2.24048C19.2841 2.21567 19.2558 2.19537 19.2444 2.19537C19.233 2.19537 19.2139 2.18184 19.202 2.1653C19.1901 2.14876 19.1698 2.13523 19.1569 2.13523C19.144 2.13523 19.1237 2.12169 19.1118 2.10515C19.0999 2.08861 19.0796 2.07508 19.0667 2.07508C19.0538 2.07508 19.0335 2.06155 19.0216 2.04501C19.0096 2.02847 18.9893 2.01493 18.9765 2.01493C18.9636 2.01493 18.9433 2.0014 18.9313 1.98486C18.9194 1.96832 18.8991 1.95479 18.8862 1.95479C18.8734 1.95479 18.8531 1.94125 18.8411 1.92471C18.8292 1.90817 18.8074 1.89464 18.7927 1.89464C18.778 1.89464 18.7659 1.88787 18.7659 1.8796C18.7659 1.87133 18.7539 1.86456 18.7392 1.86456C18.7245 1.86456 18.7027 1.85103 18.6908 1.83449C18.6788 1.81795 18.6585 1.80442 18.6456 1.80442C18.6328 1.80442 18.6125 1.79088 18.6005 1.77434C18.5886 1.7578 18.5668 1.74427 18.5521 1.74427C18.5374 1.74427 18.5254 1.7375 18.5254 1.72923C18.5254 1.72096 18.5133 1.7142 18.4986 1.7142C18.4839 1.7142 18.4621 1.70066 18.4502 1.68412C18.4382 1.66758 18.4165 1.65405 18.4017 1.65405C18.387 1.65405 18.375 1.64728 18.375 1.63901C18.375 1.63074 18.3615 1.62398 18.3449 1.62398C18.3284 1.62398 18.3148 1.61721 18.3148 1.60894C18.3148 1.60067 18.3013 1.5939 18.2848 1.5939C18.2682 1.5939 18.2547 1.58714 18.2547 1.57887C18.2547 1.57059 18.2426 1.56383 18.2279 1.56383C18.2132 1.56383 18.1914 1.5503 18.1795 1.53375C18.1676 1.51721 18.1458 1.50368 18.1311 1.50368C18.1164 1.50368 18.1043 1.49691 18.1043 1.48864C18.1043 1.48037 18.0908 1.47361 18.0742 1.47361C18.0577 1.47361 18.0442 1.46684 18.0442 1.45857C18.0442 1.4503 18.0306 1.44353 18.0141 1.44353C17.9976 1.44353 17.984 1.43677 17.984 1.4285C17.984 1.42023 17.9705 1.41346 17.954 1.41346C17.9374 1.41346 17.9239 1.40669 17.9239 1.39842C17.9239 1.39015 17.9103 1.38339 17.8938 1.38339C17.8773 1.38339 17.8637 1.37662 17.8637 1.36835C17.8637 1.36008 17.8502 1.35331 17.8337 1.35331C17.8171 1.35331 17.8036 1.34655 17.8036 1.33828C17.8036 1.33001 17.7901 1.32324 17.7735 1.32324C17.757 1.32324 17.7434 1.31647 17.7434 1.3082C17.7434 1.29993 17.7299 1.29317 17.7134 1.29317C17.6968 1.29317 17.6833 1.2864 17.6833 1.27813C17.6833 1.26986 17.6698 1.26309 17.6532 1.26309C17.6367 1.26309 17.6231 1.25633 17.6231 1.24806C17.6231 1.23979 17.6096 1.23302 17.5931 1.23302C17.5765 1.23302 17.563 1.22625 17.563 1.21798C17.563 1.20971 17.5495 1.20294 17.5329 1.20294C17.5164 1.20294 17.5028 1.19618 17.5028 1.18791C17.5028 1.17964 17.4893 1.17287 17.4728 1.17287C17.4562 1.17287 17.4427 1.1661 17.4427 1.15783C17.4427 1.14956 17.4292 1.1428 17.4126 1.1428C17.3961 1.1428 17.3826 1.13603 17.3826 1.12776C17.3826 1.11949 17.369 1.11272 17.3525 1.11272C17.3359 1.11272 17.3224 1.10596 17.3224 1.09769C17.3224 1.08942 17.3089 1.08265 17.2923 1.08265C17.2758 1.08265 17.2623 1.07588 17.2623 1.06761C17.2623 1.05934 17.242 1.05258 17.2171 1.05258C17.1923 1.05258 17.172 1.04581 17.172 1.03754C17.172 1.02927 17.1585 1.0225 17.142 1.0225C17.1254 1.0225 17.1119 1.01574 17.1119 1.00747C17.1119 0.999196 17.0984 0.99243 17.0818 0.99243C17.0653 0.99243 17.0517 0.985663 17.0517 0.977393C17.0517 0.969122 17.0314 0.962356 17.0066 0.962356C16.9818 0.962356 16.9615 0.955589 16.9615 0.947319C16.9615 0.939049 16.948 0.932282 16.9314 0.932282C16.9149 0.932282 16.9014 0.925516 16.9014 0.917246C16.9014 0.908975 16.8878 0.902209 16.8713 0.902209C16.8548 0.902209 16.8412 0.895442 16.8412 0.887172C16.8412 0.878902 16.8209 0.872135 16.7961 0.872135C16.7713 0.872135 16.751 0.865368 16.751 0.857098C16.751 0.848828 16.7375 0.842061 16.7209 0.842061C16.7044 0.842061 16.6909 0.835295 16.6909 0.827025C16.6909 0.818754 16.6706 0.811988 16.6458 0.811988C16.6209 0.811988 16.6006 0.805221 16.6006 0.796951C16.6006 0.788681 16.5871 0.781914 16.5706 0.781914C16.554 0.781914 16.5405 0.775148 16.5405 0.766877C16.5405 0.758607 16.5202 0.751841 16.4954 0.751841C16.4706 0.751841 16.4503 0.745074 16.4503 0.736804C16.4503 0.728534 16.43 0.721767 16.4052 0.721767C16.3804 0.721767 16.3601 0.715 16.3601 0.70673C16.3601 0.69846 16.3398 0.691693 16.3149 0.691693C16.2901 0.691693 16.2698 0.684927 16.2698 0.676656C16.2698 0.668386 16.2495 0.66162 16.2247 0.66162C16.1999 0.66162 16.1796 0.654853 16.1796 0.646583C16.1796 0.638313 16.1593 0.631546 16.1345 0.631546C16.1097 0.631546 16.0894 0.62478 16.0894 0.616509C16.0894 0.608239 16.0691 0.601472 16.0443 0.601472C16.0195 0.601472 15.9992 0.594706 15.9992 0.586436C15.9992 0.578165 15.9789 0.571399 15.9541 0.571399C15.9292 0.571399 15.9089 0.564632 15.9089 0.556362C15.9089 0.548092 15.8886 0.541325 15.8638 0.541325C15.839 0.541325 15.8187 0.534559 15.8187 0.526288C15.8187 0.518018 15.7917 0.511252 15.7586 0.511252C15.7255 0.511252 15.6984 0.504485 15.6984 0.496215C15.6984 0.487945 15.6781 0.481178 15.6533 0.481178C15.6285 0.481178 15.6082 0.474411 15.6082 0.466141C15.6082 0.457871 15.5811 0.451104 15.5481 0.451104C15.515 0.451104 15.4879 0.444338 15.4879 0.436068C15.4879 0.427797 15.4676 0.421031 15.4428 0.421031C15.418 0.421031 15.3977 0.414264 15.3977 0.405994C15.3977 0.397724 15.3706 0.390957 15.3375 0.390957C15.3045 0.390957 15.2774 0.384191 15.2774 0.37592C15.2774 0.36765 15.2436 0.360883 15.2022 0.360883C15.1609 0.360883 15.127 0.354117 15.127 0.345847C15.127 0.337576 15.1 0.33081 15.0669 0.33081C15.0338 0.33081 15.0067 0.324043 15.0067 0.315773C15.0067 0.307503 14.9797 0.300736 14.9466 0.300736C14.9135 0.300736 14.8864 0.29397 14.8864 0.285699C14.8864 0.277429 14.8526 0.270663 14.8113 0.270663C14.7699 0.270663 14.7361 0.263896 14.7361 0.255626C14.7361 0.247356 14.7022 0.240589 14.6609 0.240589C14.6195 0.240589 14.5857 0.233822 14.5857 0.225552C14.5857 0.217192 14.5456 0.210515 14.4955 0.210515C14.4454 0.210515 14.4053 0.203839 14.4053 0.195479C14.4053 0.187118 14.3652 0.180442 14.315 0.180442C14.2649 0.180442 14.2248 0.173765 14.2248 0.165405C14.2248 0.157044 14.1847 0.150368 14.1346 0.150368C14.0845 0.150368 14.0444 0.143692 14.0444 0.135331C14.0444 0.126745 13.9993 0.120294 13.9391 0.120294C13.879 0.120294 13.8339 0.113844 13.8339 0.105258C13.8339 0.0963408 13.7787 0.0902209 13.6985 0.0902209C13.6183 0.0902209 13.5632 0.0841009 13.5632 0.0751841C13.5632 0.066162 13.5031 0.0601472 13.4128 0.0601472C13.3226 0.0601472 13.2625 0.0541325 13.2625 0.0451104C13.2625 0.0356824 13.1672 0.0300736 13.0068 0.0300736C12.8464 0.0300736 12.7512 0.0244649 12.7512 0.0150368C12.7512 0.00533807 12.5858 0 12.2851 0C11.9843 0 11.8189 0.00533807 11.8189 0.0150368Z" fill="#DFE0EB"/>
</svg>
