<svg width="28" height="28" viewBox="0 0 28 28" fill="none" xmlns="http://www.w3.org/2000/svg">
<path d="M19.3361 0.800781H8.66548C4.32887 0.800781 0.800781 4.32887 0.800781 8.66548V19.3361C0.800781 23.6727 4.32887 27.2008 8.66548 27.2008H19.3361C23.6727 27.2008 27.2008 23.6727 27.2008 19.3361V8.66548C27.2007 4.32887 23.6726 0.800781 19.3361 0.800781ZM24.5449 19.3361C24.5449 22.2128 22.2128 24.5449 19.3361 24.5449H8.66548C5.78873 24.5449 3.45662 22.2128 3.45662 19.3361V8.66548C3.45662 5.78868 5.78873 3.45662 8.66548 3.45662H19.3361C22.2128 3.45662 24.5449 5.78868 24.5449 8.66548V19.3361Z" fill="url(#paint0_linear_2137_4753)"/>
<path d="M14.0008 7.17285C10.2359 7.17285 7.17285 10.2359 7.17285 14.0008C7.17285 17.7657 10.2359 20.8288 14.0008 20.8288C17.7658 20.8288 20.8288 17.7657 20.8288 14.0008C20.8288 10.2358 17.7658 7.17285 14.0008 7.17285ZM14.0008 18.173C11.6966 18.173 9.82869 16.3051 9.82869 14.0008C9.82869 11.6966 11.6967 9.82869 14.0008 9.82869C16.3051 9.82869 18.173 11.6966 18.173 14.0008C18.173 16.305 16.305 18.173 14.0008 18.173Z" fill="url(#paint1_linear_2137_4753)"/>
<path d="M20.8422 8.86014C21.7458 8.86014 22.4783 8.12762 22.4783 7.22402C22.4783 6.32041 21.7458 5.58789 20.8422 5.58789C19.9386 5.58789 19.2061 6.32041 19.2061 7.22402C19.2061 8.12762 19.9386 8.86014 20.8422 8.86014Z" fill="url(#paint2_linear_2137_4753)"/>
<defs>
<linearGradient id="paint0_linear_2137_4753" x1="14.0008" y1="27.1239" x2="14.0008" y2="1.00583" gradientUnits="userSpaceOnUse">
<stop stop-color="#E09B3D"/>
<stop offset="0.3" stop-color="#C74C4D"/>
<stop offset="0.6" stop-color="#C21975"/>
<stop offset="1" stop-color="#7024C4"/>
</linearGradient>
<linearGradient id="paint1_linear_2137_4753" x1="14.0008" y1="27.124" x2="14.0008" y2="1.00588" gradientUnits="userSpaceOnUse">
<stop stop-color="#E09B3D"/>
<stop offset="0.3" stop-color="#C74C4D"/>
<stop offset="0.6" stop-color="#C21975"/>
<stop offset="1" stop-color="#7024C4"/>
</linearGradient>
<linearGradient id="paint2_linear_2137_4753" x1="20.8422" y1="27.1239" x2="20.8422" y2="1.00579" gradientUnits="userSpaceOnUse">
<stop stop-color="#E09B3D"/>
<stop offset="0.3" stop-color="#C74C4D"/>
<stop offset="0.6" stop-color="#C21975"/>
<stop offset="1" stop-color="#7024C4"/>
</linearGradient>
</defs>
</svg>
