<svg width="17" height="31" viewBox="0 0 17 31" fill="none" xmlns="http://www.w3.org/2000/svg">
<path d="M6.71341 23.9521H5.14532C4.94918 23.9521 4.74978 23.9721 4.73461 23.6778C4.73461 23.6365 4.66742 23.5919 4.62624 23.5663C4.45992 23.4416 4.34088 23.2613 4.28948 23.0563C4.23809 22.8513 4.25753 22.6343 4.34448 22.4424C4.38088 22.3652 4.44325 22.3042 4.52004 22.2707C4.72594 22.2127 4.80721 22.0677 4.74219 21.8893C4.6862 21.757 4.58359 21.6515 4.45502 21.5939C3.42985 21.1813 2.4437 20.7019 1.59843 19.9593C0.91554 19.3793 0.369081 18.6478 0 17.8197H5.07271C3.70728 16.8697 2.6366 15.8026 2.38193 14.1491C2.13269 12.5391 2.50114 11.0785 3.43527 9.77617L3.53389 9.79066C3.51546 9.93338 3.48729 10.0761 3.47862 10.2199C3.38651 11.7564 3.72787 13.1289 4.85706 14.2339C5.47693 14.8404 6.0697 15.4793 6.63538 16.1405C6.8803 16.4259 7.02551 16.8017 7.252 17.2008C7.30943 16.5898 7.22274 16.0602 6.95724 15.6008C6.54977 14.8984 6.13472 14.187 5.62864 13.5593C4.48211 12.1332 3.94894 10.5054 3.96953 8.67679C3.98578 7.24962 4.65875 6.11233 5.57013 5.0676C5.77494 5.38648 5.71209 5.67303 5.56254 5.9239C5.16049 6.59289 5.19842 7.29422 5.39674 8.01338C5.67524 9.02355 6.15531 9.93672 6.66248 10.8387C7.4709 12.2592 8.03875 13.77 8.0951 15.4369C8.11461 16.0078 8.04309 16.582 8.01166 17.1808C8.52146 16.548 8.80727 15.7558 8.82225 14.9341C8.85151 13.5459 8.49715 12.2514 7.91521 11.0127C7.46765 10.0538 6.95074 9.11721 6.57903 8.1338C5.76736 5.98188 5.8508 3.86341 7.06019 1.8676C7.63454 0.918746 8.44297 0.258676 9.53857 0.0334494C9.65021 0.0158311 9.76273 0.0046639 9.87559 0C9.49522 0.528502 9.03249 1.00348 8.77132 1.56878C8.03875 3.1699 7.91305 4.83345 8.58493 6.50704C9.16145 7.94202 9.77156 9.36251 10.3188 10.8098C10.7718 12.0106 10.7154 13.2627 10.4662 14.5037C10.308 15.2842 9.80515 15.9052 9.34784 16.533C9.19071 16.7482 9.02924 16.96 8.86994 17.1741L8.93062 17.2733C9.29474 17.0358 9.70871 16.8518 10.0143 16.553C11.1782 15.4146 11.8381 14.0655 11.7276 12.3406C11.6312 10.8254 11.0406 9.53868 10.2896 8.28767C9.69462 7.30202 9.03357 6.34983 8.72256 5.2092C8.47114 4.28265 8.67162 3.42523 9.16145 2.61463C9.19612 2.94913 9.22864 3.27359 9.2644 3.60251C9.3259 4.33905 9.59184 5.04188 10.0306 5.62732C10.6439 6.42453 11.2996 7.18829 11.9097 7.98885C13.0876 9.52976 13.6771 11.2847 13.5547 13.2493C13.4626 14.7356 12.9175 16.0279 11.8002 17.0247L10.9224 17.8052H16.2162C15.9572 18.413 15.5934 18.9675 15.1423 19.442C14.1951 20.4778 13.0063 21.1066 11.7309 21.5883C11.5434 21.6597 11.4058 21.7455 11.4567 21.9763C11.4775 22.0687 11.5269 22.1517 11.5976 22.2127C12.0635 22.5583 12.0646 23.2028 11.5976 23.5607C11.5512 23.5919 11.5159 23.6377 11.4968 23.6912C11.4469 23.9264 11.2865 23.9532 11.0915 23.9498C10.6385 23.9439 10.1852 23.9439 9.73146 23.9498C9.60064 23.9701 9.47187 24.0026 9.34676 24.0468C10.01 24.5843 10.1151 25.2164 9.9016 25.9144C9.82653 26.1181 9.71101 26.3034 9.56241 26.4585C9.35976 26.6882 9.36193 26.7785 9.64152 26.9045C9.70845 26.9291 9.77687 26.9493 9.84633 26.9647C9.99728 27.0033 10.1334 27.0877 10.2371 27.207C10.3407 27.3264 10.4069 27.4751 10.4272 27.6337C10.5063 28.0396 10.6103 28.441 10.6959 28.8468C10.7393 29.0508 10.8255 29.2424 10.9485 29.4085C11.0715 29.5745 11.2283 29.7108 11.4079 29.8079C11.6173 29.9238 11.8066 30.0745 11.9682 30.2539C12.0114 30.3216 12.0404 30.3978 12.0535 30.4777C12.0665 30.5575 12.0633 30.6393 12.044 30.7178C12.0267 30.7925 11.8197 30.8594 11.6983 30.8594C10.6374 30.8594 9.5765 30.8415 8.51557 30.8415C7.1924 30.8415 5.86922 30.8627 4.54496 30.8571C4.40625 30.8571 4.16784 30.7635 4.15159 30.6787C4.12341 30.5293 4.21444 30.3443 4.29138 30.1915C4.34953 30.0975 4.43479 30.0246 4.53521 29.983C5.43575 29.5849 5.62973 28.7487 5.74351 27.8846C5.80854 27.3951 5.97759 27.0617 6.47933 26.9402C6.87596 26.8443 6.89655 26.7116 6.60721 26.434C6.10763 25.9535 6.08596 24.9243 6.56061 24.3456C6.63755 24.252 6.70691 24.1505 6.77735 24.0535L6.71341 23.9521Z" fill="#252733"/>
</svg>
