<svg width="150" height="32" viewBox="0 0 150 32" fill="none" xmlns="http://www.w3.org/2000/svg">
<path d="M25.3603 20.9186H21.7971L21.1727 22.371C21.0188 22.7284 20.9419 22.9954 20.9419 23.1719C20.9419 23.3121 21.0075 23.4366 21.1387 23.5452C21.2745 23.6492 21.564 23.7171 22.0075 23.7488V23.9999H19.1094V23.7488C19.494 23.6809 19.7428 23.5927 19.856 23.4841C20.0867 23.2669 20.3424 22.8257 20.6229 22.1606L23.8604 14.5862H24.0979L27.3014 22.242C27.5593 22.8574 27.7923 23.2578 28.0005 23.4434C28.2132 23.6243 28.5073 23.7262 28.8828 23.7488V23.9999H25.2517V23.7488C25.6182 23.7307 25.8648 23.6696 25.9915 23.5655C26.1227 23.4615 26.1883 23.3348 26.1883 23.1854C26.1883 22.9864 26.0978 22.6719 25.9168 22.242L25.3603 20.9186ZM25.1703 20.4163L23.6092 16.697L22.0075 20.4163H25.1703Z" fill="#252733"/>
<path d="M33.498 17.5997V19.7172H33.2741C33.1021 19.0521 32.8804 18.5996 32.6089 18.3598C32.342 18.12 32.0004 18.0001 31.5841 18.0001C31.2674 18.0001 31.0117 18.0838 30.8171 18.2512C30.6226 18.4186 30.5253 18.6042 30.5253 18.8078C30.5253 19.0611 30.5977 19.2783 30.7425 19.4593C30.8827 19.6448 31.1678 19.8417 31.5977 20.0498L32.5886 20.5317C33.5071 20.9796 33.9664 21.5701 33.9664 22.3031C33.9664 22.8687 33.7514 23.3257 33.3216 23.6741C32.8963 24.018 32.4189 24.1899 31.8895 24.1899C31.5094 24.1899 31.075 24.1221 30.5864 23.9863C30.4371 23.9411 30.3149 23.9185 30.2199 23.9185C30.1158 23.9185 30.0344 23.9773 29.9755 24.0949H29.7516V21.8755H29.9755C30.1022 22.509 30.3443 22.9864 30.7018 23.3076C31.0592 23.6289 31.4597 23.7895 31.9031 23.7895C32.2153 23.7895 32.4687 23.699 32.6632 23.518C32.8623 23.3325 32.9619 23.1108 32.9619 22.8529C32.9619 22.5407 32.851 22.2782 32.6293 22.0656C32.4121 21.8529 31.9755 21.5837 31.3194 21.2579C30.6633 20.9321 30.2334 20.638 30.0298 20.3756C29.8262 20.1177 29.7244 19.7919 29.7244 19.3982C29.7244 18.8869 29.8986 18.4594 30.247 18.1155C30.6 17.7716 31.0547 17.5997 31.6112 17.5997C31.8556 17.5997 32.1519 17.6517 32.5003 17.7558C32.7311 17.8236 32.8849 17.8576 32.9619 17.8576C33.0343 17.8576 33.0908 17.8417 33.1315 17.8101C33.1723 17.7784 33.2198 17.7083 33.2741 17.5997H33.498Z" fill="#252733"/>
<path d="M36.4776 14.3486C36.6676 14.3486 36.8283 14.4165 36.9595 14.5522C37.0952 14.6835 37.1631 14.8441 37.1631 15.0341C37.1631 15.2242 37.0952 15.3871 36.9595 15.5228C36.8283 15.6585 36.6676 15.7264 36.4776 15.7264C36.2875 15.7264 36.1247 15.6585 35.9889 15.5228C35.8532 15.3871 35.7853 15.2242 35.7853 15.0341C35.7853 14.8441 35.8509 14.6835 35.9821 14.5522C36.1179 14.4165 36.283 14.3486 36.4776 14.3486ZM37.0409 17.5997V22.595C37.0409 22.9841 37.0681 23.2443 37.1224 23.3755C37.1812 23.5022 37.2649 23.5972 37.3735 23.6605C37.4866 23.7239 37.6902 23.7556 37.9843 23.7556V23.9999H34.9641V23.7556C35.2672 23.7556 35.4708 23.7262 35.5749 23.6673C35.679 23.6085 35.7604 23.5112 35.8192 23.3755C35.8826 23.2397 35.9143 22.9796 35.9143 22.595V20.1991C35.9143 19.5249 35.8939 19.0883 35.8532 18.8892C35.8215 18.7444 35.7717 18.6449 35.7039 18.5906C35.636 18.5318 35.5432 18.5023 35.4256 18.5023C35.2989 18.5023 35.1451 18.5363 34.9641 18.6042L34.869 18.3598L36.7423 17.5997H37.0409Z" fill="#252733"/>
<path d="M42.2874 23.104C41.6494 23.5972 41.2489 23.8823 41.086 23.9592C40.8417 24.0723 40.5815 24.1289 40.3055 24.1289C39.8757 24.1289 39.5205 23.9818 39.2399 23.6877C38.9639 23.3936 38.8259 23.0067 38.8259 22.5271C38.8259 22.2239 38.8938 21.9615 39.0295 21.7398C39.2151 21.4321 39.5363 21.1425 39.9933 20.871C40.4548 20.5996 41.2195 20.2693 42.2874 19.8801V19.6358C42.2874 19.0159 42.1878 18.5906 41.9887 18.3598C41.7942 18.1291 41.5091 18.0137 41.1335 18.0137C40.8485 18.0137 40.6222 18.0906 40.4548 18.2444C40.2829 18.3983 40.1969 18.5747 40.1969 18.7738L40.2105 19.1675C40.2105 19.3756 40.1562 19.5362 40.0476 19.6494C39.9435 19.7625 39.8055 19.819 39.6336 19.819C39.4662 19.819 39.3282 19.7602 39.2196 19.6426C39.1155 19.5249 39.0635 19.3643 39.0635 19.1607C39.0635 18.7716 39.2626 18.4141 39.6607 18.0883C40.0589 17.7625 40.6177 17.5997 41.3372 17.5997C41.8892 17.5997 42.3417 17.6924 42.6946 17.8779C42.9615 18.0182 43.1584 18.2376 43.2851 18.5363C43.3665 18.7308 43.4072 19.129 43.4072 19.7308V21.8416C43.4072 22.4343 43.4185 22.7986 43.4412 22.9343C43.4638 23.0655 43.5 23.1538 43.5498 23.199C43.6041 23.2443 43.6651 23.2669 43.733 23.2669C43.8054 23.2669 43.8687 23.2511 43.923 23.2194C44.0181 23.1606 44.2013 22.9954 44.4728 22.7239V23.104C43.966 23.7827 43.4819 24.1221 43.0204 24.1221C42.7986 24.1221 42.6222 24.0451 42.491 23.8913C42.3597 23.7375 42.2919 23.475 42.2874 23.104ZM42.2874 22.6628V20.2941C41.6041 20.5656 41.163 20.7579 40.9639 20.871C40.6064 21.0701 40.3508 21.2783 40.1969 21.4955C40.0431 21.7126 39.9662 21.9502 39.9662 22.2081C39.9662 22.5339 40.0634 22.8054 40.258 23.0226C40.4526 23.2352 40.6765 23.3416 40.9299 23.3416C41.2738 23.3416 41.7263 23.1153 42.2874 22.6628Z" fill="#252733"/>
<path d="M46.7533 18.9164C47.4818 18.0386 48.1763 17.5997 48.8369 17.5997C49.1763 17.5997 49.4681 17.6856 49.7125 17.8576C49.9568 18.025 50.1514 18.3033 50.2961 18.6924C50.3957 18.9639 50.4455 19.3801 50.4455 19.9412V22.595C50.4455 22.9886 50.4771 23.2556 50.5405 23.3958C50.5903 23.509 50.6694 23.5972 50.778 23.6605C50.8911 23.7239 51.097 23.7556 51.3957 23.7556V23.9999H48.3211V23.7556H48.45C48.7396 23.7556 48.941 23.7126 49.0541 23.6266C49.1717 23.5361 49.2532 23.4049 49.2984 23.233C49.3165 23.1651 49.3256 22.9524 49.3256 22.595V20.0498C49.3256 19.4842 49.2509 19.0747 49.1016 18.8213C48.9568 18.5634 48.7102 18.4345 48.3618 18.4345C47.8234 18.4345 47.2872 18.7286 46.7533 19.3168V22.595C46.7533 23.0158 46.7782 23.2759 46.8279 23.3755C46.8913 23.5067 46.9772 23.604 47.0858 23.6673C47.199 23.7262 47.4252 23.7556 47.7646 23.7556V23.9999H44.69V23.7556H44.8257C45.1425 23.7556 45.3551 23.6764 45.4637 23.518C45.5768 23.3551 45.6334 23.0474 45.6334 22.595V20.2874C45.6334 19.5408 45.6153 19.086 45.5791 18.9231C45.5474 18.7603 45.4954 18.6494 45.423 18.5906C45.3551 18.5318 45.2624 18.5023 45.1447 18.5023C45.018 18.5023 44.8665 18.5363 44.69 18.6042L44.5882 18.3598L46.4614 17.5997H46.7533V18.9164Z" fill="#252733"/>
<path d="M63.3002 14.5862L63.5106 17.715H63.3002C63.0197 16.7784 62.6193 16.1042 62.0989 15.6925C61.5786 15.2807 60.9542 15.0749 60.2257 15.0749C59.6148 15.0749 59.0628 15.231 58.5696 15.5432C58.0764 15.8508 57.6873 16.344 57.4022 17.0228C57.1217 17.7015 56.9814 18.5453 56.9814 19.5543C56.9814 20.3869 57.1149 21.1086 57.3819 21.7194C57.6488 22.3303 58.0493 22.7986 58.5832 23.1244C59.1216 23.4501 59.7348 23.613 60.4225 23.613C61.0198 23.613 61.5469 23.4863 62.0039 23.233C62.4609 22.975 62.9632 22.466 63.5106 21.7059L63.721 21.8416C63.2595 22.6606 62.7211 23.2601 62.1057 23.6402C61.4903 24.0203 60.7596 24.2103 59.9135 24.2103C58.3886 24.2103 57.2077 23.6447 56.3706 22.5135C55.7462 21.6719 55.434 20.681 55.434 19.5408C55.434 18.6222 55.6399 17.7784 56.0516 17.0092C56.4634 16.24 57.029 15.645 57.7484 15.2242C58.4723 14.7988 59.2619 14.5862 60.1171 14.5862C60.7822 14.5862 61.4383 14.7491 62.0854 15.0749C62.2754 15.1744 62.4111 15.2242 62.4926 15.2242C62.6147 15.2242 62.7211 15.1812 62.8116 15.0952C62.9292 14.973 63.0129 14.8034 63.0627 14.5862H63.3002Z" fill="#252733"/>
<path d="M66.7752 14.3486V22.595C66.7752 22.9841 66.8024 23.242 66.8567 23.3687C66.9155 23.4954 67.0037 23.5927 67.1214 23.6605C67.239 23.7239 67.4585 23.7556 67.7797 23.7556V23.9999H64.7323V23.7556C65.0174 23.7556 65.2119 23.7262 65.316 23.6673C65.4201 23.6085 65.5015 23.5112 65.5604 23.3755C65.6192 23.2397 65.6486 22.9796 65.6486 22.595V16.9481C65.6486 16.2468 65.6327 15.8169 65.6011 15.6585C65.5694 15.4957 65.5174 15.3848 65.445 15.326C65.3771 15.2672 65.2889 15.2377 65.1803 15.2377C65.0626 15.2377 64.9133 15.2739 64.7323 15.3463L64.6169 15.1088L66.4698 14.3486H66.7752Z" fill="#252733"/>
<path d="M72.0285 23.104C71.3905 23.5972 70.99 23.8823 70.8271 23.9592C70.5828 24.0723 70.3226 24.1289 70.0466 24.1289C69.6168 24.1289 69.2616 23.9818 68.9811 23.6877C68.705 23.3936 68.567 23.0067 68.567 22.5271C68.567 22.2239 68.6349 21.9615 68.7707 21.7398C68.9562 21.4321 69.2774 21.1425 69.7344 20.871C70.1959 20.5996 70.9606 20.2693 72.0285 19.8801V19.6358C72.0285 19.0159 71.9289 18.5906 71.7298 18.3598C71.5353 18.1291 71.2502 18.0137 70.8747 18.0137C70.5896 18.0137 70.3634 18.0906 70.1959 18.2444C70.024 18.3983 69.938 18.5747 69.938 18.7738L69.9516 19.1675C69.9516 19.3756 69.8973 19.5362 69.7887 19.6494C69.6847 19.7625 69.5466 19.819 69.3747 19.819C69.2073 19.819 69.0693 19.7602 68.9607 19.6426C68.8566 19.5249 68.8046 19.3643 68.8046 19.1607C68.8046 18.7716 69.0037 18.4141 69.4019 18.0883C69.8 17.7625 70.3588 17.5997 71.0783 17.5997C71.6303 17.5997 72.0828 17.6924 72.4357 17.8779C72.7027 18.0182 72.8995 18.2376 73.0262 18.5363C73.1076 18.7308 73.1483 19.129 73.1483 19.7308V21.8416C73.1483 22.4343 73.1596 22.7986 73.1823 22.9343C73.2049 23.0655 73.2411 23.1538 73.2909 23.199C73.3452 23.2443 73.4062 23.2669 73.4741 23.2669C73.5465 23.2669 73.6099 23.2511 73.6642 23.2194C73.7592 23.1606 73.9424 22.9954 74.2139 22.7239V23.104C73.7071 23.7827 73.223 24.1221 72.7615 24.1221C72.5398 24.1221 72.3633 24.0451 72.2321 23.8913C72.1009 23.7375 72.033 23.475 72.0285 23.104ZM72.0285 22.6628V20.2941C71.3452 20.5656 70.9041 20.7579 70.705 20.871C70.3475 21.0701 70.0919 21.2783 69.938 21.4955C69.7842 21.7126 69.7073 21.9502 69.7073 22.2081C69.7073 22.5339 69.8046 22.8054 69.9991 23.0226C70.1937 23.2352 70.4177 23.3416 70.671 23.3416C71.0149 23.3416 71.4674 23.1153 72.0285 22.6628Z" fill="#252733"/>
<path d="M78.7002 17.5997V19.7172H78.4762C78.3043 19.0521 78.0826 18.5996 77.8111 18.3598C77.5441 18.12 77.2025 18.0001 76.7862 18.0001C76.4695 18.0001 76.2139 18.0838 76.0193 18.2512C75.8247 18.4186 75.7274 18.6042 75.7274 18.8078C75.7274 19.0611 75.7998 19.2783 75.9446 19.4593C76.0849 19.6448 76.37 19.8417 76.7998 20.0498L77.7907 20.5317C78.7092 20.9796 79.1685 21.5701 79.1685 22.3031C79.1685 22.8687 78.9536 23.3257 78.5237 23.6741C78.0984 24.018 77.621 24.1899 77.0917 24.1899C76.7116 24.1899 76.2772 24.1221 75.7885 23.9863C75.6392 23.9411 75.517 23.9185 75.422 23.9185C75.318 23.9185 75.2365 23.9773 75.1777 24.0949H74.9537V21.8755H75.1777C75.3044 22.509 75.5465 22.9864 75.9039 23.3076C76.2614 23.6289 76.6618 23.7895 77.1052 23.7895C77.4174 23.7895 77.6708 23.699 77.8654 23.518C78.0645 23.3325 78.164 23.1108 78.164 22.8529C78.164 22.5407 78.0532 22.2782 77.8314 22.0656C77.6143 21.8529 77.1776 21.5837 76.5215 21.2579C75.8654 20.9321 75.4356 20.638 75.232 20.3756C75.0284 20.1177 74.9266 19.7919 74.9266 19.3982C74.9266 18.8869 75.1008 18.4594 75.4492 18.1155C75.8021 17.7716 76.2568 17.5997 76.8134 17.5997C77.0577 17.5997 77.3541 17.6517 77.7025 17.7558C77.9333 17.8236 78.0871 17.8576 78.164 17.8576C78.2364 17.8576 78.293 17.8417 78.3337 17.8101C78.3744 17.7784 78.4219 17.7083 78.4762 17.5997H78.7002Z" fill="#252733"/>
<path d="M84.1163 17.5997V19.7172H83.8923C83.7204 19.0521 83.4987 18.5996 83.2272 18.3598C82.9602 18.12 82.6186 18.0001 82.2023 18.0001C81.8856 18.0001 81.63 18.0838 81.4354 18.2512C81.2408 18.4186 81.1436 18.6042 81.1436 18.8078C81.1436 19.0611 81.216 19.2783 81.3607 19.4593C81.501 19.6448 81.7861 19.8417 82.2159 20.0498L83.2068 20.5317C84.1254 20.9796 84.5846 21.5701 84.5846 22.3031C84.5846 22.8687 84.3697 23.3257 83.9398 23.6741C83.5145 24.018 83.0372 24.1899 82.5078 24.1899C82.1277 24.1899 81.6933 24.1221 81.2046 23.9863C81.0553 23.9411 80.9332 23.9185 80.8381 23.9185C80.7341 23.9185 80.6526 23.9773 80.5938 24.0949H80.3698V21.8755H80.5938C80.7205 22.509 80.9626 22.9864 81.32 23.3076C81.6775 23.6289 82.0779 23.7895 82.5213 23.7895C82.8335 23.7895 83.0869 23.699 83.2815 23.518C83.4806 23.3325 83.5801 23.1108 83.5801 22.8529C83.5801 22.5407 83.4693 22.2782 83.2476 22.0656C83.0304 21.8529 82.5937 21.5837 81.9376 21.2579C81.2816 20.9321 80.8517 20.638 80.6481 20.3756C80.4445 20.1177 80.3427 19.7919 80.3427 19.3982C80.3427 18.8869 80.5169 18.4594 80.8653 18.1155C81.2182 17.7716 81.6729 17.5997 82.2295 17.5997C82.4738 17.5997 82.7702 17.6517 83.1186 17.7558C83.3494 17.8236 83.5032 17.8576 83.5801 17.8576C83.6525 17.8576 83.7091 17.8417 83.7498 17.8101C83.7905 17.7784 83.838 17.7083 83.8923 17.5997H84.1163Z" fill="#252733"/>
<path d="M87.0958 14.3486C87.2859 14.3486 87.4465 14.4165 87.5777 14.5522C87.7135 14.6835 87.7813 14.8441 87.7813 15.0341C87.7813 15.2242 87.7135 15.3871 87.5777 15.5228C87.4465 15.6585 87.2859 15.7264 87.0958 15.7264C86.9058 15.7264 86.7429 15.6585 86.6072 15.5228C86.4714 15.3871 86.4036 15.2242 86.4036 15.0341C86.4036 14.8441 86.4692 14.6835 86.6004 14.5522C86.7361 14.4165 86.9013 14.3486 87.0958 14.3486ZM87.6592 17.5997V22.595C87.6592 22.9841 87.6863 23.2443 87.7406 23.3755C87.7994 23.5022 87.8831 23.5972 87.9917 23.6605C88.1049 23.7239 88.3085 23.7556 88.6026 23.7556V23.9999H85.5823V23.7556C85.8855 23.7556 86.0891 23.7262 86.1932 23.6673C86.2972 23.6085 86.3787 23.5112 86.4375 23.3755C86.5008 23.2397 86.5325 22.9796 86.5325 22.595V20.1991C86.5325 19.5249 86.5122 19.0883 86.4714 18.8892C86.4398 18.7444 86.39 18.6449 86.3221 18.5906C86.2542 18.5318 86.1615 18.5023 86.0438 18.5023C85.9172 18.5023 85.7633 18.5363 85.5823 18.6042L85.4873 18.3598L87.3605 17.5997H87.6592Z" fill="#252733"/>
<path d="M94.6635 21.638C94.4961 22.457 94.168 23.0882 93.6793 23.5316C93.1907 23.9705 92.65 24.1899 92.0572 24.1899C91.3514 24.1899 90.736 23.8936 90.2111 23.3008C89.6863 22.7081 89.4238 21.9072 89.4238 20.8982C89.4238 19.9208 89.7134 19.1268 90.2926 18.5159C90.8763 17.9051 91.5753 17.5997 92.3898 17.5997C93.0006 17.5997 93.5029 17.7625 93.8965 18.0883C94.2902 18.4096 94.487 18.7444 94.487 19.0928C94.487 19.2648 94.4305 19.405 94.3173 19.5136C94.2087 19.6177 94.0549 19.6697 93.8558 19.6697C93.5888 19.6697 93.3875 19.5838 93.2518 19.4118C93.1748 19.3168 93.1228 19.1358 93.0956 18.8688C93.073 18.6019 92.9825 18.3983 92.8242 18.258C92.6658 18.1223 92.4464 18.0544 92.1658 18.0544C91.7133 18.0544 91.3491 18.2218 91.0731 18.5566C90.7066 19.0001 90.5233 19.586 90.5233 20.3145C90.5233 21.0566 90.7043 21.7126 91.0663 22.2828C91.4328 22.8484 91.926 23.1312 92.5459 23.1312C92.9893 23.1312 93.3875 22.9796 93.7404 22.6764C93.9893 22.4683 94.2314 22.0905 94.4666 21.543L94.6635 21.638Z" fill="#252733"/>
<path d="M99.5773 17.5997V19.7172H99.3534C99.1814 19.0521 98.9597 18.5996 98.6882 18.3598C98.4213 18.12 98.0797 18.0001 97.6634 18.0001C97.3466 18.0001 97.091 18.0838 96.8964 18.2512C96.7019 18.4186 96.6046 18.6042 96.6046 18.8078C96.6046 19.0611 96.677 19.2783 96.8218 19.4593C96.962 19.6448 97.2471 19.8417 97.6769 20.0498L98.6679 20.5317C99.5864 20.9796 100.046 21.5701 100.046 22.3031C100.046 22.8687 99.8307 23.3257 99.4009 23.6741C98.9755 24.018 98.4982 24.1899 97.9688 24.1899C97.5887 24.1899 97.1543 24.1221 96.6657 23.9863C96.5164 23.9411 96.3942 23.9185 96.2992 23.9185C96.1951 23.9185 96.1137 23.9773 96.0548 24.0949H95.8309V21.8755H96.0548C96.1815 22.509 96.4236 22.9864 96.7811 23.3076C97.1385 23.6289 97.5389 23.7895 97.9824 23.7895C98.2946 23.7895 98.548 23.699 98.7425 23.518C98.9416 23.3325 99.0412 23.1108 99.0412 22.8529C99.0412 22.5407 98.9303 22.2782 98.7086 22.0656C98.4914 21.8529 98.0548 21.5837 97.3987 21.2579C96.7426 20.9321 96.3127 20.638 96.1091 20.3756C95.9055 20.1177 95.8037 19.7919 95.8037 19.3982C95.8037 18.8869 95.9779 18.4594 96.3263 18.1155C96.6792 17.7716 97.134 17.5997 97.6905 17.5997C97.9349 17.5997 98.2312 17.6517 98.5796 17.7558C98.8104 17.8236 98.9642 17.8576 99.0412 17.8576C99.1136 17.8576 99.1701 17.8417 99.2108 17.8101C99.2516 17.7784 99.2991 17.7083 99.3534 17.5997H99.5773Z" fill="#252733"/>
<path d="M108.306 23.7488V23.9999H104.362V23.7488H104.688C105.068 23.7488 105.344 23.6379 105.516 23.4162C105.625 23.2714 105.679 22.923 105.679 22.371V16.4255C105.679 15.9594 105.65 15.6518 105.591 15.5024C105.545 15.3893 105.453 15.292 105.312 15.2106C105.113 15.102 104.905 15.0477 104.688 15.0477H104.362V14.7966H108.306V15.0477H107.973C107.597 15.0477 107.324 15.1586 107.152 15.3803C107.039 15.5251 106.982 15.8735 106.982 16.4255V22.371C106.982 22.837 107.011 23.1447 107.07 23.294C107.116 23.4072 107.211 23.5044 107.355 23.5859C107.55 23.6945 107.756 23.7488 107.973 23.7488H108.306Z" fill="#252733"/>
<path d="M110.891 18.9164C111.62 18.0386 112.314 17.5997 112.975 17.5997C113.314 17.5997 113.606 17.6856 113.851 17.8576C114.095 18.025 114.29 18.3033 114.434 18.6924C114.534 18.9639 114.584 19.3801 114.584 19.9412V22.595C114.584 22.9886 114.615 23.2556 114.679 23.3958C114.728 23.509 114.808 23.5972 114.916 23.6605C115.029 23.7239 115.235 23.7556 115.534 23.7556V23.9999H112.459V23.7556H112.588C112.878 23.7556 113.079 23.7126 113.192 23.6266C113.31 23.5361 113.391 23.4049 113.437 23.233C113.455 23.1651 113.464 22.9524 113.464 22.595V20.0498C113.464 19.4842 113.389 19.0747 113.24 18.8213C113.095 18.5634 112.848 18.4345 112.5 18.4345C111.962 18.4345 111.425 18.7286 110.891 19.3168V22.595C110.891 23.0158 110.916 23.2759 110.966 23.3755C111.029 23.5067 111.115 23.604 111.224 23.6673C111.337 23.7262 111.563 23.7556 111.903 23.7556V23.9999H108.828V23.7556H108.964C109.281 23.7556 109.493 23.6764 109.602 23.518C109.715 23.3551 109.772 23.0474 109.772 22.595V20.2874C109.772 19.5408 109.753 19.086 109.717 18.9231C109.686 18.7603 109.634 18.6494 109.561 18.5906C109.493 18.5318 109.401 18.5023 109.283 18.5023C109.156 18.5023 109.005 18.5363 108.828 18.6042L108.726 18.3598L110.6 17.5997H110.891V18.9164Z" fill="#252733"/>
<path d="M120.047 17.5997V19.7172H119.823C119.651 19.0521 119.43 18.5996 119.158 18.3598C118.891 18.12 118.55 18.0001 118.133 18.0001C117.817 18.0001 117.561 18.0838 117.366 18.2512C117.172 18.4186 117.075 18.6042 117.075 18.8078C117.075 19.0611 117.147 19.2783 117.292 19.4593C117.432 19.6448 117.717 19.8417 118.147 20.0498L119.138 20.5317C120.056 20.9796 120.516 21.5701 120.516 22.3031C120.516 22.8687 120.301 23.3257 119.871 23.6741C119.445 24.018 118.968 24.1899 118.439 24.1899C118.059 24.1899 117.624 24.1221 117.136 23.9863C116.986 23.9411 116.864 23.9185 116.769 23.9185C116.665 23.9185 116.584 23.9773 116.525 24.0949H116.301V21.8755H116.525C116.651 22.509 116.894 22.9864 117.251 23.3076C117.608 23.6289 118.009 23.7895 118.452 23.7895C118.765 23.7895 119.018 23.699 119.212 23.518C119.412 23.3325 119.511 23.1108 119.511 22.8529C119.511 22.5407 119.4 22.2782 119.179 22.0656C118.961 21.8529 118.525 21.5837 117.869 21.2579C117.213 20.9321 116.783 20.638 116.579 20.3756C116.375 20.1177 116.274 19.7919 116.274 19.3982C116.274 18.8869 116.448 18.4594 116.796 18.1155C117.149 17.7716 117.604 17.5997 118.16 17.5997C118.405 17.5997 118.701 17.6517 119.05 17.7558C119.28 17.8236 119.434 17.8576 119.511 17.8576C119.583 17.8576 119.64 17.8417 119.681 17.8101C119.721 17.7784 119.769 17.7083 119.823 17.5997H120.047Z" fill="#252733"/>
<path d="M123.251 15.74V17.7829H124.703V18.258H123.251V22.2896C123.251 22.6923 123.307 22.9637 123.42 23.104C123.538 23.2443 123.687 23.3144 123.868 23.3144C124.018 23.3144 124.163 23.2692 124.303 23.1787C124.443 23.0836 124.552 22.9456 124.629 22.7646H124.893C124.735 23.2081 124.511 23.5429 124.221 23.7691C123.932 23.9909 123.633 24.1017 123.325 24.1017C123.117 24.1017 122.914 24.0451 122.715 23.932C122.516 23.8144 122.368 23.6492 122.273 23.4366C122.178 23.2194 122.131 22.8868 122.131 22.4389V18.258H121.147V18.034C121.396 17.9345 121.649 17.7671 121.907 17.5318C122.169 17.292 122.402 17.0092 122.606 16.6834C122.71 16.5115 122.855 16.197 123.04 15.74H123.251Z" fill="#252733"/>
<path d="M126.895 14.3486C127.086 14.3486 127.246 14.4165 127.377 14.5522C127.513 14.6835 127.581 14.8441 127.581 15.0341C127.581 15.2242 127.513 15.3871 127.377 15.5228C127.246 15.6585 127.086 15.7264 126.895 15.7264C126.705 15.7264 126.543 15.6585 126.407 15.5228C126.271 15.3871 126.203 15.2242 126.203 15.0341C126.203 14.8441 126.269 14.6835 126.4 14.5522C126.536 14.4165 126.701 14.3486 126.895 14.3486ZM127.459 17.5997V22.595C127.459 22.9841 127.486 23.2443 127.54 23.3755C127.599 23.5022 127.683 23.5972 127.791 23.6605C127.904 23.7239 128.108 23.7556 128.402 23.7556V23.9999H125.382V23.7556C125.685 23.7556 125.889 23.7262 125.993 23.6673C126.097 23.6085 126.178 23.5112 126.237 23.3755C126.3 23.2397 126.332 22.9796 126.332 22.595V20.1991C126.332 19.5249 126.312 19.0883 126.271 18.8892C126.239 18.7444 126.19 18.6449 126.122 18.5906C126.054 18.5318 125.961 18.5023 125.843 18.5023C125.717 18.5023 125.563 18.5363 125.382 18.6042L125.287 18.3598L127.16 17.5997H127.459Z" fill="#252733"/>
<path d="M130.988 15.74V17.7829H132.441V18.258H130.988V22.2896C130.988 22.6923 131.045 22.9637 131.158 23.104C131.275 23.2443 131.425 23.3144 131.606 23.3144C131.755 23.3144 131.9 23.2692 132.04 23.1787C132.18 23.0836 132.289 22.9456 132.366 22.7646H132.631C132.472 23.2081 132.248 23.5429 131.959 23.7691C131.669 23.9909 131.37 24.1017 131.063 24.1017C130.855 24.1017 130.651 24.0451 130.452 23.932C130.253 23.8144 130.106 23.6492 130.011 23.4366C129.916 23.2194 129.868 22.8868 129.868 22.4389V18.258H128.884V18.034C129.133 17.9345 129.386 17.7671 129.644 17.5318C129.907 17.292 130.14 17.0092 130.343 16.6834C130.447 16.5115 130.592 16.197 130.778 15.74H130.988Z" fill="#252733"/>
<path d="M138.501 17.7829V21.5498C138.501 22.2692 138.517 22.7104 138.549 22.8732C138.585 23.0316 138.639 23.1425 138.712 23.2058C138.789 23.2692 138.877 23.3008 138.977 23.3008C139.117 23.3008 139.275 23.2624 139.452 23.1854L139.547 23.423L137.687 24.1899H137.382V22.8732C136.848 23.4524 136.44 23.8166 136.16 23.966C135.879 24.1153 135.583 24.1899 135.271 24.1899C134.922 24.1899 134.619 24.0904 134.361 23.8913C134.108 23.6877 133.931 23.4275 133.832 23.1108C133.732 22.7941 133.683 22.3461 133.683 21.7669V18.991C133.683 18.6969 133.651 18.4933 133.588 18.3802C133.524 18.2671 133.429 18.1811 133.302 18.1223C133.18 18.0589 132.956 18.0295 132.631 18.034V17.7829H134.809V21.9434C134.809 22.5226 134.909 22.9027 135.108 23.0836C135.311 23.2646 135.556 23.3551 135.841 23.3551C136.035 23.3551 136.255 23.294 136.499 23.1719C136.748 23.0497 137.042 22.8167 137.382 22.4728V18.9503C137.382 18.5974 137.316 18.3598 137.185 18.2376C137.058 18.111 136.791 18.0431 136.384 18.034V17.7829H138.501Z" fill="#252733"/>
<path d="M141.807 15.74V17.7829H143.259V18.258H141.807V22.2896C141.807 22.6923 141.863 22.9637 141.976 23.104C142.094 23.2443 142.243 23.3144 142.424 23.3144C142.574 23.3144 142.718 23.2692 142.859 23.1787C142.999 23.0836 143.108 22.9456 143.185 22.7646H143.449C143.291 23.2081 143.067 23.5429 142.777 23.7691C142.488 23.9909 142.189 24.1017 141.881 24.1017C141.673 24.1017 141.47 24.0451 141.271 23.932C141.071 23.8144 140.924 23.6492 140.829 23.4366C140.734 23.2194 140.687 22.8868 140.687 22.4389V18.258H139.703V18.034C139.952 17.9345 140.205 17.7671 140.463 17.5318C140.725 17.292 140.958 17.0092 141.162 16.6834C141.266 16.5115 141.411 16.197 141.596 15.74H141.807Z" fill="#252733"/>
<path d="M144.915 20.1245C144.911 21.0475 145.135 21.7715 145.587 22.2963C146.04 22.8212 146.571 23.0836 147.182 23.0836C147.589 23.0836 147.942 22.9728 148.241 22.7511C148.544 22.5248 148.797 22.1402 149.001 21.5973L149.211 21.733C149.116 22.3529 148.84 22.9185 148.383 23.4298C147.926 23.9366 147.354 24.1899 146.666 24.1899C145.92 24.1899 145.279 23.9004 144.746 23.3212C144.216 22.7375 143.951 21.9547 143.951 20.9729C143.951 19.9095 144.223 19.0815 144.766 18.4888C145.313 17.8915 145.999 17.5929 146.822 17.5929C147.519 17.5929 148.092 17.8236 148.54 18.2852C148.988 18.7422 149.211 19.3553 149.211 20.1245H144.915ZM144.915 19.7308H147.793C147.77 19.3326 147.723 19.0521 147.65 18.8892C147.537 18.6358 147.368 18.4367 147.141 18.2919C146.92 18.1472 146.687 18.0748 146.442 18.0748C146.067 18.0748 145.73 18.2218 145.431 18.5159C145.137 18.8055 144.965 19.2105 144.915 19.7308Z" fill="#252733"/>
<path d="M6.71341 23.9521H5.14532C4.94918 23.9521 4.74978 23.9721 4.73461 23.6778C4.73461 23.6365 4.66742 23.5919 4.62624 23.5663C4.45992 23.4416 4.34088 23.2613 4.28948 23.0563C4.23809 22.8513 4.25753 22.6343 4.34448 22.4424C4.38088 22.3652 4.44325 22.3042 4.52004 22.2707C4.72594 22.2127 4.80721 22.0677 4.74219 21.8893C4.6862 21.757 4.58359 21.6515 4.45502 21.5939C3.42985 21.1813 2.4437 20.7019 1.59843 19.9593C0.91554 19.3793 0.369081 18.6478 0 17.8197H5.07271C3.70728 16.8697 2.6366 15.8026 2.38193 14.1491C2.13269 12.5391 2.50114 11.0785 3.43527 9.77617L3.53389 9.79066C3.51546 9.93338 3.48729 10.0761 3.47862 10.2199C3.38651 11.7564 3.72787 13.1289 4.85706 14.2339C5.47693 14.8404 6.0697 15.4793 6.63538 16.1405C6.8803 16.4259 7.02551 16.8017 7.252 17.2008C7.30943 16.5898 7.22274 16.0602 6.95724 15.6008C6.54977 14.8984 6.13472 14.187 5.62864 13.5593C4.48211 12.1332 3.94894 10.5054 3.96953 8.67679C3.98578 7.24962 4.65875 6.11233 5.57013 5.0676C5.77494 5.38648 5.71209 5.67303 5.56254 5.9239C5.16049 6.59289 5.19842 7.29422 5.39674 8.01338C5.67524 9.02355 6.15531 9.93672 6.66248 10.8387C7.4709 12.2592 8.03875 13.77 8.0951 15.4369C8.11461 16.0078 8.04309 16.582 8.01166 17.1808C8.52146 16.548 8.80727 15.7558 8.82225 14.9341C8.85151 13.5459 8.49715 12.2514 7.91521 11.0127C7.46765 10.0538 6.95074 9.11721 6.57903 8.1338C5.76736 5.98188 5.8508 3.86341 7.06019 1.8676C7.63454 0.918746 8.44297 0.258676 9.53857 0.0334494C9.65021 0.0158311 9.76273 0.0046639 9.87559 0C9.49522 0.528502 9.03249 1.00348 8.77132 1.56878C8.03875 3.1699 7.91305 4.83345 8.58493 6.50704C9.16145 7.94202 9.77156 9.36251 10.3188 10.8098C10.7718 12.0106 10.7154 13.2627 10.4662 14.5037C10.308 15.2842 9.80515 15.9052 9.34784 16.533C9.19071 16.7482 9.02924 16.96 8.86994 17.1741L8.93062 17.2733C9.29474 17.0358 9.70871 16.8518 10.0143 16.553C11.1782 15.4146 11.8381 14.0655 11.7276 12.3406C11.6312 10.8254 11.0406 9.53868 10.2896 8.28767C9.69462 7.30202 9.03357 6.34983 8.72256 5.2092C8.47114 4.28265 8.67162 3.42523 9.16145 2.61463C9.19612 2.94913 9.22864 3.27359 9.2644 3.60251C9.3259 4.33905 9.59184 5.04188 10.0306 5.62732C10.6439 6.42453 11.2996 7.18829 11.9097 7.98885C13.0876 9.52976 13.6771 11.2847 13.5547 13.2493C13.4626 14.7356 12.9175 16.0279 11.8002 17.0247L10.9224 17.8052H16.2162C15.9572 18.413 15.5934 18.9675 15.1423 19.442C14.1951 20.4778 13.0063 21.1066 11.7309 21.5883C11.5434 21.6597 11.4058 21.7455 11.4567 21.9763C11.4775 22.0687 11.5269 22.1517 11.5976 22.2127C12.0635 22.5583 12.0646 23.2028 11.5976 23.5607C11.5512 23.5919 11.5159 23.6377 11.4968 23.6912C11.4469 23.9264 11.2865 23.9532 11.0915 23.9498C10.6385 23.9439 10.1852 23.9439 9.73146 23.9498C9.60064 23.9701 9.47187 24.0026 9.34676 24.0468C10.01 24.5843 10.1151 25.2164 9.9016 25.9144C9.82653 26.1181 9.71101 26.3034 9.56241 26.4585C9.35976 26.6882 9.36193 26.7785 9.64152 26.9045C9.70845 26.9291 9.77687 26.9493 9.84633 26.9647C9.99728 27.0033 10.1334 27.0877 10.2371 27.207C10.3407 27.3264 10.4069 27.4751 10.4272 27.6337C10.5063 28.0396 10.6103 28.441 10.6959 28.8468C10.7393 29.0508 10.8255 29.2424 10.9485 29.4085C11.0715 29.5745 11.2283 29.7108 11.4079 29.8079C11.6173 29.9238 11.8066 30.0745 11.9682 30.2539C12.0114 30.3216 12.0404 30.3978 12.0535 30.4777C12.0665 30.5575 12.0633 30.6393 12.044 30.7178C12.0267 30.7925 11.8197 30.8594 11.6983 30.8594C10.6374 30.8594 9.5765 30.8415 8.51557 30.8415C7.1924 30.8415 5.86922 30.8627 4.54496 30.8571C4.40625 30.8571 4.16784 30.7635 4.15159 30.6787C4.12341 30.5293 4.21444 30.3443 4.29138 30.1915C4.34953 30.0975 4.43479 30.0246 4.53521 29.983C5.43575 29.5849 5.62973 28.7487 5.74351 27.8846C5.80854 27.3951 5.97759 27.0617 6.47933 26.9402C6.87596 26.8443 6.89655 26.7116 6.60721 26.434C6.10763 25.9535 6.08596 24.9243 6.56061 24.3456C6.63755 24.252 6.70691 24.1505 6.77735 24.0535L6.71341 23.9521Z" fill="#252733"/>
</svg>
