<svg width="159" height="36" viewBox="0 0 159 36" fill="none" xmlns="http://www.w3.org/2000/svg">
<path fill-rule="evenodd" clip-rule="evenodd" d="M76.1699 22.0352V17.4551H75.8086C75.7435 17.7611 75.6556 17.9661 75.5449 18.0703C75.4408 18.168 75.304 18.2168 75.1348 18.2168C74.985 18.2168 74.7279 18.1354 74.3633 17.9727C73.5755 17.6276 72.8301 17.4551 72.127 17.4551C71.0007 17.4551 70.0729 17.8001 69.3438 18.4902C68.6146 19.1738 68.25 19.9909 68.25 20.9414C68.25 21.4883 68.3737 21.9896 68.6211 22.4453C68.8685 22.901 69.2298 23.3177 69.7051 23.6953C70.1868 24.0729 70.9941 24.5807 72.127 25.2187C73.2598 25.8503 73.9531 26.2637 74.207 26.459C74.5846 26.7454 74.8613 27.0547 75.0371 27.3867C75.2194 27.7187 75.3105 28.0475 75.3105 28.373C75.3105 28.959 75.0729 29.4668 74.5977 29.8965C74.1289 30.3262 73.4876 30.541 72.6738 30.541C71.9707 30.541 71.3229 30.3848 70.7305 30.0723C70.1445 29.7598 69.7083 29.3691 69.4219 28.9004C69.1354 28.4251 68.9076 27.7122 68.7383 26.7617H68.377V31.3027H68.7383C68.7839 30.9967 68.8522 30.7949 68.9434 30.6973C69.041 30.5996 69.1712 30.5508 69.334 30.5508C69.5033 30.5508 69.9036 30.6549 70.5352 30.8633C71.1732 31.0651 71.5931 31.1823 71.7949 31.2148C72.1335 31.2734 72.4948 31.3027 72.8789 31.3027C74.1029 31.3027 75.1022 30.9414 75.877 30.2187C76.6582 29.4896 77.0488 28.6237 77.0488 27.6211C77.0488 27.0937 76.9251 26.5892 76.6777 26.1074C76.4368 25.6256 76.0885 25.209 75.6328 24.8574C75.1836 24.4993 74.3405 23.9883 73.1035 23.3242C71.5866 22.5104 70.6263 21.8594 70.2227 21.3711C69.9427 21.0391 69.8027 20.6712 69.8027 20.2676C69.8027 19.7402 70.0241 19.2715 70.4668 18.8613C70.9095 18.4447 71.4694 18.2363 72.1465 18.2363C72.7454 18.2363 73.3249 18.3893 73.8848 18.6953C74.4447 19.0013 74.8743 19.4147 75.1738 19.9355C75.4798 20.4564 75.6914 21.1562 75.8086 22.0352H76.1699ZM90.0516 20.8633L89.9051 17.7578H79.0945L78.9383 20.8633H79.3094C79.3549 20.2643 79.4982 19.7891 79.7391 19.4375C79.9799 19.0859 80.2697 18.8483 80.6082 18.7246C80.8686 18.6335 81.3081 18.5879 81.9266 18.5879H83.5184V28.7051C83.5184 29.4473 83.4467 29.9225 83.3035 30.1309C83.0691 30.4694 82.672 30.6387 82.1121 30.6387H81.6434V31H87.2586V30.6387H86.7996C86.2853 30.6387 85.9044 30.5019 85.657 30.2285C85.4813 30.0267 85.3934 29.5189 85.3934 28.7051V18.5879H87.2586C87.8055 18.5879 88.2449 18.679 88.577 18.8613C88.9155 19.0371 89.1857 19.3138 89.3875 19.6914C89.5112 19.9258 89.6089 20.3164 89.6805 20.8633H90.0516ZM100.3 17.7578V18.1191H100.798C101.3 18.1191 101.677 18.2624 101.931 18.5488C102.114 18.7572 102.205 19.2747 102.205 20.1016V25.4629C102.205 26.8691 102.078 27.8685 101.824 28.4609C101.576 29.0469 101.111 29.5286 100.427 29.9062C99.7438 30.2839 98.969 30.4727 98.1031 30.4727C97.426 30.4727 96.8531 30.3522 96.3844 30.1113C95.9221 29.8704 95.5673 29.5644 95.3199 29.1934C95.0725 28.8223 94.9 28.3047 94.8023 27.6406C94.7112 26.9766 94.6656 26.3874 94.6656 25.873V20.1016C94.6656 19.3594 94.747 18.8711 94.9098 18.6367C95.1441 18.2917 95.5348 18.1191 96.0816 18.1191H96.5895V17.7578H90.8668V18.1191H91.3648C91.8661 18.1191 92.2275 18.2461 92.4488 18.5C92.6767 18.7539 92.7906 19.2878 92.7906 20.1016V25.2773C92.7906 26.8724 92.8948 27.9596 93.1031 28.5391C93.4156 29.3854 93.9462 30.0592 94.6949 30.5605C95.4436 31.0618 96.5406 31.3125 97.9859 31.3125C99.3141 31.3125 100.362 31.0521 101.13 30.5312C101.905 30.0039 102.423 29.3756 102.683 28.6465C102.95 27.9108 103.084 26.8789 103.084 25.5508V20.1797C103.084 19.444 103.152 18.9753 103.289 18.7734C103.569 18.3372 103.969 18.1191 104.49 18.1191H104.988V17.7578H100.3ZM105.754 30.6387V31H111.672C114.244 31 116.158 30.3099 117.414 28.9297C118.534 27.6927 119.094 26.153 119.094 24.3105C119.094 22.9368 118.778 21.7259 118.147 20.6777C117.522 19.6296 116.692 18.8809 115.657 18.4316C114.628 17.9824 113.124 17.7578 111.145 17.7578H105.754V18.1191H106.252C106.754 18.1191 107.131 18.2624 107.385 18.5488C107.567 18.7572 107.659 19.2747 107.659 20.1016V28.6562C107.659 29.4049 107.587 29.8867 107.444 30.1016C107.209 30.4596 106.812 30.6387 106.252 30.6387H105.754ZM111.614 30.3164C111.054 30.3164 110.36 30.2253 109.534 30.043V18.7832C110.282 18.5944 110.95 18.5 111.536 18.5C113.098 18.5 114.377 19.0273 115.373 20.082C116.37 21.1367 116.868 22.5788 116.868 24.4082C116.868 26.2246 116.37 27.6634 115.373 28.7246C114.377 29.7858 113.124 30.3164 111.614 30.3164ZM124.245 23.7148V18.4805H127.878C128.536 18.4805 128.995 18.5293 129.255 18.6269C129.581 18.7637 129.825 18.9622 129.988 19.2227C130.157 19.4831 130.31 19.9616 130.446 20.6582H130.827L130.681 17.7578H120.476V18.1191H120.945C121.491 18.1191 121.882 18.2493 122.116 18.5098C122.286 18.7051 122.37 19.2227 122.37 20.0625V28.666C122.37 29.3105 122.331 29.737 122.253 29.9453C122.182 30.1536 122.042 30.3099 121.833 30.4141C121.553 30.5638 121.257 30.6387 120.945 30.6387H120.476V31H130.681L131.823 27.6797H131.433C131.01 28.4935 130.596 29.1022 130.193 29.5059C129.88 29.8118 129.555 30.0169 129.216 30.1211C128.877 30.2253 128.334 30.2773 127.585 30.2773H125.339C124.974 30.2773 124.727 30.2415 124.597 30.1699C124.467 30.0918 124.376 29.9909 124.323 29.8672C124.271 29.737 124.245 29.3789 124.245 28.793V24.4277H127.155C127.709 24.4277 128.119 24.4928 128.386 24.623C128.653 24.7533 128.845 24.9323 128.962 25.1602C129.053 25.3424 129.144 25.7559 129.236 26.4004H129.597V21.791H129.236C129.196 22.5462 129.008 23.0736 128.669 23.373C128.415 23.6009 127.911 23.7148 127.155 23.7148H124.245ZM135.822 17.7578H132.229V18.1191C132.613 18.1191 132.899 18.1484 133.088 18.207C133.472 18.3307 133.762 18.4642 133.957 18.6074C134.159 18.7506 134.452 19.0469 134.836 19.4961V28.7051C134.836 29.4473 134.764 29.9225 134.621 30.1309C134.387 30.4694 133.986 30.6387 133.42 30.6387H132.961V31H137.57V30.6387H137.102C136.587 30.6387 136.206 30.5019 135.959 30.2285C135.783 30.0267 135.695 29.5189 135.695 28.7051V20.5508L144.426 31.2148H144.777V20.0527C144.777 19.3105 144.849 18.8353 144.992 18.6269C145.227 18.2884 145.624 18.1191 146.184 18.1191H146.652V17.7578H142.043V18.1191H142.502C143.023 18.1191 143.404 18.2559 143.645 18.5293C143.827 18.7311 143.918 19.2389 143.918 20.0527V27.6894L135.822 17.7578ZM158.864 20.8633L158.718 17.7578H147.907L147.751 20.8633H148.122C148.167 20.2643 148.311 19.7891 148.552 19.4375C148.792 19.0859 149.082 18.8483 149.421 18.7246C149.681 18.6335 150.121 18.5879 150.739 18.5879H152.331V28.7051C152.331 29.4473 152.259 29.9225 152.116 30.1309C151.882 30.4694 151.485 30.6387 150.925 30.6387H150.456V31H156.071V30.6387H155.612C155.098 30.6387 154.717 30.5019 154.47 30.2285C154.294 30.0267 154.206 29.5189 154.206 28.7051V18.5879H156.071C156.618 18.5879 157.057 18.679 157.389 18.8613C157.728 19.0371 157.998 19.3138 158.2 19.6914C158.324 19.9258 158.421 20.3164 158.493 20.8633H158.864ZM50.8136 31.2493C52.2778 31.2653 53.7243 30.9241 55.0304 30.2545L55.5482 29.2959L55.3802 29.1092C54.238 29.8534 52.9047 30.241 51.5463 30.2239C50.6998 30.2377 49.8586 30.0883 49.0674 29.7836C48.358 29.5065 47.7122 29.0855 47.1697 28.5464C46.6275 28.0008 46.2101 27.3416 45.9468 26.6153C45.6551 25.8125 45.5104 24.9626 45.5199 24.1074C45.5098 23.3061 45.6385 22.5092 45.9 21.7528C46.133 21.0824 46.4985 20.4671 46.9742 19.9443C47.4427 19.4414 48.0116 19.0453 48.6433 18.7823C49.3339 18.4987 50.0739 18.3584 50.8191 18.3699C51.2703 18.3697 51.7204 18.4136 52.1632 18.5009C52.5641 18.579 52.9575 18.6918 53.3393 18.838C53.6412 18.9519 53.9251 19.1096 54.1821 19.3062C54.2756 19.3669 54.3536 19.4489 54.4101 19.5457C54.4665 19.6425 54.4998 19.7513 54.5071 19.8635V21.215H55.08C55.08 20.9781 55.0855 20.7552 55.0993 20.549C55.113 20.3428 55.1351 20.1282 55.1654 19.9025C55.1957 19.6768 55.2315 19.4427 55.2755 19.2003C55.3196 18.9551 55.3719 18.6764 55.4325 18.3643C54.703 18.1158 53.9576 17.9175 53.2016 17.7708C52.5258 17.6435 51.8398 17.5792 51.1524 17.5785C50.3663 17.572 49.5825 17.6656 48.8195 17.8572C48.1004 18.0433 47.4087 18.3243 46.7621 18.6931C45.7596 19.2585 44.924 20.0837 44.3411 21.084C43.7765 22.1125 43.4914 23.2739 43.5148 24.4501C43.5007 25.4061 43.6816 26.3547 44.0464 27.2367C44.3863 28.0527 44.8953 28.7853 45.5392 29.3851C46.2069 29.9953 46.989 30.4634 47.839 30.7617C48.7952 31.0972 49.8017 31.2622 50.8136 31.2493ZM42.4957 29.3265C42.38 29.0841 42.2395 28.7748 42.0798 28.3986L37.5931 17.7512H37.0257L36.3013 19.5318C36.2456 19.6631 36.1895 19.7945 36.1333 19.926C36.0285 20.1713 35.9233 20.4175 35.8193 20.6659C35.6596 21.0477 35.4916 21.4267 35.3208 21.8001L32.0157 29.3934C31.7807 29.9674 31.4474 30.274 31.0159 30.313L30.3301 30.3687V30.926L31.1261 30.8954L31.6769 30.8786H32.057H32.3324C32.3842 30.8786 32.441 30.8782 32.5039 30.8776L32.5041 30.8776H32.5041H32.5042C32.652 30.8763 32.8327 30.8747 33.0568 30.8786C33.3763 30.8842 33.8831 30.9009 34.5744 30.926V30.3687L33.8886 30.313C33.6534 30.3081 33.4214 30.257 33.2055 30.1625C33.1429 30.1323 33.0904 30.0844 33.0542 30.0245C33.018 29.9647 32.9998 29.8955 33.0017 29.8253C33.0252 29.5748 33.0808 29.3285 33.167 29.0925C33.2771 28.7442 33.4396 28.3234 33.649 27.8385L34.1668 26.5818H39.499L40.3501 28.7358C40.4383 28.9504 40.5044 29.1176 40.5539 29.2513C40.6035 29.3851 40.6421 29.4909 40.6669 29.5801C40.6817 29.6335 40.6936 29.6789 40.7037 29.7175L40.7037 29.7177C40.7105 29.7435 40.7164 29.7663 40.7219 29.7863C40.7338 29.8356 40.7402 29.8861 40.7412 29.9368C40.7412 30.0371 40.6724 30.1179 40.5374 30.1792C40.3619 30.2527 40.176 30.2979 39.9866 30.313L39.1162 30.3687V30.926L39.5403 30.9119C40.0961 30.8931 40.5253 30.8786 40.8294 30.8786H41.6914H42.0247H42.4792L43.1264 30.8954L44.0436 30.926V30.3687L43.4129 30.313C43.2969 30.3026 43.1852 30.2634 43.0879 30.1987C42.9781 30.118 42.8847 30.0168 42.8124 29.9006C42.694 29.7168 42.5881 29.525 42.4957 29.3265ZM36.8357 20.2591L39.1713 25.8322H34.4835L36.8357 20.2591ZM60.2387 28.6243C60.2387 29.0005 60.2387 29.2931 60.2663 29.5049C60.2734 29.6773 60.3136 29.8467 60.3847 30.0037C60.4146 30.0605 60.4557 30.1106 60.5054 30.1509C60.5552 30.1911 60.6125 30.2207 60.6739 30.2377C60.8408 30.2799 61.0115 30.3051 61.1834 30.313L62.0731 30.3687V30.926L61.8917 30.9215L61.8914 30.9214C61.4195 30.9096 61.0154 30.8994 60.6656 30.887C60.2718 30.8731 59.8393 30.8675 59.3573 30.8675H59.3572C58.8753 30.8675 58.4484 30.8675 58.0601 30.887C57.7872 30.9007 57.4761 30.9075 57.1261 30.9152H57.126C56.978 30.9185 56.823 30.9219 56.6609 30.926V30.3687L57.5505 30.313C57.7197 30.3053 57.8877 30.2801 58.0518 30.2377C58.1694 30.1974 58.2676 30.1138 58.3273 30.0037C58.405 29.8486 58.4492 29.6786 58.4567 29.5049C58.476 29.2931 58.4842 29.0005 58.4842 28.6243V20.209C58.4842 19.8328 58.4842 19.5402 58.4567 19.3256C58.4489 19.1529 58.4047 18.9838 58.3273 18.8296C58.2685 18.7187 58.1699 18.6349 58.0518 18.5956C57.8877 18.5532 57.7197 18.528 57.5505 18.5203L56.6609 18.4646V17.9073C57.2118 17.9324 57.6717 17.9491 58.0601 17.9546C58.3152 17.9583 58.5918 17.9572 58.8851 17.9559C59.0382 17.9553 59.1958 17.9546 59.3573 17.9546H60.0377H60.6629L61.3211 17.9351C61.5311 17.9351 61.7597 17.9234 62.0069 17.9107L62.0731 17.9073V18.4646L61.1834 18.5203C61.0115 18.5282 60.8408 18.5534 60.6739 18.5956C60.6123 18.6122 60.5548 18.6415 60.505 18.6818C60.4552 18.7221 60.4142 18.7725 60.3847 18.8296C60.314 18.9857 60.2738 19.1541 60.2663 19.3256C60.247 19.5402 60.2387 19.8328 60.2387 20.209V28.6243Z" fill="#252733"/>
<path d="M16.7134 23.9521H15.1453C14.9492 23.9521 14.7498 23.9721 14.7346 23.6778C14.7346 23.6365 14.6674 23.5919 14.6262 23.5663C14.4599 23.4416 14.3409 23.2613 14.2895 23.0563C14.2381 22.8513 14.2575 22.6343 14.3445 22.4424C14.3809 22.3652 14.4433 22.3042 14.52 22.2707C14.7259 22.2127 14.8072 22.0677 14.7422 21.8893C14.6862 21.757 14.5836 21.6515 14.455 21.5939C13.4299 21.1813 12.4437 20.7019 11.5984 19.9593C10.9155 19.3793 10.3691 18.6478 10 17.8197H15.0727C13.7073 16.8697 12.6366 15.8026 12.3819 14.1491C12.1327 12.5391 12.5011 11.0785 13.4353 9.77617L13.5339 9.79066C13.5155 9.93338 13.4873 10.0761 13.4786 10.2199C13.3865 11.7564 13.7279 13.1289 14.8571 14.2339C15.4769 14.8404 16.0697 15.4793 16.6354 16.1405C16.8803 16.4259 17.0255 16.8017 17.252 17.2008C17.3094 16.5898 17.2227 16.0602 16.9572 15.6008C16.5498 14.8984 16.1347 14.187 15.6286 13.5593C14.4821 12.1332 13.9489 10.5054 13.9695 8.67679C13.9858 7.24962 14.6587 6.11233 15.5701 5.0676C15.7749 5.38648 15.7121 5.67303 15.5625 5.9239C15.1605 6.59289 15.1984 7.29422 15.3967 8.01338C15.6752 9.02355 16.1553 9.93672 16.6625 10.8387C17.4709 12.2592 18.0388 13.77 18.0951 15.4369C18.1146 16.0078 18.0431 16.582 18.0117 17.1808C18.5215 16.548 18.8073 15.7558 18.8223 14.9341C18.8515 13.5459 18.4971 12.2514 17.9152 11.0127C17.4677 10.0538 16.9507 9.11721 16.579 8.1338C15.7674 5.98188 15.8508 3.86341 17.0602 1.8676C17.6345 0.918746 18.443 0.258676 19.5386 0.0334494C19.6502 0.0158311 19.7627 0.0046639 19.8756 0C19.4952 0.528502 19.0325 1.00348 18.7713 1.56878C18.0388 3.1699 17.913 4.83345 18.5849 6.50704C19.1614 7.94202 19.7716 9.36251 20.3188 10.8098C20.7718 12.0106 20.7154 13.2627 20.4662 14.5037C20.308 15.2842 19.8052 15.9052 19.3478 16.533C19.1907 16.7482 19.0292 16.96 18.8699 17.1741L18.9306 17.2733C19.2947 17.0358 19.7087 16.8518 20.0143 16.553C21.1782 15.4146 21.8381 14.0655 21.7276 12.3406C21.6312 10.8254 21.0406 9.53868 20.2896 8.28767C19.6946 7.30202 19.0336 6.34983 18.7226 5.2092C18.4711 4.28265 18.6716 3.42523 19.1614 2.61463C19.1961 2.94913 19.2286 3.27359 19.2644 3.60251C19.3259 4.33905 19.5918 5.04188 20.0306 5.62732C20.6439 6.42453 21.2996 7.18829 21.9097 7.98885C23.0876 9.52976 23.6771 11.2847 23.5547 13.2493C23.4626 14.7356 22.9175 16.0279 21.8002 17.0247L20.9224 17.8052H26.2162C25.9572 18.413 25.5934 18.9675 25.1423 19.442C24.1951 20.4778 23.0063 21.1066 21.7309 21.5883C21.5434 21.6597 21.4058 21.7455 21.4567 21.9763C21.4775 22.0687 21.5269 22.1517 21.5976 22.2127C22.0635 22.5583 22.0646 23.2028 21.5976 23.5607C21.5512 23.5919 21.5159 23.6377 21.4968 23.6912C21.4469 23.9264 21.2865 23.9532 21.0915 23.9498C20.6385 23.9439 20.1852 23.9439 19.7315 23.9498C19.6006 23.9701 19.4719 24.0026 19.3468 24.0468C20.01 24.5843 20.1151 25.2164 19.9016 25.9144C19.8265 26.1181 19.711 26.3034 19.5624 26.4585C19.3598 26.6882 19.3619 26.7785 19.6415 26.9045C19.7085 26.9291 19.7769 26.9493 19.8463 26.9647C19.9973 27.0033 20.1334 27.0877 20.2371 27.207C20.3407 27.3264 20.4069 27.4751 20.4272 27.6337C20.5063 28.0396 20.6103 28.441 20.6959 28.8468C20.7393 29.0508 20.8255 29.2424 20.9485 29.4085C21.0715 29.5745 21.2283 29.7108 21.4079 29.8079C21.6173 29.9238 21.8066 30.0745 21.9682 30.2539C22.0114 30.3216 22.0404 30.3978 22.0535 30.4777C22.0665 30.5575 22.0633 30.6393 22.044 30.7178C22.0267 30.7925 21.8197 30.8594 21.6983 30.8594C20.6374 30.8594 19.5765 30.8415 18.5156 30.8415C17.1924 30.8415 15.8692 30.8627 14.545 30.8571C14.4063 30.8571 14.1678 30.7635 14.1516 30.6787C14.1234 30.5293 14.2144 30.3443 14.2914 30.1915C14.3495 30.0975 14.4348 30.0246 14.5352 29.983C15.4357 29.5849 15.6297 28.7487 15.7435 27.8846C15.8085 27.3951 15.9776 27.0617 16.4793 26.9402C16.876 26.8443 16.8966 26.7116 16.6072 26.434C16.1076 25.9535 16.086 24.9243 16.5606 24.3456C16.6376 24.252 16.7069 24.1505 16.7773 24.0535L16.7134 23.9521Z" fill="#252733"/>
</svg>
