<svg width="18" height="18" viewBox="0 0 18 18" fill="none" xmlns="http://www.w3.org/2000/svg">
<g clip-path="url(#clip0_113_6069)">
<path d="M1.93782 12.7468C1.60049 12.4095 1.30093 12.0513 1.03483 11.6821C0.572702 11.9717 0.230104 12.243 0.0632173 12.3824C-0.00379048 12.4383 -0.019646 12.5346 0.0258462 12.6091C0.372663 13.1773 1.8816 15.4444 4.07764 15.8065C5.04848 15.9666 6.01144 15.7308 6.82809 15.3811C5.37072 15.0079 3.44673 14.2558 1.93782 12.7468V12.7468Z" fill="#DFE0EB"/>
<path d="M16.9652 11.6821C16.699 12.0514 16.3995 12.4095 16.0621 12.7468C14.5532 14.2558 12.6292 15.008 11.1719 15.3811C11.9886 15.7308 12.9515 15.9666 13.9223 15.8065C16.1184 15.4445 17.6273 13.1773 17.9741 12.6091C18.0196 12.5346 18.0038 12.4384 17.9367 12.3824C17.7699 12.243 17.4273 11.9716 16.9652 11.6821V11.6821Z" fill="#DFE0EB"/>
<path d="M5.60963 6.25748C5.80095 5.49448 6.07468 4.78984 6.37389 4.16599C5.52596 3.3812 4.72963 2.87653 4.38458 2.67337C4.2899 2.61761 4.16819 2.66117 4.13033 2.76431C3.98956 3.14808 3.68454 4.07315 3.52954 5.25218C4.2064 5.49894 4.92032 5.82562 5.60963 6.25748Z" fill="#DFE0EB"/>
<path d="M14.4703 5.25218C14.3153 4.07315 14.0103 3.14808 13.8695 2.76431C13.8317 2.66117 13.71 2.61761 13.6153 2.67337C13.2702 2.8765 12.4739 3.3812 11.626 4.16599C11.9252 4.78984 12.1989 5.49444 12.3902 6.25748C13.0795 5.82562 13.7935 5.49894 14.4703 5.25218V5.25218Z" fill="#DFE0EB"/>
<path d="M5.33472 8.41353C5.33472 8.0626 5.35772 7.71835 5.39909 7.38211C3.34723 5.94925 0.913579 5.62999 0.194844 5.56496C0.0836098 5.5549 -0.00930819 5.64782 0.000746498 5.75905C0.0772817 6.60442 0.505028 9.82245 2.68359 12.001C4.13234 13.4498 6.04055 14.1241 7.40521 14.4359C6.54716 13.1911 5.33472 10.9779 5.33472 8.41353V8.41353Z" fill="#DFE0EB"/>
<path d="M17.8051 5.56496C17.0864 5.62999 14.6527 5.94925 12.6009 7.38215C12.6423 7.71835 12.6653 8.0626 12.6653 8.41353C12.6653 10.9779 11.4528 13.1912 10.5947 14.4359C11.9594 14.1241 13.8676 13.4498 15.3164 12.001C17.4949 9.82241 17.9227 6.60439 17.9992 5.75902C18.0093 5.64782 17.9164 5.5549 17.8051 5.56496V5.56496Z" fill="#DFE0EB"/>
<path d="M11.6106 8.41352C11.6106 11.4442 9.66983 13.9801 9.13504 14.6213C9.06465 14.7057 8.93538 14.7057 8.865 14.6213C8.3302 13.9801 6.3894 11.4442 6.3894 8.41352C6.3894 5.38284 8.33024 2.84699 8.86504 2.20574C8.93542 2.12136 9.06469 2.12136 9.13507 2.20574C9.66983 2.84699 11.6106 5.38288 11.6106 8.41352V8.41352Z" fill="#DFE0EB"/>
</g>
<defs>
<clipPath id="clip0_113_6069">
<rect width="18" height="18" fill="white"/>
</clipPath>
</defs>
</svg>
