<svg width="18" height="16" viewBox="0 0 18 16" fill="none" xmlns="http://www.w3.org/2000/svg">
<path fill-rule="evenodd" clip-rule="evenodd" d="M14.1235 2.87717V6.07892L14.1239 12.4825C14.1462 12.8878 14.2768 13.28 14.5021 13.6177C14.7273 13.9556 15.0389 14.227 15.4045 14.4036C15.9939 14.7469 16.648 14.9649 17.3256 15.0439H3.12851C2.29406 15.0288 1.49964 14.6832 0.919744 14.0828C0.339988 13.4826 0.0218898 12.6767 0.0355806 11.8421V2.87717C0.0355806 2.36771 0.238072 1.87908 0.598253 1.51873C0.958643 1.15854 1.44728 0.956055 1.95669 0.956055H12.2024C12.7119 0.956055 13.2005 1.15855 13.5608 1.51873C13.921 1.87912 14.1235 2.36776 14.1235 2.87717ZM4.51819 11.2017L9.64083 11.2016V11.2017C9.86967 11.2017 10.0809 11.0795 10.1954 10.8814C10.3098 10.6833 10.3098 10.4393 10.1954 10.2412C10.081 10.0429 9.86968 9.92089 9.64083 9.92089H4.51819C4.28935 9.92089 4.07807 10.0429 3.96365 10.2412C3.84922 10.4393 3.84922 10.6833 3.96365 10.8814C4.07805 11.0795 4.28933 11.2017 4.51819 11.2017ZM4.51819 8.64023L9.64083 8.64006V8.64023C9.86967 8.64023 10.0809 8.5182 10.1954 8.32011C10.3098 8.12185 10.3098 7.87777 10.1954 7.67968C10.081 7.48159 9.86968 7.35956 9.64083 7.35956H4.51819C4.28935 7.35956 4.07807 7.48159 3.96365 7.67968C3.84922 7.87777 3.84922 8.12185 3.96365 8.32011C4.07805 8.5182 4.28933 8.64023 4.51819 8.64023ZM4.51819 6.07874L9.64083 6.07857V6.07874C9.86967 6.07874 10.0809 5.95671 10.1954 5.75862C10.3098 5.56053 10.3098 5.31645 10.1954 5.11819C10.081 4.9201 9.86968 4.79806 9.64083 4.79806H4.51819C4.28935 4.79806 4.07807 4.9201 3.96365 5.11819C3.84922 5.31645 3.84922 5.56052 3.96365 5.75862C4.07805 5.95671 4.28933 6.07874 4.51819 6.07874ZM17.9654 12.4822V6.07854C17.9654 5.73896 17.8305 5.41309 17.5903 5.17291C17.3501 4.93273 17.0244 4.79785 16.6847 4.79785H15.404V12.431C15.404 13.1224 15.7177 13.8205 16.6847 13.7628C17.0244 13.7628 17.3501 13.628 17.5903 13.3878C17.8305 13.1476 17.9654 12.8219 17.9654 12.4822Z" fill="#DFE0EB"/>
</svg>
