<svg width="18" height="18" viewBox="0 0 18 18" fill="none" xmlns="http://www.w3.org/2000/svg">
<path d="M13.3761 6.89407L9.74312 1.44453C9.57795 1.2794 9.33027 1.11426 9.08257 1.11426C8.83486 1.11426 8.58716 1.19683 8.42202 1.44453L4.78899 6.89407H0.825688C0.330275 6.89407 0 7.22435 0 7.71976C0 7.80233 0 7.8849 0 7.96747L2.06422 15.6464C2.22936 16.3069 2.88991 16.8849 3.63303 16.8849H14.367C15.1101 16.8849 15.7706 16.3895 15.9358 15.6464L18 7.96747C18 7.8849 18 7.80233 18 7.71976C18 7.22435 17.6697 6.89407 17.1743 6.89407H13.3761ZM6.6055 6.89407L9.08257 3.26105L11.5596 6.89407H6.6055ZM9.08257 13.4996C8.17431 13.4996 7.43119 12.7565 7.43119 11.8482C7.43119 10.9399 8.17431 10.1968 9.08257 10.1968C9.99082 10.1968 10.7339 10.9399 10.7339 11.8482C10.7339 12.7565 9.99082 13.4996 9.08257 13.4996Z" fill="#DFE0EB"/>
</svg>
