<svg width="19" height="17" viewBox="0 0 19 17" fill="none" xmlns="http://www.w3.org/2000/svg">
<path d="M18.9914 0.761347C19.0283 0.532705 18.9452 0.300977 18.7729 0.152278C18.6007 0.00357991 18.3651 -0.0398603 18.1536 0.0381011L0.420326 6.57656C0.181397 6.66465 0.0164497 6.89145 0.00115736 7.1529C-0.014135 7.41435 0.123179 7.65999 0.350104 7.77713L5.41677 10.3925C5.62005 10.4974 5.86221 10.4819 6.05131 10.3517L10.2571 7.45703L7.73878 10.7069C7.62789 10.85 7.58026 11.0346 7.6075 11.2157C7.63473 11.3968 7.73432 11.5578 7.88202 11.6594L15.482 16.8902C15.6608 17.0133 15.8879 17.0343 16.0851 16.9461C16.2823 16.8579 16.4227 16.6725 16.458 16.4536L18.9914 0.761347Z" fill="#DFE0EB"/>
</svg>
