<svg width="26" height="20" viewBox="0 0 26 20" fill="none" xmlns="http://www.w3.org/2000/svg">
<path d="M25.1415 2.32143C24.2478 2.72768 23.2844 2.99464 22.2862 3.12232C23.3076 2.50714 24.0969 1.53214 24.4683 0.359821C23.5049 0.940178 22.4371 1.34643 21.3112 1.57857C20.3942 0.580357 19.1058 0 17.6433 0C14.9156 0 12.6871 2.22857 12.6871 4.97946C12.6871 5.37411 12.7335 5.75714 12.8147 6.11696C8.68259 5.90804 5.00313 3.92321 2.55402 0.916964C2.12455 1.64821 1.8808 2.50714 1.8808 3.4125C1.8808 5.14196 2.75134 6.67411 4.09777 7.54464C3.27366 7.54464 2.50759 7.3125 1.83438 6.96428C1.83438 6.96428 1.83438 6.96428 1.83438 6.99911C1.83438 9.41339 3.55223 11.433 5.82723 11.8857C5.40938 12.0018 4.9683 12.0598 4.51563 12.0598C4.20223 12.0598 3.88884 12.025 3.58705 11.967C4.21384 13.9286 6.03616 15.3911 8.22991 15.4259C6.53527 16.7723 4.38795 17.5616 2.0433 17.5616C1.64866 17.5616 1.25402 17.5384 0.859375 17.492C3.06473 18.908 5.68795 19.7321 8.49688 19.7321C17.6433 19.7321 22.6692 12.1411 22.6692 5.55982C22.6692 5.33928 22.6692 5.13036 22.6576 4.90982C23.6326 4.21339 24.4683 3.33125 25.1415 2.32143Z" fill="#1DA1F2"/>
</svg>
