<svg width="14" height="14" viewBox="0 0 14 14" fill="none" xmlns="http://www.w3.org/2000/svg">
<path fill-rule="evenodd" clip-rule="evenodd" d="M2 6.33333C2 3.9401 3.9401 2 6.33333 2C8.72657 2 10.6667 3.9401 10.6667 6.33333C10.6667 7.49321 10.211 8.54666 9.46884 9.3244C9.44275 9.34569 9.41748 9.3685 9.39315 9.39283C9.36881 9.41717 9.34598 9.44246 9.32467 9.46858C8.5469 10.2109 7.49335 10.6667 6.33333 10.6667C3.9401 10.6667 2 8.72657 2 6.33333ZM10.0489 11.4628C9.00524 12.2201 7.72144 12.6667 6.33333 12.6667C2.83553 12.6667 0 9.83114 0 6.33333C0 2.83553 2.83553 0 6.33333 0C9.83114 0 12.6667 2.83553 12.6667 6.33333C12.6667 7.72127 12.2202 9.00493 11.4631 10.0485L13.7074 12.2928C14.0979 12.6834 14.0979 13.3165 13.7074 13.707C13.3168 14.0976 12.6837 14.0976 12.2932 13.707L10.0489 11.4628Z" fill="#3751FF"/>
</svg>
